# MagicaVoxel @ ephtracy

# material
mtllib DungeonFloorBox.mtl
usemtl palette

# normals
vn -1 0 0
vn 1 0 0
vn 0 0 1
vn 0 0 -1
vn 0 -1 0
vn 0 1 0

# texcoords
vt 0.939453 0.5
vt 0.943359 0.5
vt 0.947266 0.5
vt 0.951172 0.5
vt 0.955078 0.5

# verts
v -5 0 5
v -5 0 -5
v -5 1 4
v -5 1 -0
v -5 1 -1
v -5 1 -2
v -5 1 -3
v -5 1 -4
v -5 2 4
v -5 2 -0
v -5 2 -1
v -5 2 -2
v -5 2 -3
v -5 2 -4
v -5 3 4
v -5 3 -0
v -5 3 -1
v -5 3 -2
v -5 3 -3
v -5 4 4
v -5 4 -0
v -5 4 -1
v -5 5 4
v -5 5 -0
v -5 5 -1
v -5 6 4
v -5 6 -0
v -5 6 -1
v -5 6 -2
v -5 6 -3
v -5 6 -4
v -5 7 4
v -5 7 -3
v -5 7 -4
v -5 8 4
v -5 8 -3
v -5 8 -4
v -5 9 4
v -5 9 -3
v -5 9 -4
v -5 10 5
v -5 10 -5
v 5 0 5
v 5 0 -5
v 5 1 4
v 5 1 3
v 5 1 2
v 5 1 1
v 5 1 -0
v 5 1 -1
v 5 1 -2
v 5 1 -3
v 5 1 -4
v 5 2 4
v 5 2 3
v 5 2 2
v 5 2 1
v 5 2 -0
v 5 2 -1
v 5 2 -2
v 5 2 -3
v 5 2 -4
v 5 3 3
v 5 3 2
v 5 3 -0
v 5 3 -1
v 5 3 -3
v 5 3 -4
v 5 6 1
v 5 6 -0
v 5 6 -1
v 5 6 -2
v 5 6 -3
v 5 6 -4
v 5 7 1
v 5 7 -0
v 5 7 -4
v 5 8 1
v 5 8 -0
v 5 8 -4
v 5 9 4
v 5 9 3
v 5 9 2
v 5 9 1
v 5 9 -0
v 5 9 -4
v 5 10 5
v 5 10 -5
v -5 0 5
v -5 10 5
v -4 1 5
v -4 2 5
v -4 6 5
v -4 7 5
v -4 8 5
v -4 9 5
v -3 1 5
v -3 2 5
v -3 3 5
v -3 6 5
v -3 7 5
v -3 8 5
v -3 9 5
v -1 1 5
v -1 2 5
v -1 3 5
v -1 6 5
v 0 1 5
v 0 2 5
v 0 3 5
v 0 4 5
v 0 5 5
v 0 6 5
v 1 1 5
v 1 2 5
v 1 3 5
v 1 4 5
v 1 5 5
v 1 6 5
v 4 1 5
v 4 2 5
v 4 3 5
v 4 4 5
v 4 5 5
v 4 6 5
v 4 7 5
v 4 8 5
v 4 9 5
v 5 0 5
v 5 10 5
v -5 0 -5
v -5 10 -5
v -4 1 -5
v -4 2 -5
v -4 3 -5
v -4 6 -5
v -4 7 -5
v -4 8 -5
v -4 9 -5
v -4 10 -5
v -3 1 -5
v -3 2 -5
v -3 3 -5
v -3 6 -5
v -3 7 -5
v -3 8 -5
v -3 9 -5
v -3 10 -5
v -2 1 -5
v -2 2 -5
v -2 3 -5
v -2 6 -5
v -2 7 -5
v -2 8 -5
v -2 9 -5
v -1 7 -5
v -1 8 -5
v -1 9 -5
v 0 1 -5
v 0 2 -5
v 0 3 -5
v 0 6 -5
v 1 1 -5
v 1 2 -5
v 1 6 -5
v 2 1 -5
v 2 2 -5
v 2 6 -5
v 3 1 -5
v 3 2 -5
v 3 6 -5
v 3 7 -5
v 3 8 -5
v 3 9 -5
v 4 1 -5
v 4 2 -5
v 4 6 -5
v 4 7 -5
v 4 8 -5
v 4 9 -5
v 5 0 -5
v 5 10 -5
v -5 0 5
v 5 0 5
v -3 0 4
v 1 0 4
v 2 0 4
v 4 0 4
v -3 0 -0
v 1 0 -0
v 2 0 -0
v 4 0 -0
v -3 0 -1
v -1 0 -1
v 0 0 -1
v 4 0 -1
v -3 0 -4
v -1 0 -4
v 0 0 -4
v 4 0 -4
v -5 0 -5
v 5 0 -5
v -5 10 5
v 5 10 5
v -4 10 4
v 0 10 4
v 1 10 4
v 2 10 4
v 3 10 4
v 4 10 4
v -4 10 3
v -1 10 3
v 0 10 3
v 1 10 3
v 2 10 3
v 3 10 3
v 4 10 3
v -4 10 1
v -1 10 1
v 0 10 1
v 1 10 1
v -4 10 -0
v 0 10 -0
v 1 10 -0
v -4 10 -1
v -1 10 -1
v 0 10 -1
v 1 10 -1
v -4 10 -4
v -3 10 -4
v -1 10 -4
v 0 10 -4
v 1 10 -4
v 2 10 -4
v 3 10 -4
v 4 10 -4
v -5 10 -5
v -4 10 -5
v -3 10 -5
v 5 10 -5

# faces
f 3/2/1 2/2/1 1/2/1
f 4/2/1 2/2/1 3/2/1
f 5/2/1 2/2/1 4/2/1
f 6/2/1 2/2/1 5/2/1
f 7/2/1 2/2/1 6/2/1
f 8/2/1 2/2/1 7/2/1
f 9/2/1 3/2/1 1/2/1
f 9/3/1 4/3/1 3/3/1
f 10/1/1 5/1/1 4/1/1
f 10/3/1 4/3/1 9/3/1
f 11/2/1 6/2/1 5/2/1
f 11/1/1 5/1/1 10/1/1
f 12/3/1 7/3/1 6/3/1
f 12/2/1 6/2/1 11/2/1
f 13/1/1 8/1/1 7/1/1
f 13/3/1 7/3/1 12/3/1
f 14/2/1 2/2/1 8/2/1
f 14/1/1 8/1/1 13/1/1
f 15/2/1 9/2/1 1/2/1
f 15/4/1 10/4/1 9/4/1
f 16/3/1 11/3/1 10/3/1
f 16/4/1 10/4/1 15/4/1
f 17/2/1 12/2/1 11/2/1
f 17/3/1 11/3/1 16/3/1
f 18/4/1 13/4/1 12/4/1
f 18/2/1 12/2/1 17/2/1
f 19/3/1 14/3/1 13/3/1
f 19/4/1 13/4/1 18/4/1
f 20/2/1 17/2/1 16/2/1
f 20/2/1 16/2/1 15/2/1
f 20/2/1 18/2/1 17/2/1
f 20/2/1 15/2/1 1/2/1
f 21/2/1 18/2/1 20/2/1
f 22/2/1 18/2/1 21/2/1
f 23/2/1 20/2/1 1/2/1
f 23/3/1 21/3/1 20/3/1
f 24/1/1 22/1/1 21/1/1
f 24/3/1 21/3/1 23/3/1
f 25/2/1 18/2/1 22/2/1
f 25/1/1 22/1/1 24/1/1
f 26/4/1 24/4/1 23/4/1
f 26/2/1 23/2/1 1/2/1
f 27/3/1 25/3/1 24/3/1
f 27/4/1 24/4/1 26/4/1
f 28/2/1 18/2/1 25/2/1
f 28/3/1 25/3/1 27/3/1
f 29/1/1 19/1/1 18/1/1
f 29/2/1 18/2/1 28/2/1
f 30/3/1 14/3/1 19/3/1
f 30/1/1 19/1/1 29/1/1
f 31/2/1 2/2/1 14/2/1
f 31/3/1 14/3/1 30/3/1
f 32/2/1 29/2/1 28/2/1
f 32/2/1 28/2/1 27/2/1
f 32/2/1 31/2/1 30/2/1
f 32/2/1 26/2/1 1/2/1
f 32/2/1 27/2/1 26/2/1
f 32/2/1 30/2/1 29/2/1
f 33/2/1 31/2/1 32/2/1
f 34/2/1 2/2/1 31/2/1
f 34/2/1 31/2/1 33/2/1
f 35/3/1 33/3/1 32/3/1
f 35/2/1 32/2/1 1/2/1
f 36/1/1 34/1/1 33/1/1
f 36/3/1 33/3/1 35/3/1
f 37/2/1 2/2/1 34/2/1
f 37/1/1 34/1/1 36/1/1
f 38/1/1 36/1/1 35/1/1
f 38/2/1 35/2/1 1/2/1
f 39/3/1 37/3/1 36/3/1
f 39/1/1 36/1/1 38/1/1
f 40/2/1 2/2/1 37/2/1
f 40/3/1 37/3/1 39/3/1
f 41/2/1 39/2/1 38/2/1
f 41/2/1 38/2/1 1/2/1
f 41/2/1 40/2/1 39/2/1
f 42/2/1 2/2/1 40/2/1
f 42/2/1 40/2/1 41/2/1
f 43/2/2 44/2/2 45/2/2
f 45/2/2 44/2/2 46/2/2
f 46/2/2 44/2/2 47/2/2
f 47/2/2 44/2/2 48/2/2
f 48/2/2 44/2/2 49/2/2
f 49/2/2 44/2/2 50/2/2
f 50/2/2 44/2/2 51/2/2
f 51/2/2 44/2/2 52/2/2
f 52/2/2 44/2/2 53/2/2
f 43/2/2 45/2/2 54/2/2
f 45/1/2 46/1/2 54/1/2
f 46/3/2 47/3/2 55/3/2
f 54/1/2 46/1/2 55/1/2
f 47/2/2 48/2/2 56/2/2
f 55/3/2 47/3/2 56/3/2
f 48/1/2 49/1/2 57/1/2
f 56/2/2 48/2/2 57/2/2
f 49/3/2 50/3/2 58/3/2
f 57/1/2 49/1/2 58/1/2
f 50/2/2 51/2/2 59/2/2
f 58/3/2 50/3/2 59/3/2
f 51/1/2 52/1/2 60/1/2
f 59/2/2 51/2/2 60/2/2
f 52/3/2 53/3/2 61/3/2
f 60/1/2 52/1/2 61/1/2
f 53/2/2 44/2/2 62/2/2
f 61/3/2 53/3/2 62/3/2
f 54/3/2 55/3/2 63/3/2
f 55/4/2 56/4/2 63/4/2
f 56/2/2 57/2/2 64/2/2
f 63/4/2 56/4/2 64/4/2
f 57/3/2 58/3/2 65/3/2
f 58/4/2 59/4/2 65/4/2
f 59/2/2 60/2/2 66/2/2
f 65/4/2 59/4/2 66/4/2
f 60/3/2 61/3/2 67/3/2
f 61/4/2 62/4/2 67/4/2
f 62/2/2 44/2/2 68/2/2
f 67/4/2 62/4/2 68/4/2
f 57/3/2 65/3/2 69/3/2
f 64/2/2 57/2/2 69/2/2
f 65/1/2 66/1/2 70/1/2
f 69/3/2 65/3/2 70/3/2
f 66/2/2 60/2/2 71/2/2
f 70/1/2 66/1/2 71/1/2
f 60/3/2 67/3/2 72/3/2
f 71/2/2 60/2/2 72/2/2
f 67/1/2 68/1/2 73/1/2
f 72/3/2 67/3/2 73/3/2
f 68/2/2 44/2/2 74/2/2
f 73/1/2 68/1/2 74/1/2
f 69/2/2 70/2/2 75/2/2
f 72/2/2 73/2/2 75/2/2
f 73/2/2 74/2/2 75/2/2
f 70/2/2 71/2/2 75/2/2
f 71/2/2 72/2/2 75/2/2
f 64/2/2 69/2/2 75/2/2
f 75/2/2 74/2/2 76/2/2
f 74/2/2 44/2/2 77/2/2
f 76/2/2 74/2/2 77/2/2
f 75/1/2 76/1/2 78/1/2
f 64/2/2 75/2/2 78/2/2
f 76/3/2 77/3/2 79/3/2
f 78/1/2 76/1/2 79/1/2
f 77/2/2 44/2/2 80/2/2
f 79/3/2 77/3/2 80/3/2
f 43/2/2 54/2/2 81/2/2
f 54/3/2 63/3/2 81/3/2
f 63/1/2 64/1/2 82/1/2
f 81/3/2 63/3/2 82/3/2
f 64/2/2 78/2/2 83/2/2
f 82/1/2 64/1/2 83/1/2
f 78/3/2 79/3/2 84/3/2
f 83/2/2 78/2/2 84/2/2
f 79/4/2 80/4/2 85/4/2
f 84/3/2 79/3/2 85/3/2
f 80/2/2 44/2/2 86/2/2
f 85/4/2 80/4/2 86/4/2
f 82/2/2 83/2/2 87/2/2
f 43/2/2 81/2/2 87/2/2
f 85/2/2 86/2/2 87/2/2
f 81/2/2 82/2/2 87/2/2
f 83/2/2 84/2/2 87/2/2
f 84/2/2 85/2/2 87/2/2
f 86/2/2 44/2/2 88/2/2
f 87/2/2 86/2/2 88/2/2
f 91/2/3 90/2/3 89/2/3
f 92/2/3 90/2/3 91/2/3
f 93/2/3 90/2/3 92/2/3
f 94/2/3 90/2/3 93/2/3
f 95/2/3 90/2/3 94/2/3
f 96/2/3 90/2/3 95/2/3
f 97/2/3 91/2/3 89/2/3
f 97/1/3 92/1/3 91/1/3
f 98/3/3 93/3/3 92/3/3
f 98/1/3 92/1/3 97/1/3
f 99/3/3 93/3/3 98/3/3
f 100/2/3 94/2/3 93/2/3
f 100/3/3 93/3/3 99/3/3
f 101/1/3 95/1/3 94/1/3
f 101/2/3 94/2/3 100/2/3
f 102/3/3 96/3/3 95/3/3
f 102/1/3 95/1/3 101/1/3
f 103/2/3 90/2/3 96/2/3
f 103/3/3 96/3/3 102/3/3
f 104/2/3 97/2/3 89/2/3
f 104/3/3 98/3/3 97/3/3
f 105/4/3 99/4/3 98/4/3
f 105/3/3 98/3/3 104/3/3
f 106/1/3 100/1/3 99/1/3
f 106/4/3 99/4/3 105/4/3
f 107/2/3 101/2/3 100/2/3
f 107/1/3 100/1/3 106/1/3
f 108/2/3 106/2/3 105/2/3
f 108/2/3 104/2/3 89/2/3
f 108/2/3 107/2/3 106/2/3
f 108/2/3 105/2/3 104/2/3
f 109/2/3 107/2/3 108/2/3
f 110/2/3 107/2/3 109/2/3
f 111/2/3 107/2/3 110/2/3
f 112/2/3 107/2/3 111/2/3
f 113/2/3 101/2/3 107/2/3
f 113/2/3 107/2/3 112/2/3
f 114/2/3 108/2/3 89/2/3
f 114/1/3 109/1/3 108/1/3
f 115/3/3 110/3/3 109/3/3
f 115/1/3 109/1/3 114/1/3
f 116/2/3 111/2/3 110/2/3
f 116/3/3 110/3/3 115/3/3
f 117/1/3 112/1/3 111/1/3
f 117/2/3 111/2/3 116/2/3
f 118/3/3 113/3/3 112/3/3
f 118/1/3 112/1/3 117/1/3
f 119/2/3 101/2/3 113/2/3
f 119/3/3 113/3/3 118/3/3
f 120/2/3 114/2/3 89/2/3
f 120/3/3 115/3/3 114/3/3
f 121/4/3 116/4/3 115/4/3
f 121/3/3 115/3/3 120/3/3
f 122/2/3 117/2/3 116/2/3
f 122/4/3 116/4/3 121/4/3
f 123/3/3 118/3/3 117/3/3
f 123/2/3 117/2/3 122/2/3
f 124/4/3 119/4/3 118/4/3
f 124/3/3 118/3/3 123/3/3
f 125/2/3 101/2/3 119/2/3
f 125/4/3 119/4/3 124/4/3
f 126/3/3 102/3/3 101/3/3
f 126/2/3 101/2/3 125/2/3
f 127/4/3 103/4/3 102/4/3
f 127/3/3 102/3/3 126/3/3
f 128/2/3 90/2/3 103/2/3
f 128/4/3 103/4/3 127/4/3
f 129/2/3 125/2/3 124/2/3
f 129/2/3 120/2/3 89/2/3
f 129/2/3 128/2/3 127/2/3
f 129/2/3 123/2/3 122/2/3
f 129/2/3 124/2/3 123/2/3
f 129/2/3 121/2/3 120/2/3
f 129/2/3 122/2/3 121/2/3
f 129/2/3 126/2/3 125/2/3
f 129/2/3 127/2/3 126/2/3
f 130/2/3 90/2/3 128/2/3
f 130/2/3 128/2/3 129/2/3
f 131/2/4 132/2/4 133/2/4
f 133/2/4 132/2/4 134/2/4
f 134/2/4 132/2/4 135/2/4
f 135/2/4 132/2/4 136/2/4
f 136/2/4 132/2/4 137/2/4
f 137/2/4 132/2/4 138/2/4
f 138/2/4 132/2/4 139/2/4
f 139/2/4 132/2/4 140/2/4
f 131/2/4 133/2/4 141/2/4
f 133/3/4 134/3/4 141/3/4
f 134/4/4 135/4/4 142/4/4
f 141/3/4 134/3/4 142/3/4
f 135/1/4 136/1/4 143/1/4
f 142/4/4 135/4/4 143/4/4
f 136/2/4 137/2/4 144/2/4
f 143/1/4 136/1/4 144/1/4
f 137/3/4 138/3/4 145/3/4
f 144/2/4 137/2/4 145/2/4
f 138/4/4 139/4/4 146/4/4
f 145/3/4 138/3/4 146/3/4
f 139/5/4 140/5/4 147/5/4
f 146/4/4 139/4/4 147/4/4
f 147/5/4 140/5/4 148/5/4
f 131/2/4 141/2/4 149/2/4
f 141/2/4 142/2/4 149/2/4
f 142/2/4 143/2/4 149/2/4
f 143/2/4 144/2/4 149/2/4
f 144/2/4 145/2/4 149/2/4
f 149/2/4 145/2/4 150/2/4
f 150/2/4 145/2/4 151/2/4
f 151/2/4 145/2/4 152/2/4
f 145/1/4 146/1/4 153/1/4
f 152/2/4 145/2/4 153/2/4
f 146/3/4 147/3/4 154/3/4
f 153/1/4 146/1/4 154/1/4
f 147/2/4 148/2/4 155/2/4
f 154/3/4 147/3/4 155/3/4
f 153/2/4 154/2/4 156/2/4
f 152/2/4 153/2/4 156/2/4
f 154/2/4 155/2/4 156/2/4
f 156/2/4 155/2/4 157/2/4
f 155/2/4 148/2/4 158/2/4
f 157/2/4 155/2/4 158/2/4
f 131/2/4 149/2/4 159/2/4
f 149/3/4 150/3/4 159/3/4
f 150/4/4 151/4/4 160/4/4
f 159/3/4 150/3/4 160/3/4
f 151/1/4 152/1/4 161/1/4
f 160/4/4 151/4/4 161/4/4
f 152/2/4 156/2/4 162/2/4
f 161/1/4 152/1/4 162/1/4
f 159/1/4 160/1/4 163/1/4
f 131/2/4 159/2/4 163/2/4
f 161/3/4 162/3/4 164/3/4
f 163/1/4 160/1/4 164/1/4
f 160/3/4 161/3/4 164/3/4
f 162/2/4 156/2/4 165/2/4
f 164/3/4 162/3/4 165/3/4
f 163/2/4 164/2/4 166/2/4
f 131/2/4 163/2/4 166/2/4
f 164/2/4 165/2/4 166/2/4
f 166/2/4 165/2/4 167/2/4
f 165/2/4 156/2/4 168/2/4
f 167/2/4 165/2/4 168/2/4
f 166/3/4 167/3/4 169/3/4
f 131/2/4 166/2/4 169/2/4
f 167/1/4 168/1/4 170/1/4
f 169/3/4 167/3/4 170/3/4
f 168/2/4 156/2/4 171/2/4
f 170/1/4 168/1/4 171/1/4
f 156/3/4 157/3/4 172/3/4
f 171/2/4 156/2/4 172/2/4
f 157/4/4 158/4/4 173/4/4
f 172/3/4 157/3/4 173/3/4
f 158/2/4 148/2/4 174/2/4
f 173/4/4 158/4/4 174/4/4
f 169/1/4 170/1/4 175/1/4
f 131/2/4 169/2/4 175/2/4
f 170/3/4 171/3/4 176/3/4
f 175/1/4 170/1/4 176/1/4
f 171/5/4 172/5/4 177/5/4
f 176/3/4 171/3/4 177/3/4
f 172/1/4 173/1/4 178/1/4
f 177/5/4 172/5/4 178/5/4
f 173/3/4 174/3/4 179/3/4
f 178/1/4 173/1/4 179/1/4
f 174/2/4 148/2/4 180/2/4
f 179/3/4 174/3/4 180/3/4
f 178/2/4 179/2/4 181/2/4
f 131/2/4 175/2/4 181/2/4
f 179/2/4 180/2/4 181/2/4
f 177/2/4 178/2/4 181/2/4
f 176/2/4 177/2/4 181/2/4
f 175/2/4 176/2/4 181/2/4
f 180/2/4 148/2/4 182/2/4
f 181/2/4 180/2/4 182/2/4
f 185/2/5 184/2/5 183/2/5
f 186/2/5 184/2/5 185/2/5
f 187/2/5 184/2/5 186/2/5
f 188/2/5 184/2/5 187/2/5
f 189/2/5 185/2/5 183/2/5
f 189/1/5 186/1/5 185/1/5
f 190/2/5 187/2/5 186/2/5
f 190/1/5 186/1/5 189/1/5
f 191/1/5 188/1/5 187/1/5
f 191/2/5 187/2/5 190/2/5
f 192/2/5 184/2/5 188/2/5
f 192/1/5 188/1/5 191/1/5
f 193/2/5 191/2/5 190/2/5
f 193/2/5 190/2/5 189/2/5
f 193/2/5 192/2/5 191/2/5
f 193/2/5 189/2/5 183/2/5
f 194/2/5 192/2/5 193/2/5
f 195/2/5 192/2/5 194/2/5
f 196/2/5 184/2/5 192/2/5
f 196/2/5 192/2/5 195/2/5
f 197/2/5 193/2/5 183/2/5
f 197/1/5 194/1/5 193/1/5
f 198/2/5 195/2/5 194/2/5
f 198/1/5 194/1/5 197/1/5
f 199/1/5 196/1/5 195/1/5
f 199/2/5 195/2/5 198/2/5
f 200/2/5 184/2/5 196/2/5
f 200/1/5 196/1/5 199/1/5
f 201/2/5 197/2/5 183/2/5
f 201/2/5 199/2/5 198/2/5
f 201/2/5 200/2/5 199/2/5
f 201/2/5 198/2/5 197/2/5
f 202/2/5 184/2/5 200/2/5
f 202/2/5 200/2/5 201/2/5
f 203/2/6 204/2/6 205/2/6
f 205/2/6 204/2/6 206/2/6
f 206/2/6 204/2/6 207/2/6
f 207/2/6 204/2/6 208/2/6
f 208/2/6 204/2/6 209/2/6
f 209/2/6 204/2/6 210/2/6
f 203/2/6 205/2/6 211/2/6
f 205/3/6 206/3/6 211/3/6
f 211/3/6 206/3/6 212/3/6
f 206/4/6 207/4/6 213/4/6
f 212/3/6 206/3/6 213/3/6
f 207/2/6 208/2/6 214/2/6
f 213/4/6 207/4/6 214/4/6
f 208/3/6 209/3/6 215/3/6
f 214/2/6 208/2/6 215/2/6
f 209/1/6 210/1/6 216/1/6
f 215/3/6 209/3/6 216/3/6
f 210/2/6 204/2/6 217/2/6
f 216/1/6 210/1/6 217/1/6
f 211/1/6 212/1/6 218/1/6
f 203/2/6 211/2/6 218/2/6
f 212/4/6 213/4/6 219/4/6
f 218/1/6 212/1/6 219/1/6
f 213/3/6 214/3/6 220/3/6
f 219/4/6 213/4/6 220/4/6
f 214/2/6 215/2/6 221/2/6
f 220/3/6 214/3/6 221/3/6
f 219/2/6 220/2/6 222/2/6
f 203/2/6 218/2/6 222/2/6
f 220/2/6 221/2/6 222/2/6
f 218/2/6 219/2/6 222/2/6
f 222/2/6 221/2/6 223/2/6
f 221/2/6 215/2/6 224/2/6
f 223/2/6 221/2/6 224/2/6
f 222/3/6 223/3/6 225/3/6
f 203/2/6 222/2/6 225/2/6
f 225/3/6 223/3/6 226/3/6
f 223/4/6 224/4/6 227/4/6
f 226/3/6 223/3/6 227/3/6
f 224/2/6 215/2/6 228/2/6
f 227/4/6 224/4/6 228/4/6
f 225/1/6 226/1/6 229/1/6
f 203/2/6 225/2/6 229/2/6
f 229/1/6 226/1/6 230/1/6
f 226/4/6 227/4/6 231/4/6
f 230/1/6 226/1/6 231/1/6
f 227/3/6 228/3/6 232/3/6
f 231/4/6 227/4/6 232/4/6
f 228/2/6 215/2/6 233/2/6
f 232/3/6 228/3/6 233/3/6
f 215/4/6 216/4/6 234/4/6
f 233/2/6 215/2/6 234/2/6
f 216/3/6 217/3/6 235/3/6
f 234/4/6 216/4/6 235/4/6
f 217/2/6 204/2/6 236/2/6
f 235/3/6 217/3/6 236/3/6
f 203/2/6 229/2/6 237/2/6
f 229/5/6 230/5/6 238/5/6
f 237/2/6 229/2/6 238/2/6
f 232/2/6 233/2/6 239/2/6
f 238/5/6 230/5/6 239/5/6
f 234/2/6 235/2/6 239/2/6
f 235/2/6 236/2/6 239/2/6
f 233/2/6 234/2/6 239/2/6
f 230/2/6 231/2/6 239/2/6
f 231/2/6 232/2/6 239/2/6
f 236/2/6 204/2/6 240/2/6
f 239/2/6 236/2/6 240/2/6
