# MagicaVoxel @ ephtracy

# material
mtllib FearScrollModel.mtl
usemtl palette

# normals
vn -1 0 0
vn 1 0 0
vn 0 0 1
vn 0 0 -1
vn 0 -1 0
vn 0 1 0

# texcoords
vt 0.00195313 0.5
vt 0.0332031 0.5
vt 0.330078 0.5
vt 0.373047 0.5

# verts
v -8 1 1
v -8 1 -1
v -8 15 1
v -8 15 -1
v -7 0 1
v -7 0 -1
v -7 1 2
v -7 1 1
v -7 1 -1
v -7 1 -2
v -7 15 2
v -7 15 1
v -7 15 -1
v -7 15 -2
v -7 16 1
v -7 16 -1
v 4 1 1
v 4 1 -0
v 4 15 1
v 4 15 -0
v 5 0 1
v 5 0 -1
v 5 1 2
v 5 1 1
v 5 1 -1
v 5 15 2
v 5 15 1
v 5 15 -1
v 5 16 1
v 5 16 -1
v -5 0 1
v -5 0 -1
v -5 1 2
v -5 1 1
v -5 1 -1
v -5 15 2
v -5 15 1
v -5 15 -1
v -5 16 1
v -5 16 -1
v -4 1 1
v -4 1 -0
v -4 15 1
v -4 15 -0
v 7 0 1
v 7 0 -1
v 7 1 2
v 7 1 1
v 7 1 -1
v 7 1 -2
v 7 15 2
v 7 15 1
v 7 15 -1
v 7 15 -2
v 7 16 1
v 7 16 -1
v 8 1 1
v 8 1 -1
v 8 15 1
v 8 15 -1
v -7 1 2
v -7 15 2
v -5 1 2
v -5 15 2
v 5 1 2
v 5 15 2
v 7 1 2
v 7 15 2
v -8 1 1
v -8 15 1
v -7 0 1
v -7 1 1
v -7 15 1
v -7 16 1
v -5 0 1
v -5 1 1
v -5 15 1
v -5 16 1
v -4 1 1
v -4 15 1
v 4 1 1
v 4 15 1
v 5 0 1
v 5 1 1
v 5 15 1
v 5 16 1
v 7 0 1
v 7 1 1
v 7 15 1
v 7 16 1
v 8 1 1
v 8 15 1
v -4 1 -0
v -4 15 -0
v -3 5 -0
v -3 11 -0
v -2 4 -0
v -2 5 -0
v -2 6 -0
v -2 7 -0
v -2 9 -0
v -2 10 -0
v -2 11 -0
v -2 12 -0
v -1 4 -0
v -1 5 -0
v -1 6 -0
v -1 7 -0
v -1 8 -0
v -1 9 -0
v -1 10 -0
v -1 11 -0
v -1 12 -0
v 1 4 -0
v 1 5 -0
v 1 6 -0
v 1 7 -0
v 1 8 -0
v 1 9 -0
v 1 10 -0
v 1 11 -0
v 1 12 -0
v 2 4 -0
v 2 5 -0
v 2 6 -0
v 2 7 -0
v 2 9 -0
v 2 10 -0
v 2 11 -0
v 2 12 -0
v 3 5 -0
v 3 11 -0
v 4 1 -0
v 4 15 -0
v -8 1 -1
v -8 15 -1
v -7 0 -1
v -7 1 -1
v -7 15 -1
v -7 16 -1
v -5 0 -1
v -5 1 -1
v -5 15 -1
v -5 16 -1
v 5 0 -1
v 5 1 -1
v 5 15 -1
v 5 16 -1
v 7 0 -1
v 7 1 -1
v 7 15 -1
v 7 16 -1
v 8 1 -1
v 8 15 -1
v -7 1 -2
v -7 15 -2
v 7 1 -2
v 7 15 -2
v -7 0 1
v -5 0 1
v 5 0 1
v 7 0 1
v -7 0 -1
v -5 0 -1
v 5 0 -1
v 7 0 -1
v -7 1 2
v -5 1 2
v 5 1 2
v 7 1 2
v -8 1 1
v -7 1 1
v -5 1 1
v -4 1 1
v 4 1 1
v 5 1 1
v 7 1 1
v 8 1 1
v -4 1 -0
v 4 1 -0
v -8 1 -1
v -7 1 -1
v -5 1 -1
v 5 1 -1
v 7 1 -1
v 8 1 -1
v -7 1 -2
v 7 1 -2
v -7 15 2
v -5 15 2
v 5 15 2
v 7 15 2
v -8 15 1
v -7 15 1
v -5 15 1
v -4 15 1
v 4 15 1
v 5 15 1
v 7 15 1
v 8 15 1
v -4 15 -0
v 4 15 -0
v -8 15 -1
v -7 15 -1
v -5 15 -1
v 5 15 -1
v 7 15 -1
v 8 15 -1
v -7 15 -2
v 7 15 -2
v -7 16 1
v -5 16 1
v 5 16 1
v 7 16 1
v -7 16 -1
v -5 16 -1
v 5 16 -1
v 7 16 -1

# faces
f 3/1/1 2/1/1 1/1/1
f 4/1/1 2/1/1 3/1/1
f 8/4/1 6/4/1 5/4/1
f 9/4/1 6/4/1 8/4/1
f 11/1/1 8/1/1 7/1/1
f 12/1/1 8/1/1 11/1/1
f 13/1/1 10/1/1 9/1/1
f 14/1/1 10/1/1 13/1/1
f 15/4/1 13/4/1 12/4/1
f 16/4/1 13/4/1 15/4/1
f 19/1/1 18/1/1 17/1/1
f 20/1/1 18/1/1 19/1/1
f 24/4/1 22/4/1 21/4/1
f 25/4/1 22/4/1 24/4/1
f 26/1/1 24/1/1 23/1/1
f 27/1/1 24/1/1 26/1/1
f 29/4/1 28/4/1 27/4/1
f 30/4/1 28/4/1 29/4/1
f 31/4/2 32/4/2 34/4/2
f 34/4/2 32/4/2 35/4/2
f 33/1/2 34/1/2 36/1/2
f 36/1/2 34/1/2 37/1/2
f 37/4/2 38/4/2 39/4/2
f 39/4/2 38/4/2 40/4/2
f 41/1/2 42/1/2 43/1/2
f 43/1/2 42/1/2 44/1/2
f 45/4/2 46/4/2 48/4/2
f 48/4/2 46/4/2 49/4/2
f 47/1/2 48/1/2 51/1/2
f 51/1/2 48/1/2 52/1/2
f 49/1/2 50/1/2 53/1/2
f 53/1/2 50/1/2 54/1/2
f 52/4/2 53/4/2 55/4/2
f 55/4/2 53/4/2 56/4/2
f 57/1/2 58/1/2 59/1/2
f 59/1/2 58/1/2 60/1/2
f 63/1/3 62/1/3 61/1/3
f 64/1/3 62/1/3 63/1/3
f 67/1/3 66/1/3 65/1/3
f 68/1/3 66/1/3 67/1/3
f 72/1/3 70/1/3 69/1/3
f 73/1/3 70/1/3 72/1/3
f 75/4/3 72/4/3 71/4/3
f 76/4/3 72/4/3 75/4/3
f 77/4/3 74/4/3 73/4/3
f 78/4/3 74/4/3 77/4/3
f 79/1/3 77/1/3 76/1/3
f 80/1/3 77/1/3 79/1/3
f 84/1/3 82/1/3 81/1/3
f 85/1/3 82/1/3 84/1/3
f 87/4/3 84/4/3 83/4/3
f 88/4/3 84/4/3 87/4/3
f 89/4/3 86/4/3 85/4/3
f 90/4/3 86/4/3 89/4/3
f 91/1/3 89/1/3 88/1/3
f 92/1/3 89/1/3 91/1/3
f 95/1/3 94/1/3 93/1/3
f 96/1/3 94/1/3 95/1/3
f 97/1/3 95/1/3 93/1/3
f 98/3/3 96/3/3 95/3/3
f 98/1/3 95/1/3 97/1/3
f 99/3/3 96/3/3 98/3/3
f 100/3/3 96/3/3 99/3/3
f 101/3/3 96/3/3 100/3/3
f 102/3/3 96/3/3 101/3/3
f 103/1/3 94/1/3 96/1/3
f 103/3/3 96/3/3 102/3/3
f 104/1/3 94/1/3 103/1/3
f 105/1/3 97/1/3 93/1/3
f 105/3/3 98/3/3 97/3/3
f 105/3/3 99/3/3 98/3/3
f 106/3/3 99/3/3 105/3/3
f 107/1/3 100/1/3 99/1/3
f 107/3/3 99/3/3 106/3/3
f 108/3/3 101/3/3 100/3/3
f 108/1/3 100/1/3 107/1/3
f 109/3/3 101/3/3 108/3/3
f 110/1/3 102/1/3 101/1/3
f 110/3/3 101/3/3 109/3/3
f 111/3/3 104/3/3 103/3/3
f 111/1/3 102/1/3 110/1/3
f 111/3/3 103/3/3 102/3/3
f 112/3/3 104/3/3 111/3/3
f 113/1/3 94/1/3 104/1/3
f 113/3/3 104/3/3 112/3/3
f 114/1/3 106/1/3 105/1/3
f 114/1/3 105/1/3 93/1/3
f 115/3/3 108/3/3 107/3/3
f 115/1/3 106/1/3 114/1/3
f 115/3/3 107/3/3 106/3/3
f 116/3/3 108/3/3 115/3/3
f 117/1/3 109/1/3 108/1/3
f 117/3/3 108/3/3 116/3/3
f 118/3/3 112/3/3 111/3/3
f 118/1/3 109/1/3 117/1/3
f 118/3/3 110/3/3 109/3/3
f 118/3/3 111/3/3 110/3/3
f 119/3/3 112/3/3 118/3/3
f 120/3/3 112/3/3 119/3/3
f 121/1/3 113/1/3 112/1/3
f 121/3/3 112/3/3 120/3/3
f 122/1/3 94/1/3 113/1/3
f 122/1/3 113/1/3 121/1/3
f 123/3/3 116/3/3 115/3/3
f 123/3/3 115/3/3 114/3/3
f 123/1/3 114/1/3 93/1/3
f 124/3/3 116/3/3 123/3/3
f 125/1/3 117/1/3 116/1/3
f 125/3/3 116/3/3 124/3/3
f 126/3/3 119/3/3 118/3/3
f 126/1/3 117/1/3 125/1/3
f 126/3/3 118/3/3 117/3/3
f 127/1/3 120/1/3 119/1/3
f 127/3/3 119/3/3 126/3/3
f 128/3/3 122/3/3 121/3/3
f 128/1/3 120/1/3 127/1/3
f 128/3/3 121/3/3 120/3/3
f 129/3/3 122/3/3 128/3/3
f 130/1/3 94/1/3 122/1/3
f 130/3/3 122/3/3 129/3/3
f 131/3/3 129/3/3 128/3/3
f 131/1/3 124/1/3 123/1/3
f 131/3/3 127/3/3 126/3/3
f 131/3/3 128/3/3 127/3/3
f 131/3/3 126/3/3 125/3/3
f 131/3/3 125/3/3 124/3/3
f 132/1/3 130/1/3 129/1/3
f 132/3/3 129/3/3 131/3/3
f 133/1/3 131/1/3 123/1/3
f 133/1/3 123/1/3 93/1/3
f 133/1/3 132/1/3 131/1/3
f 134/1/3 94/1/3 130/1/3
f 134/1/3 132/1/3 133/1/3
f 134/1/3 130/1/3 132/1/3
f 135/1/4 136/1/4 138/1/4
f 138/1/4 136/1/4 139/1/4
f 137/4/4 138/4/4 141/4/4
f 141/4/4 138/4/4 142/4/4
f 139/4/4 140/4/4 143/4/4
f 143/4/4 140/4/4 144/4/4
f 145/4/4 146/4/4 149/4/4
f 149/4/4 146/4/4 150/4/4
f 147/4/4 148/4/4 151/4/4
f 151/4/4 148/4/4 152/4/4
f 150/1/4 151/1/4 153/1/4
f 153/1/4 151/1/4 154/1/4
f 155/1/4 156/1/4 157/1/4
f 157/1/4 156/1/4 158/1/4
f 163/4/5 160/4/5 159/4/5
f 164/4/5 160/4/5 163/4/5
f 165/4/5 162/4/5 161/4/5
f 166/4/5 162/4/5 165/4/5
f 172/1/5 168/1/5 167/1/5
f 173/1/5 168/1/5 172/1/5
f 176/1/5 170/1/5 169/1/5
f 177/1/5 170/1/5 176/1/5
f 179/1/5 174/1/5 173/1/5
f 180/1/5 176/1/5 175/1/5
f 181/1/5 172/1/5 171/1/5
f 182/1/5 172/1/5 181/1/5
f 183/1/5 180/1/5 179/1/5
f 183/1/5 179/1/5 173/1/5
f 184/1/5 176/1/5 180/1/5
f 184/1/5 180/1/5 183/1/5
f 185/1/5 178/1/5 177/1/5
f 186/1/5 178/1/5 185/1/5
f 187/1/5 184/1/5 183/1/5
f 187/1/5 185/1/5 184/1/5
f 187/1/5 183/1/5 182/1/5
f 188/1/5 185/1/5 187/1/5
f 189/1/6 190/1/6 194/1/6
f 194/1/6 190/1/6 195/1/6
f 191/1/6 192/1/6 198/1/6
f 198/1/6 192/1/6 199/1/6
f 195/1/6 196/1/6 201/1/6
f 197/1/6 198/1/6 202/1/6
f 193/1/6 194/1/6 203/1/6
f 203/1/6 194/1/6 204/1/6
f 201/1/6 202/1/6 205/1/6
f 195/1/6 201/1/6 205/1/6
f 202/1/6 198/1/6 206/1/6
f 205/1/6 202/1/6 206/1/6
f 199/1/6 200/1/6 207/1/6
f 207/1/6 200/1/6 208/1/6
f 205/1/6 206/1/6 209/1/6
f 206/1/6 207/1/6 209/1/6
f 204/1/6 205/1/6 209/1/6
f 209/1/6 207/1/6 210/1/6
f 211/4/6 212/4/6 215/4/6
f 215/4/6 212/4/6 216/4/6
f 213/4/6 214/4/6 217/4/6
f 217/4/6 214/4/6 218/4/6
