# MagicaVoxel @ ephtracy

# material
mtllib Return_Scroll_Model.mtl
usemtl palette

# normals
vn -1 0 0
vn 1 0 0
vn 0 0 1
vn 0 0 -1
vn 0 -1 0
vn 0 1 0

# texcoords
vt 0.00195313 0.5
vt 0.0332031 0.5
vt 0.330078 0.5
vt 0.373047 0.5

# verts
v -8 1 1
v -8 1 -1
v -8 15 1
v -8 15 -1
v -7 0 1
v -7 0 -1
v -7 1 2
v -7 1 1
v -7 1 -1
v -7 1 -2
v -7 15 2
v -7 15 1
v -7 15 -1
v -7 15 -2
v -7 16 1
v -7 16 -1
v 4 1 1
v 4 1 -0
v 4 15 1
v 4 15 -0
v 5 0 1
v 5 0 -1
v 5 1 2
v 5 1 1
v 5 1 -1
v 5 15 2
v 5 15 1
v 5 15 -1
v 5 16 1
v 5 16 -1
v -5 0 1
v -5 0 -1
v -5 1 2
v -5 1 1
v -5 1 -1
v -5 15 2
v -5 15 1
v -5 15 -1
v -5 16 1
v -5 16 -1
v -4 1 1
v -4 1 -0
v -4 15 1
v -4 15 -0
v 7 0 1
v 7 0 -1
v 7 1 2
v 7 1 1
v 7 1 -1
v 7 1 -2
v 7 15 2
v 7 15 1
v 7 15 -1
v 7 15 -2
v 7 16 1
v 7 16 -1
v 8 1 1
v 8 1 -1
v 8 15 1
v 8 15 -1
v -7 1 2
v -7 15 2
v -5 1 2
v -5 15 2
v 5 1 2
v 5 15 2
v 7 1 2
v 7 15 2
v -8 1 1
v -8 15 1
v -7 0 1
v -7 1 1
v -7 15 1
v -7 16 1
v -5 0 1
v -5 1 1
v -5 15 1
v -5 16 1
v -4 1 1
v -4 15 1
v 4 1 1
v 4 15 1
v 5 0 1
v 5 1 1
v 5 15 1
v 5 16 1
v 7 0 1
v 7 1 1
v 7 15 1
v 7 16 1
v 8 1 1
v 8 15 1
v -4 1 -0
v -4 15 -0
v -3 4 -0
v -3 7 -0
v -3 8 -0
v -3 11 -0
v -2 5 -0
v -2 7 -0
v -2 8 -0
v -2 9 -0
v -1 5 -0
v -1 7 -0
v -1 9 -0
v -1 10 -0
v 1 5 -0
v 1 7 -0
v 1 9 -0
v 1 10 -0
v 2 5 -0
v 2 7 -0
v 2 8 -0
v 2 9 -0
v 3 4 -0
v 3 7 -0
v 3 8 -0
v 3 11 -0
v 4 1 -0
v 4 15 -0
v -8 1 -1
v -8 15 -1
v -7 0 -1
v -7 1 -1
v -7 15 -1
v -7 16 -1
v -5 0 -1
v -5 1 -1
v -5 15 -1
v -5 16 -1
v 5 0 -1
v 5 1 -1
v 5 15 -1
v 5 16 -1
v 7 0 -1
v 7 1 -1
v 7 15 -1
v 7 16 -1
v 8 1 -1
v 8 15 -1
v -7 1 -2
v -7 15 -2
v 7 1 -2
v 7 15 -2
v -7 0 1
v -5 0 1
v 5 0 1
v 7 0 1
v -7 0 -1
v -5 0 -1
v 5 0 -1
v 7 0 -1
v -7 1 2
v -5 1 2
v 5 1 2
v 7 1 2
v -8 1 1
v -7 1 1
v -5 1 1
v -4 1 1
v 4 1 1
v 5 1 1
v 7 1 1
v 8 1 1
v -4 1 -0
v 4 1 -0
v -8 1 -1
v -7 1 -1
v -5 1 -1
v 5 1 -1
v 7 1 -1
v 8 1 -1
v -7 1 -2
v 7 1 -2
v -7 15 2
v -5 15 2
v 5 15 2
v 7 15 2
v -8 15 1
v -7 15 1
v -5 15 1
v -4 15 1
v 4 15 1
v 5 15 1
v 7 15 1
v 8 15 1
v -4 15 -0
v 4 15 -0
v -8 15 -1
v -7 15 -1
v -5 15 -1
v 5 15 -1
v 7 15 -1
v 8 15 -1
v -7 15 -2
v 7 15 -2
v -7 16 1
v -5 16 1
v 5 16 1
v 7 16 1
v -7 16 -1
v -5 16 -1
v 5 16 -1
v 7 16 -1

# faces
f 3/1/1 2/1/1 1/1/1
f 4/1/1 2/1/1 3/1/1
f 8/4/1 6/4/1 5/4/1
f 9/4/1 6/4/1 8/4/1
f 11/1/1 8/1/1 7/1/1
f 12/1/1 8/1/1 11/1/1
f 13/1/1 10/1/1 9/1/1
f 14/1/1 10/1/1 13/1/1
f 15/4/1 13/4/1 12/4/1
f 16/4/1 13/4/1 15/4/1
f 19/1/1 18/1/1 17/1/1
f 20/1/1 18/1/1 19/1/1
f 24/4/1 22/4/1 21/4/1
f 25/4/1 22/4/1 24/4/1
f 26/1/1 24/1/1 23/1/1
f 27/1/1 24/1/1 26/1/1
f 29/4/1 28/4/1 27/4/1
f 30/4/1 28/4/1 29/4/1
f 31/4/2 32/4/2 34/4/2
f 34/4/2 32/4/2 35/4/2
f 33/1/2 34/1/2 36/1/2
f 36/1/2 34/1/2 37/1/2
f 37/4/2 38/4/2 39/4/2
f 39/4/2 38/4/2 40/4/2
f 41/1/2 42/1/2 43/1/2
f 43/1/2 42/1/2 44/1/2
f 45/4/2 46/4/2 48/4/2
f 48/4/2 46/4/2 49/4/2
f 47/1/2 48/1/2 51/1/2
f 51/1/2 48/1/2 52/1/2
f 49/1/2 50/1/2 53/1/2
f 53/1/2 50/1/2 54/1/2
f 52/4/2 53/4/2 55/4/2
f 55/4/2 53/4/2 56/4/2
f 57/1/2 58/1/2 59/1/2
f 59/1/2 58/1/2 60/1/2
f 63/1/3 62/1/3 61/1/3
f 64/1/3 62/1/3 63/1/3
f 67/1/3 66/1/3 65/1/3
f 68/1/3 66/1/3 67/1/3
f 72/1/3 70/1/3 69/1/3
f 73/1/3 70/1/3 72/1/3
f 75/4/3 72/4/3 71/4/3
f 76/4/3 72/4/3 75/4/3
f 77/4/3 74/4/3 73/4/3
f 78/4/3 74/4/3 77/4/3
f 79/1/3 77/1/3 76/1/3
f 80/1/3 77/1/3 79/1/3
f 84/1/3 82/1/3 81/1/3
f 85/1/3 82/1/3 84/1/3
f 87/4/3 84/4/3 83/4/3
f 88/4/3 84/4/3 87/4/3
f 89/4/3 86/4/3 85/4/3
f 90/4/3 86/4/3 89/4/3
f 91/1/3 89/1/3 88/1/3
f 92/1/3 89/1/3 91/1/3
f 95/1/3 94/1/3 93/1/3
f 96/1/3 94/1/3 95/1/3
f 97/1/3 94/1/3 96/1/3
f 98/1/3 94/1/3 97/1/3
f 99/3/3 96/3/3 95/3/3
f 100/1/3 97/1/3 96/1/3
f 100/3/3 96/3/3 99/3/3
f 101/3/3 98/3/3 97/3/3
f 101/1/3 97/1/3 100/1/3
f 102/3/3 98/3/3 101/3/3
f 103/3/3 99/3/3 95/3/3
f 103/1/3 100/1/3 99/1/3
f 103/1/3 102/1/3 101/1/3
f 103/1/3 101/1/3 100/1/3
f 104/1/3 102/1/3 103/1/3
f 105/3/3 98/3/3 102/3/3
f 105/1/3 102/1/3 104/1/3
f 106/3/3 98/3/3 105/3/3
f 107/3/3 104/3/3 103/3/3
f 107/3/3 103/3/3 95/3/3
f 108/1/3 106/1/3 105/1/3
f 108/3/3 104/3/3 107/3/3
f 108/1/3 105/1/3 104/1/3
f 109/1/3 106/1/3 108/1/3
f 110/3/3 98/3/3 106/3/3
f 110/1/3 106/1/3 109/1/3
f 111/1/3 109/1/3 108/1/3
f 111/3/3 107/3/3 95/3/3
f 111/1/3 108/1/3 107/1/3
f 112/1/3 109/1/3 111/1/3
f 113/1/3 109/1/3 112/1/3
f 114/3/3 110/3/3 109/3/3
f 114/1/3 109/1/3 113/1/3
f 115/1/3 95/1/3 93/1/3
f 115/3/3 111/3/3 95/3/3
f 115/3/3 112/3/3 111/3/3
f 116/1/3 113/1/3 112/1/3
f 116/3/3 112/3/3 115/3/3
f 117/3/3 114/3/3 113/3/3
f 117/1/3 113/1/3 116/1/3
f 118/3/3 110/3/3 114/3/3
f 118/3/3 114/3/3 117/3/3
f 118/1/3 94/1/3 98/1/3
f 118/3/3 98/3/3 110/3/3
f 119/1/3 117/1/3 116/1/3
f 119/1/3 116/1/3 115/1/3
f 119/1/3 118/1/3 117/1/3
f 119/1/3 115/1/3 93/1/3
f 120/1/3 94/1/3 118/1/3
f 120/1/3 118/1/3 119/1/3
f 121/1/4 122/1/4 124/1/4
f 124/1/4 122/1/4 125/1/4
f 123/4/4 124/4/4 127/4/4
f 127/4/4 124/4/4 128/4/4
f 125/4/4 126/4/4 129/4/4
f 129/4/4 126/4/4 130/4/4
f 131/4/4 132/4/4 135/4/4
f 135/4/4 132/4/4 136/4/4
f 133/4/4 134/4/4 137/4/4
f 137/4/4 134/4/4 138/4/4
f 136/1/4 137/1/4 139/1/4
f 139/1/4 137/1/4 140/1/4
f 141/1/4 142/1/4 143/1/4
f 143/1/4 142/1/4 144/1/4
f 149/4/5 146/4/5 145/4/5
f 150/4/5 146/4/5 149/4/5
f 151/4/5 148/4/5 147/4/5
f 152/4/5 148/4/5 151/4/5
f 158/1/5 154/1/5 153/1/5
f 159/1/5 154/1/5 158/1/5
f 162/1/5 156/1/5 155/1/5
f 163/1/5 156/1/5 162/1/5
f 165/1/5 160/1/5 159/1/5
f 166/1/5 162/1/5 161/1/5
f 167/1/5 158/1/5 157/1/5
f 168/1/5 158/1/5 167/1/5
f 169/1/5 166/1/5 165/1/5
f 169/1/5 165/1/5 159/1/5
f 170/1/5 162/1/5 166/1/5
f 170/1/5 166/1/5 169/1/5
f 171/1/5 164/1/5 163/1/5
f 172/1/5 164/1/5 171/1/5
f 173/1/5 170/1/5 169/1/5
f 173/1/5 171/1/5 170/1/5
f 173/1/5 169/1/5 168/1/5
f 174/1/5 171/1/5 173/1/5
f 175/1/6 176/1/6 180/1/6
f 180/1/6 176/1/6 181/1/6
f 177/1/6 178/1/6 184/1/6
f 184/1/6 178/1/6 185/1/6
f 181/1/6 182/1/6 187/1/6
f 183/1/6 184/1/6 188/1/6
f 179/1/6 180/1/6 189/1/6
f 189/1/6 180/1/6 190/1/6
f 187/1/6 188/1/6 191/1/6
f 181/1/6 187/1/6 191/1/6
f 188/1/6 184/1/6 192/1/6
f 191/1/6 188/1/6 192/1/6
f 185/1/6 186/1/6 193/1/6
f 193/1/6 186/1/6 194/1/6
f 191/1/6 192/1/6 195/1/6
f 192/1/6 193/1/6 195/1/6
f 190/1/6 191/1/6 195/1/6
f 195/1/6 193/1/6 196/1/6
f 197/4/6 198/4/6 201/4/6
f 201/4/6 198/4/6 202/4/6
f 199/4/6 200/4/6 203/4/6
f 203/4/6 200/4/6 204/4/6
