# MagicaVoxel @ ephtracy

# material
mtllib UpgradeScrollModel.mtl
usemtl palette

# normals
vn -1 0 0
vn 1 0 0
vn 0 0 1
vn 0 0 -1
vn 0 -1 0
vn 0 1 0

# texcoords
vt 0.00195313 0.5
vt 0.0332031 0.5
vt 0.373047 0.5
vt 0.908203 0.5

# verts
v -8 1 1
v -8 1 -1
v -8 15 1
v -8 15 -1
v -7 0 1
v -7 0 -1
v -7 1 2
v -7 1 1
v -7 1 -1
v -7 1 -2
v -7 15 2
v -7 15 1
v -7 15 -1
v -7 15 -2
v -7 16 1
v -7 16 -1
v 4 1 1
v 4 1 -0
v 4 15 1
v 4 15 -0
v 5 0 1
v 5 0 -1
v 5 1 2
v 5 1 1
v 5 1 -1
v 5 15 2
v 5 15 1
v 5 15 -1
v 5 16 1
v 5 16 -1
v -5 0 1
v -5 0 -1
v -5 1 2
v -5 1 1
v -5 1 -1
v -5 15 2
v -5 15 1
v -5 15 -1
v -5 16 1
v -5 16 -1
v -4 1 1
v -4 1 -0
v -4 15 1
v -4 15 -0
v 7 0 1
v 7 0 -1
v 7 1 2
v 7 1 1
v 7 1 -1
v 7 1 -2
v 7 15 2
v 7 15 1
v 7 15 -1
v 7 15 -2
v 7 16 1
v 7 16 -1
v 8 1 1
v 8 1 -1
v 8 15 1
v 8 15 -1
v -7 1 2
v -7 15 2
v -5 1 2
v -5 15 2
v 5 1 2
v 5 15 2
v 7 1 2
v 7 15 2
v -8 1 1
v -8 15 1
v -7 0 1
v -7 1 1
v -7 15 1
v -7 16 1
v -5 0 1
v -5 1 1
v -5 15 1
v -5 16 1
v -4 1 1
v -4 15 1
v 4 1 1
v 4 15 1
v 5 0 1
v 5 1 1
v 5 15 1
v 5 16 1
v 7 0 1
v 7 1 1
v 7 15 1
v 7 16 1
v 8 1 1
v 8 15 1
v -4 1 -0
v -4 15 -0
v -3 5 -0
v -3 11 -0
v -2 4 -0
v -2 5 -0
v -2 7 -0
v -2 10 -0
v -2 11 -0
v -2 12 -0
v -1 4 -0
v -1 5 -0
v -1 6 -0
v -1 7 -0
v -1 10 -0
v -1 11 -0
v -1 12 -0
v 1 4 -0
v 1 5 -0
v 1 6 -0
v 1 7 -0
v 1 10 -0
v 1 11 -0
v 1 12 -0
v 2 4 -0
v 2 5 -0
v 2 7 -0
v 2 10 -0
v 2 11 -0
v 2 12 -0
v 3 5 -0
v 3 11 -0
v 4 1 -0
v 4 15 -0
v -8 1 -1
v -8 15 -1
v -7 0 -1
v -7 1 -1
v -7 15 -1
v -7 16 -1
v -5 0 -1
v -5 1 -1
v -5 15 -1
v -5 16 -1
v 5 0 -1
v 5 1 -1
v 5 15 -1
v 5 16 -1
v 7 0 -1
v 7 1 -1
v 7 15 -1
v 7 16 -1
v 8 1 -1
v 8 15 -1
v -7 1 -2
v -7 15 -2
v 7 1 -2
v 7 15 -2
v -7 0 1
v -5 0 1
v 5 0 1
v 7 0 1
v -7 0 -1
v -5 0 -1
v 5 0 -1
v 7 0 -1
v -7 1 2
v -5 1 2
v 5 1 2
v 7 1 2
v -8 1 1
v -7 1 1
v -5 1 1
v -4 1 1
v 4 1 1
v 5 1 1
v 7 1 1
v 8 1 1
v -4 1 -0
v 4 1 -0
v -8 1 -1
v -7 1 -1
v -5 1 -1
v 5 1 -1
v 7 1 -1
v 8 1 -1
v -7 1 -2
v 7 1 -2
v -7 15 2
v -5 15 2
v 5 15 2
v 7 15 2
v -8 15 1
v -7 15 1
v -5 15 1
v -4 15 1
v 4 15 1
v 5 15 1
v 7 15 1
v 8 15 1
v -4 15 -0
v 4 15 -0
v -8 15 -1
v -7 15 -1
v -5 15 -1
v 5 15 -1
v 7 15 -1
v 8 15 -1
v -7 15 -2
v 7 15 -2
v -7 16 1
v -5 16 1
v 5 16 1
v 7 16 1
v -7 16 -1
v -5 16 -1
v 5 16 -1
v 7 16 -1

# faces
f 3/1/1 2/1/1 1/1/1
f 4/1/1 2/1/1 3/1/1
f 8/3/1 6/3/1 5/3/1
f 9/3/1 6/3/1 8/3/1
f 11/1/1 8/1/1 7/1/1
f 12/1/1 8/1/1 11/1/1
f 13/1/1 10/1/1 9/1/1
f 14/1/1 10/1/1 13/1/1
f 15/3/1 13/3/1 12/3/1
f 16/3/1 13/3/1 15/3/1
f 19/1/1 18/1/1 17/1/1
f 20/1/1 18/1/1 19/1/1
f 24/3/1 22/3/1 21/3/1
f 25/3/1 22/3/1 24/3/1
f 26/1/1 24/1/1 23/1/1
f 27/1/1 24/1/1 26/1/1
f 29/3/1 28/3/1 27/3/1
f 30/3/1 28/3/1 29/3/1
f 31/3/2 32/3/2 34/3/2
f 34/3/2 32/3/2 35/3/2
f 33/1/2 34/1/2 36/1/2
f 36/1/2 34/1/2 37/1/2
f 37/3/2 38/3/2 39/3/2
f 39/3/2 38/3/2 40/3/2
f 41/1/2 42/1/2 43/1/2
f 43/1/2 42/1/2 44/1/2
f 45/3/2 46/3/2 48/3/2
f 48/3/2 46/3/2 49/3/2
f 47/1/2 48/1/2 51/1/2
f 51/1/2 48/1/2 52/1/2
f 49/1/2 50/1/2 53/1/2
f 53/1/2 50/1/2 54/1/2
f 52/3/2 53/3/2 55/3/2
f 55/3/2 53/3/2 56/3/2
f 57/1/2 58/1/2 59/1/2
f 59/1/2 58/1/2 60/1/2
f 63/1/3 62/1/3 61/1/3
f 64/1/3 62/1/3 63/1/3
f 67/1/3 66/1/3 65/1/3
f 68/1/3 66/1/3 67/1/3
f 72/1/3 70/1/3 69/1/3
f 73/1/3 70/1/3 72/1/3
f 75/3/3 72/3/3 71/3/3
f 76/3/3 72/3/3 75/3/3
f 77/3/3 74/3/3 73/3/3
f 78/3/3 74/3/3 77/3/3
f 79/1/3 77/1/3 76/1/3
f 80/1/3 77/1/3 79/1/3
f 84/1/3 82/1/3 81/1/3
f 85/1/3 82/1/3 84/1/3
f 87/3/3 84/3/3 83/3/3
f 88/3/3 84/3/3 87/3/3
f 89/3/3 86/3/3 85/3/3
f 90/3/3 86/3/3 89/3/3
f 91/1/3 89/1/3 88/1/3
f 92/1/3 89/1/3 91/1/3
f 95/1/3 94/1/3 93/1/3
f 96/1/3 94/1/3 95/1/3
f 97/1/3 95/1/3 93/1/3
f 98/4/3 96/4/3 95/4/3
f 98/1/3 95/1/3 97/1/3
f 99/4/3 96/4/3 98/4/3
f 100/4/3 96/4/3 99/4/3
f 101/1/3 94/1/3 96/1/3
f 101/4/3 96/4/3 100/4/3
f 102/1/3 94/1/3 101/1/3
f 103/1/3 97/1/3 93/1/3
f 103/4/3 98/4/3 97/4/3
f 103/4/3 99/4/3 98/4/3
f 104/4/3 99/4/3 103/4/3
f 105/4/3 99/4/3 104/4/3
f 106/1/3 100/1/3 99/1/3
f 106/4/3 99/4/3 105/4/3
f 107/4/3 102/4/3 101/4/3
f 107/1/3 100/1/3 106/1/3
f 107/4/3 101/4/3 100/4/3
f 108/4/3 102/4/3 107/4/3
f 109/1/3 94/1/3 102/1/3
f 109/4/3 102/4/3 108/4/3
f 110/1/3 104/1/3 103/1/3
f 110/1/3 103/1/3 93/1/3
f 111/4/3 105/4/3 104/4/3
f 111/1/3 104/1/3 110/1/3
f 112/1/3 106/1/3 105/1/3
f 112/4/3 105/4/3 111/4/3
f 113/4/3 108/4/3 107/4/3
f 113/1/3 106/1/3 112/1/3
f 113/4/3 107/4/3 106/4/3
f 114/4/3 108/4/3 113/4/3
f 115/1/3 109/1/3 108/1/3
f 115/4/3 108/4/3 114/4/3
f 116/1/3 94/1/3 109/1/3
f 116/1/3 109/1/3 115/1/3
f 117/1/3 110/1/3 93/1/3
f 117/4/3 112/4/3 111/4/3
f 117/4/3 111/4/3 110/4/3
f 117/4/3 113/4/3 112/4/3
f 118/4/3 113/4/3 117/4/3
f 119/1/3 114/1/3 113/1/3
f 119/4/3 113/4/3 118/4/3
f 120/4/3 116/4/3 115/4/3
f 120/1/3 114/1/3 119/1/3
f 120/4/3 115/4/3 114/4/3
f 121/4/3 116/4/3 120/4/3
f 122/1/3 94/1/3 116/1/3
f 122/4/3 116/4/3 121/4/3
f 123/4/3 121/4/3 120/4/3
f 123/4/3 119/4/3 118/4/3
f 123/1/3 118/1/3 117/1/3
f 123/4/3 120/4/3 119/4/3
f 124/1/3 122/1/3 121/1/3
f 124/4/3 121/4/3 123/4/3
f 125/1/3 123/1/3 117/1/3
f 125/1/3 117/1/3 93/1/3
f 125/1/3 124/1/3 123/1/3
f 126/1/3 94/1/3 122/1/3
f 126/1/3 124/1/3 125/1/3
f 126/1/3 122/1/3 124/1/3
f 127/1/4 128/1/4 130/1/4
f 130/1/4 128/1/4 131/1/4
f 129/3/4 130/3/4 133/3/4
f 133/3/4 130/3/4 134/3/4
f 131/3/4 132/3/4 135/3/4
f 135/3/4 132/3/4 136/3/4
f 137/3/4 138/3/4 141/3/4
f 141/3/4 138/3/4 142/3/4
f 139/3/4 140/3/4 143/3/4
f 143/3/4 140/3/4 144/3/4
f 142/1/4 143/1/4 145/1/4
f 145/1/4 143/1/4 146/1/4
f 147/1/4 148/1/4 149/1/4
f 149/1/4 148/1/4 150/1/4
f 155/3/5 152/3/5 151/3/5
f 156/3/5 152/3/5 155/3/5
f 157/3/5 154/3/5 153/3/5
f 158/3/5 154/3/5 157/3/5
f 164/1/5 160/1/5 159/1/5
f 165/1/5 160/1/5 164/1/5
f 168/1/5 162/1/5 161/1/5
f 169/1/5 162/1/5 168/1/5
f 171/1/5 166/1/5 165/1/5
f 172/1/5 168/1/5 167/1/5
f 173/1/5 164/1/5 163/1/5
f 174/1/5 164/1/5 173/1/5
f 175/1/5 172/1/5 171/1/5
f 175/1/5 171/1/5 165/1/5
f 176/1/5 168/1/5 172/1/5
f 176/1/5 172/1/5 175/1/5
f 177/1/5 170/1/5 169/1/5
f 178/1/5 170/1/5 177/1/5
f 179/1/5 176/1/5 175/1/5
f 179/1/5 177/1/5 176/1/5
f 179/1/5 175/1/5 174/1/5
f 180/1/5 177/1/5 179/1/5
f 181/1/6 182/1/6 186/1/6
f 186/1/6 182/1/6 187/1/6
f 183/1/6 184/1/6 190/1/6
f 190/1/6 184/1/6 191/1/6
f 187/1/6 188/1/6 193/1/6
f 189/1/6 190/1/6 194/1/6
f 185/1/6 186/1/6 195/1/6
f 195/1/6 186/1/6 196/1/6
f 193/1/6 194/1/6 197/1/6
f 187/1/6 193/1/6 197/1/6
f 194/1/6 190/1/6 198/1/6
f 197/1/6 194/1/6 198/1/6
f 191/1/6 192/1/6 199/1/6
f 199/1/6 192/1/6 200/1/6
f 197/1/6 198/1/6 201/1/6
f 198/1/6 199/1/6 201/1/6
f 196/1/6 197/1/6 201/1/6
f 201/1/6 199/1/6 202/1/6
f 203/3/6 204/3/6 207/3/6
f 207/3/6 204/3/6 208/3/6
f 205/3/6 206/3/6 209/3/6
f 209/3/6 206/3/6 210/3/6
