# MagicaVoxel @ ephtracy

# material
mtllib floor_forest_Reg.mtl
usemtl palette

# normals
vn -1 0 0
vn 1 0 0
vn 0 0 1
vn 0 0 -1
vn 0 -1 0
vn 0 1 0

# texcoords
vt 0.494141 0.5
vt 0.509766 0.5
vt 0.513672 0.5
vt 0.537109 0.5
vt 0.654297 0.5
vt 0.677734 0.5

# verts
v -4 0 4
v -4 0 3
v -4 0 -0
v -4 0 -1
v -4 0 -3
v -4 0 -4
v -4 1 3
v -4 1 2
v -4 1 1
v -4 1 -0
v -4 1 -1
v -4 1 -2
v -4 1 -3
v -4 1 -4
v -4 2 4
v -4 2 3
v -4 2 -2
v -4 2 -3
v -4 3 4
v -4 3 3
v -4 3 2
v -4 3 1
v -4 3 -0
v -4 3 -2
v -4 3 -3
v -4 3 -4
v -4 4 -1
v -4 4 -2
v -4 5 -1
v -4 5 -2
v -4 6 3
v -4 6 2
v -4 6 1
v -4 6 -0
v -4 6 -2
v -4 6 -3
v -4 7 4
v -4 7 2
v -4 7 1
v -4 7 -0
v -4 7 -1
v -4 7 -2
v -4 7 -3
v -4 7 -4
v -4 8 4
v -4 8 2
v -4 8 1
v -4 8 -0
v -4 8 -2
v -4 8 -3
v -4 8 -4
v -3 0 3
v -3 0 -0
v -3 0 -1
v -3 0 -3
v -3 1 3
v -3 1 2
v -3 1 1
v -3 1 -0
v -3 1 -1
v -3 1 -2
v -3 1 -3
v -3 1 -4
v -3 2 -2
v -3 2 -3
v -3 2 -4
v -3 3 2
v -3 3 1
v -2 2 -3
v -2 2 -4
v -2 6 -3
v -2 6 -4
v -1 0 -3
v -1 0 -4
v -1 2 -3
v -1 2 -4
v 1 0 4
v 1 0 3
v 1 0 -3
v 1 0 -4
v 1 4 -3
v 1 4 -4
v 1 5 4
v 1 5 3
v 3 0 4
v 3 0 3
v 3 3 4
v 3 3 3
v -3 0 -3
v -3 0 -4
v -3 1 -3
v -3 1 -4
v -3 3 -3
v -3 3 -4
v -3 6 -3
v -3 6 -4
v -2 1 -3
v -2 1 -4
v -2 2 -3
v -2 2 -4
v -1 0 4
v -1 0 3
v -1 1 4
v -1 1 3
v -1 2 4
v -1 2 3
v -1 2 -3
v -1 2 -4
v -1 3 -3
v -1 3 -4
v -1 4 4
v -1 4 3
v 0 0 -3
v 0 0 -4
v 0 1 4
v 0 1 3
v 0 2 4
v 0 2 3
v 0 2 -3
v 0 2 -4
v 0 3 -3
v 0 3 -4
v 0 4 4
v 0 4 3
v 0 4 -3
v 0 4 -4
v 0 5 4
v 0 5 3
v 2 0 4
v 2 0 3
v 2 0 2
v 2 3 4
v 2 3 3
v 2 3 2
v 3 0 2
v 3 0 1
v 3 0 -0
v 3 0 -1
v 3 0 -3
v 3 0 -4
v 3 1 2
v 3 1 1
v 3 1 -2
v 3 1 -3
v 3 2 -3
v 3 2 -4
v 3 3 -2
v 3 3 -3
v 3 6 -0
v 3 6 -1
v 4 0 4
v 4 0 3
v 4 0 1
v 4 0 -0
v 4 0 -1
v 4 0 -2
v 4 0 -3
v 4 1 2
v 4 1 1
v 4 1 -2
v 4 1 -3
v 4 2 -3
v 4 2 -4
v 4 3 4
v 4 3 3
v 4 3 2
v 4 3 1
v 4 3 -2
v 4 3 -3
v 4 3 -4
v 4 5 2
v 4 5 1
v 4 5 -2
v 4 5 -3
v 4 5 -4
v 4 6 4
v 4 6 3
v 4 6 -0
v 4 6 -1
v 4 6 -2
v 4 6 -3
v 4 7 4
v 4 7 2
v 4 7 1
v 4 7 -0
v 4 7 -1
v 4 7 -2
v 4 7 -4
v 4 8 4
v 4 8 2
v 4 8 -4
v -4 0 4
v -4 2 4
v -4 3 4
v -4 7 4
v -4 8 4
v -3 0 4
v -3 2 4
v -3 3 4
v -3 7 4
v -3 8 4
v -2 0 4
v -2 1 4
v -2 2 4
v -2 7 4
v -2 8 4
v -1 0 4
v -1 1 4
v -1 2 4
v -1 4 4
v -1 5 4
v -1 6 4
v 0 1 4
v 0 2 4
v 0 4 4
v 0 5 4
v 0 6 4
v 0 7 4
v 0 8 4
v 1 0 4
v 1 5 4
v 1 7 4
v 2 0 4
v 2 3 4
v 2 7 4
v 3 0 4
v 3 3 4
v 3 6 4
v 3 7 4
v 3 8 4
v 4 0 4
v 4 3 4
v 4 6 4
v 4 7 4
v 4 8 4
v -1 0 3
v -1 1 3
v -1 2 3
v -1 4 3
v 0 1 3
v 0 2 3
v 0 4 3
v 0 5 3
v 1 0 3
v 1 5 3
v 2 0 2
v 2 3 2
v 3 0 2
v 3 1 2
v 3 3 2
v 4 1 2
v 4 3 2
v -4 1 1
v -4 3 1
v -3 1 1
v -3 3 1
v 3 0 1
v 3 1 1
v 4 0 1
v 4 1 1
v -4 0 -0
v -4 1 -0
v -3 0 -0
v -3 1 -0
v 3 0 -1
v 3 6 -1
v 4 0 -1
v 4 6 -1
v -4 0 -3
v -4 1 -3
v -3 0 -3
v -3 1 -3
v 3 2 -3
v 3 3 -3
v 4 2 -3
v 4 3 -3
v -4 0 3
v -4 1 3
v -3 0 3
v -3 1 3
v 3 0 3
v 3 3 3
v 4 0 3
v 4 3 3
v -4 1 2
v -4 3 2
v -3 1 2
v -3 3 2
v 3 0 -0
v 3 6 -0
v 4 0 -0
v 4 6 -0
v -4 0 -1
v -4 1 -1
v -3 0 -1
v -3 1 -1
v -4 1 -2
v -4 2 -2
v -3 1 -2
v -3 2 -2
v 3 1 -2
v 3 3 -2
v 4 1 -2
v 4 3 -2
v -4 2 -3
v -4 3 -3
v -3 0 -3
v -3 1 -3
v -3 2 -3
v -3 3 -3
v -3 6 -3
v -2 1 -3
v -2 2 -3
v -2 6 -3
v -1 0 -3
v -1 2 -3
v -1 3 -3
v 0 0 -3
v 0 2 -3
v 0 3 -3
v 0 4 -3
v 1 0 -3
v 1 4 -3
v 3 0 -3
v 3 1 -3
v 4 0 -3
v 4 1 -3
v -4 0 -4
v -4 1 -4
v -4 3 -4
v -4 7 -4
v -4 8 -4
v -3 0 -4
v -3 1 -4
v -3 2 -4
v -3 3 -4
v -3 6 -4
v -3 7 -4
v -3 8 -4
v -2 1 -4
v -2 2 -4
v -2 6 -4
v -2 7 -4
v -2 8 -4
v -1 0 -4
v -1 2 -4
v -1 3 -4
v -1 4 -4
v -1 6 -4
v -1 7 -4
v -1 8 -4
v 0 0 -4
v 0 2 -4
v 0 3 -4
v 0 4 -4
v 0 6 -4
v 0 7 -4
v 0 8 -4
v 1 0 -4
v 1 4 -4
v 1 7 -4
v 1 8 -4
v 3 0 -4
v 3 2 -4
v 3 3 -4
v 3 5 -4
v 3 7 -4
v 3 8 -4
v 4 2 -4
v 4 3 -4
v 4 5 -4
v 4 7 -4
v 4 8 -4
v -4 0 4
v -3 0 4
v -2 0 4
v -1 0 4
v 1 0 4
v 2 0 4
v 3 0 4
v 4 0 4
v -4 0 3
v -3 0 3
v -2 0 3
v -1 0 3
v 1 0 3
v 2 0 3
v 3 0 3
v 4 0 3
v 2 0 2
v 3 0 2
v 3 0 1
v 4 0 1
v -4 0 -0
v -3 0 -0
v 3 0 -0
v 4 0 -0
v -4 0 -1
v -3 0 -1
v 3 0 -1
v 4 0 -1
v 3 0 -2
v 4 0 -2
v -4 0 -3
v -3 0 -3
v -1 0 -3
v 0 0 -3
v 1 0 -3
v 3 0 -3
v 4 0 -3
v -4 0 -4
v -3 0 -4
v -1 0 -4
v 0 0 -4
v 1 0 -4
v 3 0 -4
v -1 1 4
v 0 1 4
v -4 1 3
v -3 1 3
v -1 1 3
v 0 1 3
v -4 1 2
v -3 1 2
v 3 1 2
v 4 1 2
v -4 1 1
v -3 1 1
v 3 1 1
v 4 1 1
v -4 1 -0
v -3 1 -0
v -4 1 -1
v -3 1 -1
v -4 1 -2
v -3 1 -2
v -3 1 -3
v -2 1 -3
v -3 1 -4
v -2 1 -4
v -4 2 -2
v -3 2 -2
v -4 2 -3
v -3 2 -3
v -2 2 -3
v -1 2 -3
v 3 2 -3
v 4 2 -3
v -2 2 -4
v -1 2 -4
v 3 2 -4
v 4 2 -4
v 2 3 4
v 3 3 4
v 2 3 3
v 3 3 3
v 4 3 3
v -4 3 2
v -3 3 2
v 2 3 2
v 3 3 2
v 4 3 2
v -4 3 1
v -3 3 1
v 3 3 -2
v 4 3 -2
v -4 3 -3
v -3 3 -3
v -1 3 -3
v 0 3 -3
v 3 3 -3
v 4 3 -3
v -4 3 -4
v -3 3 -4
v -1 3 -4
v 0 3 -4
v -1 4 4
v 0 4 4
v -1 4 3
v 0 4 3
v 0 4 -3
v 1 4 -3
v 0 4 -4
v 1 4 -4
v 0 5 4
v 1 5 4
v 0 5 3
v 1 5 3
v 3 6 -0
v 4 6 -0
v 3 6 -1
v 4 6 -1
v -3 6 -3
v -2 6 -3
v -3 6 -4
v -2 6 -4
v 3 1 -2
v 4 1 -2
v -4 1 -3
v -3 1 -3
v 3 1 -3
v 4 1 -3
v -4 1 -4
v -3 1 -4
v -1 2 4
v 0 2 4
v -1 2 3
v 0 2 3
v -3 2 -3
v -2 2 -3
v -1 2 -3
v 0 2 -3
v -3 2 -4
v -2 2 -4
v -1 2 -4
v 0 2 -4
v -4 8 4
v -3 8 4
v -2 8 4
v 0 8 4
v 3 8 4
v 4 8 4
v -1 8 3
v 0 8 3
v 3 8 3
v -4 8 2
v -3 8 2
v -2 8 2
v -1 8 2
v 0 8 2
v 2 8 2
v 3 8 2
v 4 8 2
v -4 8 1
v -3 8 1
v -2 8 1
v 2 8 1
v 3 8 1
v -4 8 -0
v -3 8 -0
v -2 8 -0
v -1 8 -0
v 0 8 -0
v 1 8 -0
v 2 8 -0
v 3 8 -0
v -3 8 -1
v -2 8 -1
v 0 8 -1
v 1 8 -1
v 2 8 -1
v -4 8 -2
v -3 8 -2
v -2 8 -2
v -1 8 -2
v 0 8 -2
v 1 8 -2
v 3 8 -2
v -4 8 -3
v -3 8 -3
v -2 8 -3
v -1 8 -3
v 0 8 -3
v 1 8 -3
v 3 8 -3
v -4 8 -4
v -3 8 -4
v -2 8 -4
v -1 8 -4
v 0 8 -4
v 1 8 -4
v 3 8 -4
v 4 8 -4

# faces
f 7/6/1 2/6/1 1/6/1
f 10/1/1 4/1/1 3/1/1
f 11/1/1 4/1/1 10/1/1
f 13/6/1 6/6/1 5/6/1
f 14/6/1 6/6/1 13/6/1
f 15/6/1 8/6/1 7/6/1
f 15/6/1 7/6/1 1/6/1
f 16/6/1 8/6/1 15/6/1
f 17/6/1 12/6/1 11/6/1
f 19/4/1 16/4/1 15/4/1
f 20/6/1 8/6/1 16/6/1
f 20/4/1 16/4/1 19/4/1
f 21/6/1 8/6/1 20/6/1
f 22/6/1 10/6/1 9/6/1
f 23/1/1 11/1/1 10/1/1
f 23/6/1 10/6/1 22/6/1
f 24/6/1 18/6/1 17/6/1
f 24/6/1 17/6/1 11/6/1
f 25/6/1 18/6/1 24/6/1
f 27/1/1 11/1/1 23/1/1
f 27/6/1 24/6/1 11/6/1
f 28/4/1 25/4/1 24/4/1
f 28/6/1 24/6/1 27/6/1
f 29/1/1 27/1/1 23/1/1
f 29/4/1 28/4/1 27/4/1
f 30/4/1 25/4/1 28/4/1
f 30/4/1 28/4/1 29/4/1
f 31/4/1 21/4/1 20/4/1
f 31/6/1 20/6/1 19/6/1
f 32/6/1 22/6/1 21/6/1
f 32/4/1 21/4/1 31/4/1
f 33/4/1 23/4/1 22/4/1
f 33/6/1 22/6/1 32/6/1
f 34/1/1 29/1/1 23/1/1
f 34/4/1 23/4/1 33/4/1
f 35/4/1 25/4/1 30/4/1
f 35/6/1 30/6/1 29/6/1
f 36/6/1 26/6/1 25/6/1
f 36/4/1 25/4/1 35/4/1
f 37/6/1 31/6/1 19/6/1
f 37/6/1 32/6/1 31/6/1
f 37/6/1 34/6/1 33/6/1
f 37/6/1 33/6/1 32/6/1
f 38/6/1 34/6/1 37/6/1
f 39/6/1 34/6/1 38/6/1
f 40/1/1 29/1/1 34/1/1
f 40/6/1 34/6/1 39/6/1
f 41/6/1 35/6/1 29/6/1
f 41/1/1 29/1/1 40/1/1
f 41/6/1 36/6/1 35/6/1
f 42/6/1 36/6/1 41/6/1
f 43/6/1 26/6/1 36/6/1
f 43/6/1 36/6/1 42/6/1
f 44/6/1 26/6/1 43/6/1
f 45/2/1 38/2/1 37/2/1
f 46/3/1 39/3/1 38/3/1
f 46/2/1 38/2/1 45/2/1
f 47/2/1 40/2/1 39/2/1
f 47/3/1 39/3/1 46/3/1
f 48/3/1 42/3/1 41/3/1
f 48/2/1 40/2/1 47/2/1
f 48/3/1 41/3/1 40/3/1
f 49/2/1 43/2/1 42/2/1
f 49/3/1 42/3/1 48/3/1
f 50/3/1 44/3/1 43/3/1
f 50/2/1 43/2/1 49/2/1
f 51/3/1 44/3/1 50/3/1
f 56/4/1 53/4/1 52/4/1
f 57/4/1 53/4/1 56/4/1
f 58/4/1 53/4/1 57/4/1
f 59/4/1 53/4/1 58/4/1
f 60/4/1 55/4/1 54/4/1
f 61/4/1 55/4/1 60/4/1
f 62/4/1 55/4/1 61/4/1
f 64/4/1 62/4/1 61/4/1
f 65/6/1 63/6/1 62/6/1
f 65/4/1 62/4/1 64/4/1
f 66/6/1 63/6/1 65/6/1
f 67/4/1 58/4/1 57/4/1
f 68/4/1 58/4/1 67/4/1
f 71/6/1 70/6/1 69/6/1
f 72/6/1 70/6/1 71/6/1
f 75/6/1 74/6/1 73/6/1
f 76/6/1 74/6/1 75/6/1
f 81/1/1 80/1/1 79/1/1
f 82/1/1 80/1/1 81/1/1
f 83/1/1 78/1/1 77/1/1
f 84/1/1 78/1/1 83/1/1
f 87/6/1 86/6/1 85/6/1
f 88/6/1 86/6/1 87/6/1
f 89/6/2 90/6/2 91/6/2
f 91/6/2 90/6/2 92/6/2
f 93/6/2 94/6/2 95/6/2
f 95/6/2 94/6/2 96/6/2
f 97/6/2 98/6/2 99/6/2
f 99/6/2 98/6/2 100/6/2
f 101/6/2 102/6/2 103/6/2
f 103/6/2 102/6/2 104/6/2
f 107/6/2 108/6/2 109/6/2
f 109/6/2 108/6/2 110/6/2
f 105/6/2 106/6/2 111/6/2
f 111/6/2 106/6/2 112/6/2
f 115/6/2 116/6/2 117/6/2
f 117/6/2 116/6/2 118/6/2
f 113/6/2 114/6/2 119/6/2
f 119/6/2 114/6/2 120/6/2
f 121/6/2 122/6/2 125/6/2
f 125/6/2 122/6/2 126/6/2
f 123/6/2 124/6/2 127/6/2
f 127/6/2 124/6/2 128/6/2
f 129/1/2 130/1/2 132/1/2
f 130/4/2 131/4/2 133/4/2
f 132/1/2 130/1/2 133/1/2
f 133/4/2 131/4/2 134/4/2
f 135/4/2 136/4/2 141/4/2
f 141/4/2 136/4/2 142/4/2
f 139/1/2 140/1/2 144/1/2
f 143/4/2 144/4/2 145/4/2
f 144/1/2 140/1/2 145/1/2
f 145/1/2 140/1/2 146/1/2
f 143/4/2 145/4/2 147/4/2
f 147/4/2 145/4/2 148/4/2
f 137/4/2 138/4/2 149/4/2
f 149/4/2 138/4/2 150/4/2
f 153/1/2 154/1/2 159/1/2
f 156/6/2 157/6/2 160/6/2
f 155/1/2 156/1/2 160/1/2
f 160/6/2 157/6/2 161/6/2
f 151/6/2 152/6/2 164/6/2
f 164/6/2 152/6/2 165/6/2
f 158/6/2 159/6/2 166/6/2
f 159/1/2 154/1/2 167/1/2
f 166/6/2 159/6/2 167/6/2
f 155/1/2 160/1/2 168/1/2
f 162/6/2 163/6/2 169/6/2
f 169/6/2 163/6/2 170/6/2
f 165/6/2 166/6/2 171/6/2
f 166/4/2 167/4/2 171/4/2
f 167/1/2 154/1/2 172/1/2
f 171/4/2 167/4/2 172/4/2
f 155/1/2 168/1/2 173/1/2
f 168/6/2 169/6/2 173/6/2
f 169/4/2 170/4/2 174/4/2
f 173/6/2 169/6/2 174/6/2
f 174/4/2 170/4/2 175/4/2
f 164/4/2 165/4/2 176/4/2
f 165/6/2 171/6/2 177/6/2
f 176/4/2 165/4/2 177/4/2
f 171/6/2 172/6/2 177/6/2
f 172/1/2 154/1/2 178/1/2
f 155/1/2 173/1/2 179/1/2
f 173/4/2 174/4/2 180/4/2
f 179/1/2 173/1/2 180/1/2
f 174/6/2 175/6/2 181/6/2
f 180/4/2 174/4/2 181/4/2
f 176/6/2 177/6/2 182/6/2
f 177/6/2 172/6/2 183/6/2
f 182/6/2 177/6/2 183/6/2
f 172/1/2 178/1/2 184/1/2
f 183/6/2 172/6/2 184/6/2
f 178/6/2 179/6/2 185/6/2
f 184/1/2 178/1/2 185/1/2
f 179/1/2 180/1/2 186/1/2
f 185/6/2 179/6/2 186/6/2
f 180/6/2 181/6/2 187/6/2
f 186/1/2 180/1/2 187/1/2
f 181/6/2 175/6/2 188/6/2
f 187/6/2 181/6/2 188/6/2
f 182/2/2 183/2/2 189/2/2
f 184/3/2 185/3/2 190/3/2
f 189/2/2 183/2/2 190/2/2
f 183/3/2 184/3/2 190/3/2
f 187/3/2 188/3/2 190/3/2
f 185/3/2 186/3/2 190/3/2
f 186/3/2 187/3/2 190/3/2
f 190/3/2 188/3/2 191/3/2
f 197/6/3 193/6/3 192/6/3
f 198/4/3 194/4/3 193/4/3
f 198/6/3 193/6/3 197/6/3
f 199/6/3 195/6/3 194/6/3
f 199/4/3 194/4/3 198/4/3
f 200/2/3 196/2/3 195/2/3
f 200/6/3 195/6/3 199/6/3
f 201/2/3 196/2/3 200/2/3
f 202/1/3 199/1/3 198/1/3
f 202/1/3 198/1/3 197/1/3
f 202/1/3 200/1/3 199/1/3
f 203/1/3 200/1/3 202/1/3
f 204/1/3 200/1/3 203/1/3
f 205/3/3 201/3/3 200/3/3
f 205/1/3 200/1/3 204/1/3
f 206/3/3 201/3/3 205/3/3
f 207/6/3 203/6/3 202/6/3
f 208/4/3 204/4/3 203/4/3
f 208/6/3 203/6/3 207/6/3
f 209/6/3 205/6/3 204/6/3
f 209/4/3 204/4/3 208/4/3
f 210/6/3 205/6/3 209/6/3
f 211/6/3 205/6/3 210/6/3
f 212/6/3 205/6/3 211/6/3
f 213/6/3 209/6/3 208/6/3
f 214/6/3 209/6/3 213/6/3
f 215/6/3 211/6/3 210/6/3
f 216/4/3 212/4/3 211/4/3
f 216/6/3 211/6/3 215/6/3
f 217/6/3 205/6/3 212/6/3
f 217/4/3 212/4/3 216/4/3
f 218/2/3 206/2/3 205/2/3
f 218/6/3 205/6/3 217/6/3
f 219/2/3 206/2/3 218/2/3
f 221/6/3 217/6/3 216/6/3
f 221/6/3 218/6/3 217/6/3
f 222/3/3 219/3/3 218/3/3
f 222/6/3 218/6/3 221/6/3
f 223/1/3 221/1/3 220/1/3
f 223/1/3 222/1/3 221/1/3
f 224/1/3 222/1/3 223/1/3
f 225/3/3 219/3/3 222/3/3
f 225/1/3 222/1/3 224/1/3
f 227/6/3 225/6/3 224/6/3
f 228/6/3 225/6/3 227/6/3
f 229/3/3 219/3/3 225/3/3
f 229/6/3 225/6/3 228/6/3
f 230/3/3 219/3/3 229/3/3
f 231/6/3 227/6/3 226/6/3
f 232/4/3 228/4/3 227/4/3
f 232/6/3 227/6/3 231/6/3
f 233/6/3 229/6/3 228/6/3
f 233/4/3 228/4/3 232/4/3
f 234/2/3 230/2/3 229/2/3
f 234/6/3 229/6/3 233/6/3
f 235/2/3 230/2/3 234/2/3
f 240/4/3 237/4/3 236/4/3
f 241/4/3 239/4/3 238/4/3
f 242/4/3 239/4/3 241/4/3
f 244/4/3 240/4/3 236/4/3
f 244/4/3 243/4/3 242/4/3
f 244/4/3 242/4/3 241/4/3
f 244/4/3 241/4/3 240/4/3
f 245/4/3 243/4/3 244/4/3
f 248/4/3 247/4/3 246/4/3
f 249/4/3 247/4/3 248/4/3
f 250/4/3 247/4/3 249/4/3
f 251/6/3 250/6/3 249/6/3
f 252/6/3 250/6/3 251/6/3
f 255/6/3 254/6/3 253/6/3
f 256/6/3 254/6/3 255/6/3
f 259/1/3 258/1/3 257/1/3
f 260/1/3 258/1/3 259/1/3
f 263/1/3 262/1/3 261/1/3
f 264/1/3 262/1/3 263/1/3
f 267/1/3 266/1/3 265/1/3
f 268/1/3 266/1/3 267/1/3
f 271/6/3 270/6/3 269/6/3
f 272/6/3 270/6/3 271/6/3
f 275/6/3 274/6/3 273/6/3
f 276/6/3 274/6/3 275/6/3
f 277/6/4 278/6/4 279/6/4
f 279/6/4 278/6/4 280/6/4
f 281/6/4 282/6/4 283/6/4
f 283/6/4 282/6/4 284/6/4
f 285/6/4 286/6/4 287/6/4
f 287/6/4 286/6/4 288/6/4
f 289/1/4 290/1/4 291/1/4
f 291/1/4 290/1/4 292/1/4
f 293/1/4 294/1/4 295/1/4
f 295/1/4 294/1/4 296/1/4
f 297/6/4 298/6/4 299/6/4
f 299/6/4 298/6/4 300/6/4
f 301/1/4 302/1/4 303/1/4
f 303/1/4 302/1/4 304/1/4
f 305/6/4 306/6/4 309/6/4
f 309/6/4 306/6/4 310/6/4
f 307/4/4 308/4/4 312/4/4
f 310/4/4 311/4/4 313/4/4
f 309/4/4 310/4/4 313/4/4
f 313/4/4 311/4/4 314/4/4
f 307/4/4 312/4/4 315/4/4
f 312/4/4 313/4/4 315/4/4
f 315/4/4 313/4/4 316/4/4
f 316/4/4 317/4/4 319/4/4
f 319/4/4 317/4/4 320/4/4
f 318/4/4 319/4/4 322/4/4
f 320/4/4 321/4/4 322/4/4
f 319/4/4 320/4/4 322/4/4
f 322/4/4 321/4/4 323/4/4
f 324/6/4 325/6/4 326/6/4
f 326/6/4 325/6/4 327/6/4
f 328/6/4 329/6/4 333/6/4
f 333/6/4 329/6/4 334/6/4
f 330/6/4 331/6/4 336/6/4
f 336/6/4 331/6/4 337/6/4
f 331/3/4 332/3/4 338/3/4
f 337/6/4 331/6/4 338/6/4
f 338/3/4 332/3/4 339/3/4
f 334/6/4 335/6/4 340/6/4
f 340/6/4 335/6/4 341/6/4
f 337/6/4 338/6/4 342/6/4
f 338/5/4 339/5/4 343/5/4
f 342/6/4 338/6/4 343/6/4
f 343/5/4 339/5/4 344/5/4
f 341/6/4 342/6/4 346/6/4
f 342/6/4 343/6/4 346/6/4
f 346/6/4 343/6/4 347/6/4
f 347/6/4 343/6/4 348/6/4
f 348/6/4 343/6/4 349/6/4
f 343/3/4 344/3/4 350/3/4
f 349/6/4 343/6/4 350/6/4
f 350/3/4 344/3/4 351/3/4
f 345/6/4 346/6/4 352/6/4
f 352/6/4 346/6/4 353/6/4
f 347/6/4 348/6/4 354/6/4
f 348/4/4 349/4/4 355/4/4
f 354/6/4 348/6/4 355/6/4
f 349/6/4 350/6/4 356/6/4
f 355/4/4 349/4/4 356/4/4
f 350/5/4 351/5/4 357/5/4
f 356/6/4 350/6/4 357/6/4
f 357/5/4 351/5/4 358/5/4
f 355/6/4 356/6/4 360/6/4
f 356/6/4 357/6/4 360/6/4
f 357/3/4 358/3/4 361/3/4
f 360/6/4 357/6/4 361/6/4
f 361/3/4 358/3/4 362/3/4
f 359/1/4 360/1/4 363/1/4
f 360/1/4 361/1/4 363/1/4
f 363/1/4 361/1/4 364/1/4
f 364/1/4 361/1/4 365/1/4
f 365/1/4 361/1/4 366/1/4
f 361/5/4 362/5/4 367/5/4
f 366/1/4 361/1/4 367/1/4
f 367/5/4 362/5/4 368/5/4
f 364/6/4 365/6/4 369/6/4
f 365/4/4 366/4/4 370/4/4
f 369/6/4 365/6/4 370/6/4
f 366/6/4 367/6/4 371/6/4
f 370/4/4 366/4/4 371/4/4
f 367/3/4 368/3/4 372/3/4
f 371/6/4 367/6/4 372/6/4
f 372/3/4 368/3/4 373/3/4
f 382/6/5 375/6/5 374/6/5
f 383/1/5 376/1/5 375/1/5
f 383/6/5 375/6/5 382/6/5
f 384/6/5 377/6/5 376/6/5
f 384/1/5 376/1/5 383/1/5
f 385/6/5 377/6/5 384/6/5
f 386/1/5 379/1/5 378/1/5
f 387/1/5 379/1/5 386/1/5
f 388/6/5 381/6/5 380/6/5
f 389/6/5 381/6/5 388/6/5
f 390/4/5 387/4/5 386/4/5
f 390/4/5 385/4/5 384/4/5
f 390/4/5 386/4/5 385/4/5
f 390/4/5 384/4/5 383/4/5
f 392/4/5 391/4/5 390/4/5
f 395/4/5 390/4/5 383/4/5
f 395/4/5 392/4/5 390/4/5
f 396/1/5 393/1/5 392/1/5
f 396/4/5 392/4/5 395/4/5
f 397/1/5 393/1/5 396/1/5
f 398/1/5 395/1/5 394/1/5
f 399/4/5 396/4/5 395/4/5
f 399/1/5 395/1/5 398/1/5
f 400/4/5 396/4/5 399/4/5
f 402/1/5 401/1/5 400/1/5
f 402/4/5 400/4/5 399/4/5
f 403/1/5 401/1/5 402/1/5
f 405/4/5 402/4/5 399/4/5
f 406/4/5 402/4/5 405/4/5
f 407/4/5 402/4/5 406/4/5
f 408/4/5 402/4/5 407/4/5
f 409/6/5 403/6/5 402/6/5
f 409/4/5 402/4/5 408/4/5
f 410/6/5 403/6/5 409/6/5
f 411/6/5 405/6/5 404/6/5
f 412/6/5 405/6/5 411/6/5
f 413/6/5 407/6/5 406/6/5
f 414/6/5 407/6/5 413/6/5
f 415/1/5 409/1/5 408/1/5
f 416/1/5 409/1/5 415/1/5
f 421/6/5 418/6/5 417/6/5
f 422/6/5 418/6/5 421/6/5
f 423/6/5 420/6/5 419/6/5
f 424/6/5 420/6/5 423/6/5
f 429/6/5 426/6/5 425/6/5
f 430/6/5 426/6/5 429/6/5
f 431/6/5 428/6/5 427/6/5
f 432/6/5 428/6/5 431/6/5
f 435/6/5 434/6/5 433/6/5
f 436/6/5 434/6/5 435/6/5
f 439/6/5 438/6/5 437/6/5
f 440/6/5 438/6/5 439/6/5
f 443/6/5 442/6/5 441/6/5
f 444/6/5 442/6/5 443/6/5
f 449/6/5 446/6/5 445/6/5
f 450/6/5 446/6/5 449/6/5
f 451/6/5 448/6/5 447/6/5
f 452/6/5 448/6/5 451/6/5
f 455/6/5 454/6/5 453/6/5
f 456/6/5 454/6/5 455/6/5
f 460/4/5 456/4/5 455/4/5
f 461/6/5 457/6/5 456/6/5
f 461/4/5 456/4/5 460/4/5
f 462/6/5 457/6/5 461/6/5
f 463/6/5 459/6/5 458/6/5
f 464/6/5 459/6/5 463/6/5
f 471/6/5 466/6/5 465/6/5
f 472/6/5 466/6/5 471/6/5
f 473/6/5 468/6/5 467/6/5
f 474/6/5 468/6/5 473/6/5
f 475/6/5 470/6/5 469/6/5
f 476/6/5 470/6/5 475/6/5
f 479/6/5 478/6/5 477/6/5
f 480/6/5 478/6/5 479/6/5
f 483/6/5 482/6/5 481/6/5
f 484/6/5 482/6/5 483/6/5
f 487/6/5 486/6/5 485/6/5
f 488/6/5 486/6/5 487/6/5
f 491/6/5 490/6/5 489/6/5
f 492/6/5 490/6/5 491/6/5
f 495/6/5 494/6/5 493/6/5
f 496/6/5 494/6/5 495/6/5
f 497/6/6 498/6/6 501/6/6
f 501/6/6 498/6/6 502/6/6
f 499/6/6 500/6/6 503/6/6
f 503/6/6 500/6/6 504/6/6
f 505/6/6 506/6/6 507/6/6
f 507/6/6 506/6/6 508/6/6
f 509/6/6 510/6/6 513/6/6
f 513/6/6 510/6/6 514/6/6
f 511/6/6 512/6/6 515/6/6
f 515/6/6 512/6/6 516/6/6
f 519/2/6 520/2/6 523/2/6
f 520/3/6 521/3/6 524/3/6
f 523/2/6 520/2/6 524/2/6
f 521/2/6 522/2/6 525/2/6
f 524/3/6 521/3/6 525/3/6
f 517/2/6 518/2/6 526/2/6
f 518/3/6 519/3/6 527/3/6
f 526/2/6 518/2/6 527/2/6
f 519/2/6 523/2/6 528/2/6
f 527/3/6 519/3/6 528/3/6
f 523/3/6 524/3/6 529/3/6
f 528/2/6 523/2/6 529/2/6
f 524/2/6 525/2/6 530/2/6
f 529/3/6 524/3/6 530/3/6
f 530/2/6 525/2/6 531/2/6
f 525/2/6 522/2/6 532/2/6
f 531/2/6 525/2/6 532/2/6
f 532/2/6 522/2/6 533/2/6
f 526/3/6 527/3/6 534/3/6
f 527/2/6 528/2/6 535/2/6
f 534/3/6 527/3/6 535/3/6
f 530/3/6 531/3/6 536/3/6
f 535/2/6 528/2/6 536/2/6
f 528/3/6 529/3/6 536/3/6
f 529/3/6 530/3/6 536/3/6
f 531/2/6 532/2/6 537/2/6
f 536/3/6 531/3/6 537/3/6
f 532/3/6 533/3/6 538/3/6
f 537/2/6 532/2/6 538/2/6
f 534/2/6 535/2/6 539/2/6
f 535/3/6 536/3/6 540/3/6
f 539/2/6 535/2/6 540/2/6
f 536/2/6 537/2/6 541/2/6
f 540/3/6 536/3/6 541/3/6
f 541/2/6 537/2/6 542/2/6
f 542/2/6 537/2/6 543/2/6
f 543/2/6 537/2/6 544/2/6
f 537/3/6 538/3/6 545/3/6
f 544/2/6 537/2/6 545/2/6
f 538/3/6 533/3/6 546/3/6
f 545/3/6 538/3/6 546/3/6
f 539/3/6 540/3/6 547/3/6
f 540/2/6 541/2/6 547/2/6
f 541/2/6 542/2/6 547/2/6
f 547/2/6 542/2/6 548/2/6
f 543/2/6 544/2/6 549/2/6
f 542/3/6 543/3/6 549/3/6
f 544/3/6 545/3/6 550/3/6
f 549/2/6 544/2/6 550/2/6
f 545/2/6 546/2/6 551/2/6
f 550/3/6 545/3/6 551/3/6
f 547/3/6 548/3/6 552/3/6
f 539/3/6 547/3/6 552/3/6
f 552/3/6 548/3/6 553/3/6
f 548/2/6 542/2/6 554/2/6
f 553/3/6 548/3/6 554/3/6
f 542/3/6 549/3/6 555/3/6
f 554/2/6 542/2/6 555/2/6
f 549/3/6 550/3/6 555/3/6
f 555/3/6 550/3/6 556/3/6
f 550/2/6 551/2/6 557/2/6
f 556/3/6 550/3/6 557/3/6
f 546/3/6 533/3/6 558/3/6
f 557/2/6 551/2/6 558/2/6
f 551/2/6 546/2/6 558/2/6
f 552/2/6 553/2/6 559/2/6
f 553/3/6 554/3/6 560/3/6
f 559/2/6 553/2/6 560/2/6
f 554/3/6 555/3/6 560/3/6
f 560/3/6 555/3/6 561/3/6
f 555/2/6 556/2/6 562/2/6
f 561/3/6 555/3/6 562/3/6
f 556/3/6 557/3/6 563/3/6
f 562/2/6 556/2/6 563/2/6
f 557/3/6 558/3/6 563/3/6
f 563/3/6 558/3/6 564/3/6
f 558/3/6 533/3/6 565/3/6
f 564/3/6 558/3/6 565/3/6
f 559/3/6 560/3/6 566/3/6
f 560/5/6 561/5/6 567/5/6
f 566/3/6 560/3/6 567/3/6
f 561/3/6 562/3/6 568/3/6
f 567/5/6 561/5/6 568/5/6
f 562/5/6 563/5/6 569/5/6
f 568/3/6 562/3/6 569/3/6
f 563/3/6 564/3/6 570/3/6
f 569/5/6 563/5/6 570/5/6
f 564/5/6 565/5/6 571/5/6
f 570/3/6 564/3/6 571/3/6
f 565/3/6 533/3/6 572/3/6
f 571/5/6 565/5/6 572/5/6
f 572/3/6 533/3/6 573/3/6
