# MagicaVoxel @ ephtracy

# material
mtllib floor_forest_01_corner.mtl
usemtl palette

# normals
vn -1 0 0
vn 1 0 0
vn 0 0 1
vn 0 0 -1
vn 0 -1 0
vn 0 1 0

# texcoords
vt 0.494141 0.5
vt 0.509766 0.5
vt 0.513672 0.5
vt 0.537109 0.5
vt 0.677734 0.5

# verts
v -4 0 4
v -4 0 3
v -4 0 -0
v -4 0 -1
v -4 0 -3
v -4 0 -4
v -4 1 3
v -4 1 2
v -4 1 1
v -4 1 -0
v -4 1 -1
v -4 1 -2
v -4 1 -3
v -4 1 -4
v -4 2 4
v -4 2 3
v -4 2 -2
v -4 2 -3
v -4 3 4
v -4 3 3
v -4 3 2
v -4 3 1
v -4 3 -0
v -4 3 -2
v -4 3 -3
v -4 3 -4
v -4 4 -1
v -4 4 -2
v -4 5 -1
v -4 5 -2
v -4 6 3
v -4 6 2
v -4 6 1
v -4 6 -0
v -4 6 -2
v -4 6 -3
v -4 7 4
v -4 7 2
v -4 7 1
v -4 7 -0
v -4 7 -1
v -4 7 -2
v -4 7 -3
v -4 7 -4
v -4 8 4
v -4 8 2
v -4 8 1
v -4 8 -0
v -4 8 -2
v -4 8 -3
v -4 8 -4
v -3 0 3
v -3 0 -0
v -3 0 -1
v -3 0 -3
v -3 1 3
v -3 1 2
v -3 1 1
v -3 1 -0
v -3 1 -1
v -3 1 -2
v -3 1 -3
v -3 1 -4
v -3 2 -2
v -3 2 -3
v -3 2 -4
v -3 3 2
v -3 3 1
v -2 2 -3
v -2 2 -4
v -2 6 -3
v -2 6 -4
v -1 0 -3
v -1 0 -4
v -1 2 -3
v -1 2 -4
v 0 7 -3
v 0 7 -4
v 0 8 -3
v 0 8 -4
v 1 0 4
v 1 0 3
v 1 0 -3
v 1 0 -4
v 1 4 -3
v 1 4 -4
v 1 5 4
v 1 5 3
v 3 0 4
v 3 0 3
v 3 3 4
v 3 3 3
v -3 0 -3
v -3 0 -4
v -3 1 -3
v -3 1 -4
v -3 3 -3
v -3 3 -4
v -3 6 -3
v -3 6 -4
v -2 1 -3
v -2 1 -4
v -2 2 -3
v -2 2 -4
v -2 7 -3
v -2 7 -4
v -2 8 -3
v -2 8 -4
v -1 0 4
v -1 0 3
v -1 1 4
v -1 1 3
v -1 2 4
v -1 2 3
v -1 2 -3
v -1 2 -4
v -1 3 -3
v -1 3 -4
v -1 4 4
v -1 4 3
v 0 0 -3
v 0 0 -4
v 0 1 4
v 0 1 3
v 0 2 4
v 0 2 3
v 0 2 -3
v 0 2 -4
v 0 3 -3
v 0 3 -4
v 0 4 4
v 0 4 3
v 0 4 -3
v 0 4 -4
v 0 5 4
v 0 5 3
v 1 7 -3
v 1 7 -4
v 1 8 -3
v 1 8 -4
v 2 0 4
v 2 0 3
v 2 0 2
v 2 3 4
v 2 3 3
v 2 3 2
v 3 0 2
v 3 0 1
v 3 0 -0
v 3 0 -1
v 3 0 -3
v 3 0 -4
v 3 1 2
v 3 1 1
v 3 1 -2
v 3 1 -3
v 3 2 -3
v 3 2 -4
v 3 3 -2
v 3 3 -3
v 3 6 -0
v 3 6 -1
v 3 7 4
v 3 7 3
v 3 7 1
v 3 7 -0
v 3 7 -1
v 3 7 -2
v 3 7 -3
v 3 8 4
v 3 8 3
v 3 8 1
v 3 8 -0
v 3 8 -2
v 3 8 -3
v 4 0 4
v 4 0 3
v 4 0 1
v 4 0 -0
v 4 0 -1
v 4 0 -2
v 4 0 -3
v 4 1 2
v 4 1 1
v 4 1 -2
v 4 1 -3
v 4 2 -3
v 4 2 -4
v 4 3 4
v 4 3 3
v 4 3 2
v 4 3 1
v 4 3 -2
v 4 3 -3
v 4 3 -4
v 4 5 2
v 4 5 1
v 4 5 -2
v 4 5 -3
v 4 5 -4
v 4 6 4
v 4 6 3
v 4 6 -0
v 4 6 -1
v 4 6 -2
v 4 6 -3
v 4 7 4
v 4 7 3
v 4 7 2
v 4 7 1
v 4 7 -0
v 4 7 -1
v 4 7 -2
v 4 7 -4
v 4 8 3
v 4 8 2
v 4 8 1
v -4 0 4
v -4 2 4
v -4 3 4
v -4 7 4
v -4 8 4
v -3 0 4
v -3 2 4
v -3 3 4
v -3 7 4
v -3 8 4
v -2 0 4
v -2 1 4
v -2 2 4
v -2 7 4
v -2 8 4
v -1 0 4
v -1 1 4
v -1 2 4
v -1 4 4
v -1 5 4
v -1 6 4
v 0 1 4
v 0 2 4
v 0 4 4
v 0 5 4
v 0 6 4
v 0 7 4
v 0 8 4
v 1 0 4
v 1 5 4
v 1 7 4
v 2 0 4
v 2 3 4
v 2 7 4
v 3 0 4
v 3 3 4
v 3 6 4
v 3 7 4
v 3 8 4
v 4 0 4
v 4 3 4
v 4 6 4
v 4 7 4
v -1 0 3
v -1 1 3
v -1 2 3
v -1 4 3
v 0 1 3
v 0 2 3
v 0 4 3
v 0 5 3
v 1 0 3
v 1 5 3
v 3 7 3
v 3 8 3
v 4 7 3
v 4 8 3
v 2 0 2
v 2 3 2
v 3 0 2
v 3 1 2
v 3 3 2
v 4 1 2
v 4 3 2
v -4 1 1
v -4 3 1
v -3 1 1
v -3 3 1
v 3 0 1
v 3 1 1
v 4 0 1
v 4 1 1
v -4 0 -0
v -4 1 -0
v -3 0 -0
v -3 1 -0
v 3 0 -1
v 3 6 -1
v 4 0 -1
v 4 6 -1
v -4 0 -3
v -4 1 -3
v -3 0 -3
v -3 1 -3
v 3 2 -3
v 3 3 -3
v 4 2 -3
v 4 3 -3
v -4 0 3
v -4 1 3
v -3 0 3
v -3 1 3
v 3 0 3
v 3 3 3
v 4 0 3
v 4 3 3
v -4 1 2
v -4 3 2
v -3 1 2
v -3 3 2
v 3 7 1
v 3 8 1
v 4 7 1
v 4 8 1
v 3 0 -0
v 3 6 -0
v 4 0 -0
v 4 6 -0
v -4 0 -1
v -4 1 -1
v -3 0 -1
v -3 1 -1
v -4 1 -2
v -4 2 -2
v -3 1 -2
v -3 2 -2
v 3 1 -2
v 3 3 -2
v 4 1 -2
v 4 3 -2
v -4 2 -3
v -4 3 -3
v -3 0 -3
v -3 1 -3
v -3 2 -3
v -3 3 -3
v -3 6 -3
v -2 1 -3
v -2 2 -3
v -2 6 -3
v -2 7 -3
v -2 8 -3
v -1 0 -3
v -1 2 -3
v -1 3 -3
v -1 7 -3
v -1 8 -3
v 0 0 -3
v 0 2 -3
v 0 3 -3
v 0 4 -3
v 0 7 -3
v 0 8 -3
v 1 0 -3
v 1 4 -3
v 1 7 -3
v 1 8 -3
v 3 0 -3
v 3 1 -3
v 3 7 -3
v 3 8 -3
v 4 0 -3
v 4 1 -3
v -4 0 -4
v -4 1 -4
v -4 3 -4
v -4 7 -4
v -4 8 -4
v -3 0 -4
v -3 1 -4
v -3 2 -4
v -3 3 -4
v -3 6 -4
v -3 7 -4
v -3 8 -4
v -2 1 -4
v -2 2 -4
v -2 6 -4
v -2 7 -4
v -2 8 -4
v -1 0 -4
v -1 2 -4
v -1 3 -4
v -1 4 -4
v -1 6 -4
v 0 0 -4
v 0 2 -4
v 0 3 -4
v 0 4 -4
v 0 6 -4
v 0 7 -4
v 0 8 -4
v 1 0 -4
v 1 4 -4
v 1 7 -4
v 1 8 -4
v 3 0 -4
v 3 2 -4
v 3 3 -4
v 3 5 -4
v 3 7 -4
v 4 2 -4
v 4 3 -4
v 4 5 -4
v 4 7 -4
v -4 0 4
v -3 0 4
v -2 0 4
v -1 0 4
v 1 0 4
v 2 0 4
v 3 0 4
v 4 0 4
v -4 0 3
v -3 0 3
v -2 0 3
v -1 0 3
v 1 0 3
v 2 0 3
v 3 0 3
v 4 0 3
v 2 0 2
v 3 0 2
v 3 0 1
v 4 0 1
v -4 0 -0
v -3 0 -0
v 3 0 -0
v 4 0 -0
v -4 0 -1
v -3 0 -1
v 3 0 -1
v 4 0 -1
v 3 0 -2
v 4 0 -2
v -4 0 -3
v -3 0 -3
v -1 0 -3
v 0 0 -3
v 1 0 -3
v 3 0 -3
v 4 0 -3
v -4 0 -4
v -3 0 -4
v -1 0 -4
v 0 0 -4
v 1 0 -4
v 3 0 -4
v -1 1 4
v 0 1 4
v -4 1 3
v -3 1 3
v -1 1 3
v 0 1 3
v -4 1 2
v -3 1 2
v 3 1 2
v 4 1 2
v -4 1 1
v -3 1 1
v 3 1 1
v 4 1 1
v -4 1 -0
v -3 1 -0
v -4 1 -1
v -3 1 -1
v -4 1 -2
v -3 1 -2
v -3 1 -3
v -2 1 -3
v -3 1 -4
v -2 1 -4
v -4 2 -2
v -3 2 -2
v -4 2 -3
v -3 2 -3
v -2 2 -3
v -1 2 -3
v 3 2 -3
v 4 2 -3
v -2 2 -4
v -1 2 -4
v 3 2 -4
v 4 2 -4
v 2 3 4
v 3 3 4
v 2 3 3
v 3 3 3
v 4 3 3
v -4 3 2
v -3 3 2
v 2 3 2
v 3 3 2
v 4 3 2
v -4 3 1
v -3 3 1
v 3 3 -2
v 4 3 -2
v -4 3 -3
v -3 3 -3
v -1 3 -3
v 0 3 -3
v 3 3 -3
v 4 3 -3
v -4 3 -4
v -3 3 -4
v -1 3 -4
v 0 3 -4
v -1 4 4
v 0 4 4
v -1 4 3
v 0 4 3
v 0 4 -3
v 1 4 -3
v 0 4 -4
v 1 4 -4
v 0 5 4
v 1 5 4
v 0 5 3
v 1 5 3
v 3 6 -0
v 4 6 -0
v 3 6 -1
v 4 6 -1
v -3 6 -3
v -2 6 -3
v -3 6 -4
v -2 6 -4
v 3 1 -2
v 4 1 -2
v -4 1 -3
v -3 1 -3
v 3 1 -3
v 4 1 -3
v -4 1 -4
v -3 1 -4
v -1 2 4
v 0 2 4
v -1 2 3
v 0 2 3
v -3 2 -3
v -2 2 -3
v -1 2 -3
v 0 2 -3
v -3 2 -4
v -2 2 -4
v -1 2 -4
v 0 2 -4
v 3 7 4
v 4 7 4
v 3 7 3
v 4 7 3
v 3 7 1
v 4 7 1
v 3 7 -0
v 4 7 -0
v 3 7 -1
v 4 7 -1
v 3 7 -2
v 4 7 -2
v -2 7 -3
v -1 7 -3
v 0 7 -3
v 1 7 -3
v 3 7 -3
v -2 7 -4
v 0 7 -4
v 1 7 -4
v 3 7 -4
v 4 7 -4
v -4 8 4
v -3 8 4
v -2 8 4
v 0 8 4
v 3 8 4
v -1 8 3
v 0 8 3
v 3 8 3
v 4 8 3
v -4 8 2
v -3 8 2
v -2 8 2
v -1 8 2
v 0 8 2
v 2 8 2
v 3 8 2
v 4 8 2
v -4 8 1
v -3 8 1
v -2 8 1
v 2 8 1
v 3 8 1
v 4 8 1
v -4 8 -0
v -3 8 -0
v -2 8 -0
v -1 8 -0
v 0 8 -0
v 1 8 -0
v 2 8 -0
v 3 8 -0
v -3 8 -1
v -2 8 -1
v 0 8 -1
v 1 8 -1
v 2 8 -1
v -4 8 -2
v -3 8 -2
v -2 8 -2
v -1 8 -2
v 0 8 -2
v 1 8 -2
v 3 8 -2
v -4 8 -3
v -3 8 -3
v -2 8 -3
v -1 8 -3
v 0 8 -3
v 1 8 -3
v 3 8 -3
v -4 8 -4
v -3 8 -4
v -2 8 -4
v 0 8 -4
v 1 8 -4

# faces
f 7/5/1 2/5/1 1/5/1
f 10/1/1 4/1/1 3/1/1
f 11/1/1 4/1/1 10/1/1
f 13/5/1 6/5/1 5/5/1
f 14/5/1 6/5/1 13/5/1
f 15/5/1 8/5/1 7/5/1
f 15/5/1 7/5/1 1/5/1
f 16/5/1 8/5/1 15/5/1
f 17/5/1 12/5/1 11/5/1
f 19/4/1 16/4/1 15/4/1
f 20/5/1 8/5/1 16/5/1
f 20/4/1 16/4/1 19/4/1
f 21/5/1 8/5/1 20/5/1
f 22/5/1 10/5/1 9/5/1
f 23/1/1 11/1/1 10/1/1
f 23/5/1 10/5/1 22/5/1
f 24/5/1 18/5/1 17/5/1
f 24/5/1 17/5/1 11/5/1
f 25/5/1 18/5/1 24/5/1
f 27/1/1 11/1/1 23/1/1
f 27/5/1 24/5/1 11/5/1
f 28/4/1 25/4/1 24/4/1
f 28/5/1 24/5/1 27/5/1
f 29/1/1 27/1/1 23/1/1
f 29/4/1 28/4/1 27/4/1
f 30/4/1 25/4/1 28/4/1
f 30/4/1 28/4/1 29/4/1
f 31/4/1 21/4/1 20/4/1
f 31/5/1 20/5/1 19/5/1
f 32/5/1 22/5/1 21/5/1
f 32/4/1 21/4/1 31/4/1
f 33/4/1 23/4/1 22/4/1
f 33/5/1 22/5/1 32/5/1
f 34/1/1 29/1/1 23/1/1
f 34/4/1 23/4/1 33/4/1
f 35/4/1 25/4/1 30/4/1
f 35/5/1 30/5/1 29/5/1
f 36/5/1 26/5/1 25/5/1
f 36/4/1 25/4/1 35/4/1
f 37/5/1 31/5/1 19/5/1
f 37/5/1 32/5/1 31/5/1
f 37/5/1 34/5/1 33/5/1
f 37/5/1 33/5/1 32/5/1
f 38/5/1 34/5/1 37/5/1
f 39/5/1 34/5/1 38/5/1
f 40/1/1 29/1/1 34/1/1
f 40/5/1 34/5/1 39/5/1
f 41/5/1 35/5/1 29/5/1
f 41/1/1 29/1/1 40/1/1
f 41/5/1 36/5/1 35/5/1
f 42/5/1 36/5/1 41/5/1
f 43/5/1 26/5/1 36/5/1
f 43/5/1 36/5/1 42/5/1
f 44/5/1 26/5/1 43/5/1
f 45/2/1 38/2/1 37/2/1
f 46/3/1 39/3/1 38/3/1
f 46/2/1 38/2/1 45/2/1
f 47/2/1 40/2/1 39/2/1
f 47/3/1 39/3/1 46/3/1
f 48/3/1 42/3/1 41/3/1
f 48/2/1 40/2/1 47/2/1
f 48/3/1 41/3/1 40/3/1
f 49/2/1 43/2/1 42/2/1
f 49/3/1 42/3/1 48/3/1
f 50/3/1 44/3/1 43/3/1
f 50/2/1 43/2/1 49/2/1
f 51/3/1 44/3/1 50/3/1
f 56/4/1 53/4/1 52/4/1
f 57/4/1 53/4/1 56/4/1
f 58/4/1 53/4/1 57/4/1
f 59/4/1 53/4/1 58/4/1
f 60/4/1 55/4/1 54/4/1
f 61/4/1 55/4/1 60/4/1
f 62/4/1 55/4/1 61/4/1
f 64/4/1 62/4/1 61/4/1
f 65/5/1 63/5/1 62/5/1
f 65/4/1 62/4/1 64/4/1
f 66/5/1 63/5/1 65/5/1
f 67/4/1 58/4/1 57/4/1
f 68/4/1 58/4/1 67/4/1
f 71/5/1 70/5/1 69/5/1
f 72/5/1 70/5/1 71/5/1
f 75/5/1 74/5/1 73/5/1
f 76/5/1 74/5/1 75/5/1
f 79/3/1 78/3/1 77/3/1
f 80/3/1 78/3/1 79/3/1
f 85/1/1 84/1/1 83/1/1
f 86/1/1 84/1/1 85/1/1
f 87/1/1 82/1/1 81/1/1
f 88/1/1 82/1/1 87/1/1
f 91/5/1 90/5/1 89/5/1
f 92/5/1 90/5/1 91/5/1
f 93/5/2 94/5/2 95/5/2
f 95/5/2 94/5/2 96/5/2
f 97/5/2 98/5/2 99/5/2
f 99/5/2 98/5/2 100/5/2
f 101/5/2 102/5/2 103/5/2
f 103/5/2 102/5/2 104/5/2
f 105/2/2 106/2/2 107/2/2
f 107/2/2 106/2/2 108/2/2
f 109/5/2 110/5/2 111/5/2
f 111/5/2 110/5/2 112/5/2
f 115/5/2 116/5/2 117/5/2
f 117/5/2 116/5/2 118/5/2
f 113/5/2 114/5/2 119/5/2
f 119/5/2 114/5/2 120/5/2
f 123/5/2 124/5/2 125/5/2
f 125/5/2 124/5/2 126/5/2
f 121/5/2 122/5/2 127/5/2
f 127/5/2 122/5/2 128/5/2
f 129/5/2 130/5/2 133/5/2
f 133/5/2 130/5/2 134/5/2
f 131/5/2 132/5/2 135/5/2
f 135/5/2 132/5/2 136/5/2
f 137/3/2 138/3/2 139/3/2
f 139/3/2 138/3/2 140/3/2
f 141/1/2 142/1/2 144/1/2
f 142/4/2 143/4/2 145/4/2
f 144/1/2 142/1/2 145/1/2
f 145/4/2 143/4/2 146/4/2
f 147/4/2 148/4/2 153/4/2
f 153/4/2 148/4/2 154/4/2
f 151/1/2 152/1/2 156/1/2
f 155/4/2 156/4/2 157/4/2
f 156/1/2 152/1/2 157/1/2
f 157/1/2 152/1/2 158/1/2
f 155/4/2 157/4/2 159/4/2
f 159/4/2 157/4/2 160/4/2
f 149/4/2 150/4/2 161/4/2
f 161/4/2 150/4/2 162/4/2
f 163/3/2 164/3/2 170/3/2
f 170/3/2 164/3/2 171/3/2
f 165/3/2 166/3/2 172/3/2
f 166/2/2 167/2/2 173/2/2
f 172/3/2 166/3/2 173/3/2
f 167/2/2 168/2/2 173/2/2
f 168/3/2 169/3/2 174/3/2
f 173/2/2 168/2/2 174/2/2
f 174/3/2 169/3/2 175/3/2
f 178/1/2 179/1/2 184/1/2
f 181/5/2 182/5/2 185/5/2
f 180/1/2 181/1/2 185/1/2
f 185/5/2 182/5/2 186/5/2
f 176/5/2 177/5/2 189/5/2
f 189/5/2 177/5/2 190/5/2
f 183/5/2 184/5/2 191/5/2
f 184/1/2 179/1/2 192/1/2
f 191/5/2 184/5/2 192/5/2
f 180/1/2 185/1/2 193/1/2
f 187/5/2 188/5/2 194/5/2
f 194/5/2 188/5/2 195/5/2
f 190/5/2 191/5/2 196/5/2
f 191/4/2 192/4/2 196/4/2
f 192/1/2 179/1/2 197/1/2
f 196/4/2 192/4/2 197/4/2
f 180/1/2 193/1/2 198/1/2
f 193/5/2 194/5/2 198/5/2
f 194/4/2 195/4/2 199/4/2
f 198/5/2 194/5/2 199/5/2
f 199/4/2 195/4/2 200/4/2
f 189/4/2 190/4/2 201/4/2
f 190/5/2 196/5/2 202/5/2
f 201/4/2 190/4/2 202/4/2
f 196/5/2 197/5/2 202/5/2
f 197/1/2 179/1/2 203/1/2
f 180/1/2 198/1/2 204/1/2
f 198/4/2 199/4/2 205/4/2
f 204/1/2 198/1/2 205/1/2
f 199/5/2 200/5/2 206/5/2
f 205/4/2 199/4/2 206/4/2
f 201/5/2 202/5/2 207/5/2
f 202/5/2 197/5/2 208/5/2
f 207/5/2 202/5/2 208/5/2
f 208/5/2 197/5/2 209/5/2
f 197/1/2 203/1/2 210/1/2
f 209/5/2 197/5/2 210/5/2
f 203/5/2 204/5/2 211/5/2
f 210/1/2 203/1/2 211/1/2
f 204/1/2 205/1/2 212/1/2
f 211/5/2 204/5/2 212/5/2
f 205/5/2 206/5/2 213/5/2
f 212/1/2 205/1/2 213/1/2
f 206/5/2 200/5/2 214/5/2
f 213/5/2 206/5/2 214/5/2
f 208/2/2 209/2/2 215/2/2
f 209/3/2 210/3/2 216/3/2
f 215/2/2 209/2/2 216/2/2
f 216/3/2 210/3/2 217/3/2
f 223/5/3 219/5/3 218/5/3
f 224/4/3 220/4/3 219/4/3
f 224/5/3 219/5/3 223/5/3
f 225/5/3 221/5/3 220/5/3
f 225/4/3 220/4/3 224/4/3
f 226/2/3 222/2/3 221/2/3
f 226/5/3 221/5/3 225/5/3
f 227/2/3 222/2/3 226/2/3
f 228/1/3 225/1/3 224/1/3
f 228/1/3 224/1/3 223/1/3
f 228/1/3 226/1/3 225/1/3
f 229/1/3 226/1/3 228/1/3
f 230/1/3 226/1/3 229/1/3
f 231/3/3 227/3/3 226/3/3
f 231/1/3 226/1/3 230/1/3
f 232/3/3 227/3/3 231/3/3
f 233/5/3 229/5/3 228/5/3
f 234/4/3 230/4/3 229/4/3
f 234/5/3 229/5/3 233/5/3
f 235/5/3 231/5/3 230/5/3
f 235/4/3 230/4/3 234/4/3
f 236/5/3 231/5/3 235/5/3
f 237/5/3 231/5/3 236/5/3
f 238/5/3 231/5/3 237/5/3
f 239/5/3 235/5/3 234/5/3
f 240/5/3 235/5/3 239/5/3
f 241/5/3 237/5/3 236/5/3
f 242/4/3 238/4/3 237/4/3
f 242/5/3 237/5/3 241/5/3
f 243/5/3 231/5/3 238/5/3
f 243/4/3 238/4/3 242/4/3
f 244/2/3 232/2/3 231/2/3
f 244/5/3 231/5/3 243/5/3
f 245/2/3 232/2/3 244/2/3
f 247/5/3 243/5/3 242/5/3
f 247/5/3 244/5/3 243/5/3
f 248/3/3 245/3/3 244/3/3
f 248/5/3 244/5/3 247/5/3
f 249/1/3 247/1/3 246/1/3
f 249/1/3 248/1/3 247/1/3
f 250/1/3 248/1/3 249/1/3
f 251/3/3 245/3/3 248/3/3
f 251/1/3 248/1/3 250/1/3
f 253/5/3 251/5/3 250/5/3
f 254/5/3 251/5/3 253/5/3
f 255/3/3 245/3/3 251/3/3
f 255/5/3 251/5/3 254/5/3
f 256/3/3 245/3/3 255/3/3
f 257/5/3 253/5/3 252/5/3
f 258/4/3 254/4/3 253/4/3
f 258/5/3 253/5/3 257/5/3
f 259/5/3 255/5/3 254/5/3
f 259/4/3 254/4/3 258/4/3
f 260/5/3 255/5/3 259/5/3
f 265/4/3 262/4/3 261/4/3
f 266/4/3 264/4/3 263/4/3
f 267/4/3 264/4/3 266/4/3
f 269/4/3 265/4/3 261/4/3
f 269/4/3 268/4/3 267/4/3
f 269/4/3 267/4/3 266/4/3
f 269/4/3 266/4/3 265/4/3
f 270/4/3 268/4/3 269/4/3
f 273/2/3 272/2/3 271/2/3
f 274/2/3 272/2/3 273/2/3
f 277/4/3 276/4/3 275/4/3
f 278/4/3 276/4/3 277/4/3
f 279/4/3 276/4/3 278/4/3
f 280/5/3 279/5/3 278/5/3
f 281/5/3 279/5/3 280/5/3
f 284/5/3 283/5/3 282/5/3
f 285/5/3 283/5/3 284/5/3
f 288/1/3 287/1/3 286/1/3
f 289/1/3 287/1/3 288/1/3
f 292/1/3 291/1/3 290/1/3
f 293/1/3 291/1/3 292/1/3
f 296/1/3 295/1/3 294/1/3
f 297/1/3 295/1/3 296/1/3
f 300/5/3 299/5/3 298/5/3
f 301/5/3 299/5/3 300/5/3
f 304/5/3 303/5/3 302/5/3
f 305/5/3 303/5/3 304/5/3
f 306/5/4 307/5/4 308/5/4
f 308/5/4 307/5/4 309/5/4
f 310/5/4 311/5/4 312/5/4
f 312/5/4 311/5/4 313/5/4
f 314/5/4 315/5/4 316/5/4
f 316/5/4 315/5/4 317/5/4
f 318/3/4 319/3/4 320/3/4
f 320/3/4 319/3/4 321/3/4
f 322/1/4 323/1/4 324/1/4
f 324/1/4 323/1/4 325/1/4
f 326/1/4 327/1/4 328/1/4
f 328/1/4 327/1/4 329/1/4
f 330/5/4 331/5/4 332/5/4
f 332/5/4 331/5/4 333/5/4
f 334/1/4 335/1/4 336/1/4
f 336/1/4 335/1/4 337/1/4
f 338/5/4 339/5/4 342/5/4
f 342/5/4 339/5/4 343/5/4
f 340/4/4 341/4/4 345/4/4
f 343/4/4 344/4/4 346/4/4
f 342/4/4 343/4/4 346/4/4
f 346/4/4 344/4/4 347/4/4
f 340/4/4 345/4/4 350/4/4
f 345/4/4 346/4/4 350/4/4
f 350/4/4 346/4/4 351/4/4
f 348/3/4 349/3/4 353/3/4
f 353/3/4 349/3/4 354/3/4
f 351/4/4 352/4/4 356/4/4
f 356/4/4 352/4/4 357/4/4
f 353/2/4 354/2/4 359/2/4
f 359/2/4 354/2/4 360/2/4
f 357/4/4 358/4/4 361/4/4
f 355/4/4 356/4/4 361/4/4
f 356/4/4 357/4/4 361/4/4
f 361/4/4 358/4/4 362/4/4
f 363/3/4 364/3/4 367/3/4
f 367/3/4 364/3/4 368/3/4
f 365/5/4 366/5/4 369/5/4
f 369/5/4 366/5/4 370/5/4
f 371/5/4 372/5/4 376/5/4
f 376/5/4 372/5/4 377/5/4
f 373/5/4 374/5/4 379/5/4
f 379/5/4 374/5/4 380/5/4
f 374/3/4 375/3/4 381/3/4
f 380/5/4 374/5/4 381/5/4
f 381/3/4 375/3/4 382/3/4
f 377/5/4 378/5/4 383/5/4
f 383/5/4 378/5/4 384/5/4
f 380/5/4 381/5/4 385/5/4
f 381/2/4 382/2/4 386/2/4
f 385/5/4 381/5/4 386/5/4
f 386/2/4 382/2/4 387/2/4
f 384/5/4 385/5/4 389/5/4
f 385/5/4 386/5/4 389/5/4
f 389/5/4 386/5/4 390/5/4
f 390/5/4 386/5/4 391/5/4
f 391/5/4 386/5/4 392/5/4
f 388/5/4 389/5/4 393/5/4
f 393/5/4 389/5/4 394/5/4
f 390/5/4 391/5/4 395/5/4
f 391/4/4 392/4/4 396/4/4
f 395/5/4 391/5/4 396/5/4
f 392/5/4 386/5/4 397/5/4
f 396/4/4 392/4/4 397/4/4
f 397/5/4 386/5/4 398/5/4
f 397/5/4 398/5/4 401/5/4
f 396/5/4 397/5/4 401/5/4
f 398/3/4 399/3/4 402/3/4
f 401/5/4 398/5/4 402/5/4
f 402/3/4 399/3/4 403/3/4
f 400/1/4 401/1/4 404/1/4
f 401/1/4 402/1/4 404/1/4
f 404/1/4 402/1/4 405/1/4
f 405/1/4 402/1/4 406/1/4
f 406/1/4 402/1/4 407/1/4
f 407/1/4 402/1/4 408/1/4
f 405/5/4 406/5/4 409/5/4
f 406/4/4 407/4/4 410/4/4
f 409/5/4 406/5/4 410/5/4
f 407/5/4 408/5/4 411/5/4
f 410/4/4 407/4/4 411/4/4
f 411/5/4 408/5/4 412/5/4
f 421/5/5 414/5/5 413/5/5
f 422/1/5 415/1/5 414/1/5
f 422/5/5 414/5/5 421/5/5
f 423/5/5 416/5/5 415/5/5
f 423/1/5 415/1/5 422/1/5
f 424/5/5 416/5/5 423/5/5
f 425/1/5 418/1/5 417/1/5
f 426/1/5 418/1/5 425/1/5
f 427/5/5 420/5/5 419/5/5
f 428/5/5 420/5/5 427/5/5
f 429/4/5 426/4/5 425/4/5
f 429/4/5 424/4/5 423/4/5
f 429/4/5 425/4/5 424/4/5
f 429/4/5 423/4/5 422/4/5
f 431/4/5 430/4/5 429/4/5
f 434/4/5 429/4/5 422/4/5
f 434/4/5 431/4/5 429/4/5
f 435/1/5 432/1/5 431/1/5
f 435/4/5 431/4/5 434/4/5
f 436/1/5 432/1/5 435/1/5
f 437/1/5 434/1/5 433/1/5
f 438/4/5 435/4/5 434/4/5
f 438/1/5 434/1/5 437/1/5
f 439/4/5 435/4/5 438/4/5
f 441/1/5 440/1/5 439/1/5
f 441/4/5 439/4/5 438/4/5
f 442/1/5 440/1/5 441/1/5
f 444/4/5 441/4/5 438/4/5
f 445/4/5 441/4/5 444/4/5
f 446/4/5 441/4/5 445/4/5
f 447/4/5 441/4/5 446/4/5
f 448/5/5 442/5/5 441/5/5
f 448/4/5 441/4/5 447/4/5
f 449/5/5 442/5/5 448/5/5
f 450/5/5 444/5/5 443/5/5
f 451/5/5 444/5/5 450/5/5
f 452/5/5 446/5/5 445/5/5
f 453/5/5 446/5/5 452/5/5
f 454/1/5 448/1/5 447/1/5
f 455/1/5 448/1/5 454/1/5
f 460/5/5 457/5/5 456/5/5
f 461/5/5 457/5/5 460/5/5
f 462/5/5 459/5/5 458/5/5
f 463/5/5 459/5/5 462/5/5
f 468/5/5 465/5/5 464/5/5
f 469/5/5 465/5/5 468/5/5
f 470/5/5 467/5/5 466/5/5
f 471/5/5 467/5/5 470/5/5
f 474/5/5 473/5/5 472/5/5
f 475/5/5 473/5/5 474/5/5
f 478/5/5 477/5/5 476/5/5
f 479/5/5 477/5/5 478/5/5
f 482/5/5 481/5/5 480/5/5
f 483/5/5 481/5/5 482/5/5
f 488/5/5 485/5/5 484/5/5
f 489/5/5 485/5/5 488/5/5
f 490/5/5 487/5/5 486/5/5
f 491/5/5 487/5/5 490/5/5
f 494/5/5 493/5/5 492/5/5
f 495/5/5 493/5/5 494/5/5
f 499/4/5 495/4/5 494/4/5
f 500/5/5 496/5/5 495/5/5
f 500/4/5 495/4/5 499/4/5
f 501/5/5 496/5/5 500/5/5
f 502/5/5 498/5/5 497/5/5
f 503/5/5 498/5/5 502/5/5
f 510/5/5 505/5/5 504/5/5
f 511/5/5 505/5/5 510/5/5
f 512/5/5 507/5/5 506/5/5
f 513/5/5 507/5/5 512/5/5
f 514/5/5 509/5/5 508/5/5
f 515/5/5 509/5/5 514/5/5
f 518/5/5 517/5/5 516/5/5
f 519/5/5 517/5/5 518/5/5
f 522/5/5 521/5/5 520/5/5
f 523/5/5 521/5/5 522/5/5
f 526/5/5 525/5/5 524/5/5
f 527/5/5 525/5/5 526/5/5
f 530/5/5 529/5/5 528/5/5
f 531/5/5 529/5/5 530/5/5
f 534/5/5 533/5/5 532/5/5
f 535/5/5 533/5/5 534/5/5
f 536/5/6 537/5/6 540/5/6
f 540/5/6 537/5/6 541/5/6
f 538/5/6 539/5/6 542/5/6
f 542/5/6 539/5/6 543/5/6
f 544/5/6 545/5/6 546/5/6
f 546/5/6 545/5/6 547/5/6
f 548/5/6 549/5/6 552/5/6
f 552/5/6 549/5/6 553/5/6
f 550/5/6 551/5/6 554/5/6
f 554/5/6 551/5/6 555/5/6
f 556/5/6 557/5/6 558/5/6
f 558/5/6 557/5/6 559/5/6
f 560/1/6 561/1/6 562/1/6
f 562/1/6 561/1/6 563/1/6
f 562/5/6 563/5/6 564/5/6
f 564/5/6 563/5/6 565/5/6
f 564/1/6 565/1/6 566/1/6
f 566/1/6 565/1/6 567/1/6
f 566/5/6 567/5/6 572/5/6
f 569/5/6 570/5/6 573/5/6
f 568/5/6 569/5/6 573/5/6
f 573/5/6 570/5/6 574/5/6
f 571/1/6 572/1/6 575/1/6
f 572/5/6 567/5/6 576/5/6
f 575/1/6 572/1/6 576/1/6
f 576/5/6 567/5/6 577/5/6
f 580/2/6 581/2/6 583/2/6
f 581/3/6 582/3/6 584/3/6
f 583/2/6 581/2/6 584/2/6
f 584/3/6 582/3/6 585/3/6
f 578/2/6 579/2/6 587/2/6
f 579/3/6 580/3/6 588/3/6
f 587/2/6 579/2/6 588/2/6
f 580/2/6 583/2/6 589/2/6
f 588/3/6 580/3/6 589/3/6
f 583/3/6 584/3/6 590/3/6
f 589/2/6 583/2/6 590/2/6
f 585/2/6 586/2/6 591/2/6
f 590/3/6 584/3/6 591/3/6
f 584/2/6 585/2/6 591/2/6
f 591/2/6 586/2/6 592/2/6
f 592/2/6 586/2/6 593/2/6
f 593/2/6 586/2/6 594/2/6
f 587/3/6 588/3/6 595/3/6
f 588/2/6 589/2/6 596/2/6
f 595/3/6 588/3/6 596/3/6
f 589/3/6 590/3/6 597/3/6
f 596/2/6 589/2/6 597/2/6
f 590/3/6 591/3/6 597/3/6
f 591/3/6 592/3/6 597/3/6
f 592/2/6 593/2/6 598/2/6
f 597/3/6 592/3/6 598/3/6
f 593/3/6 594/3/6 599/3/6
f 598/2/6 593/2/6 599/2/6
f 599/3/6 594/3/6 600/3/6
f 595/2/6 596/2/6 601/2/6
f 596/3/6 597/3/6 602/3/6
f 601/2/6 596/2/6 602/2/6
f 597/2/6 598/2/6 603/2/6
f 602/3/6 597/3/6 603/3/6
f 603/2/6 598/2/6 604/2/6
f 604/2/6 598/2/6 605/2/6
f 605/2/6 598/2/6 606/2/6
f 598/3/6 599/3/6 607/3/6
f 606/2/6 598/2/6 607/2/6
f 607/3/6 599/3/6 608/3/6
f 601/3/6 602/3/6 609/3/6
f 602/2/6 603/2/6 609/2/6
f 603/2/6 604/2/6 609/2/6
f 609/2/6 604/2/6 610/2/6
f 605/2/6 606/2/6 611/2/6
f 604/3/6 605/3/6 611/3/6
f 606/3/6 607/3/6 612/3/6
f 611/2/6 606/2/6 612/2/6
f 607/2/6 608/2/6 613/2/6
f 612/3/6 607/3/6 613/3/6
f 609/3/6 610/3/6 614/3/6
f 601/3/6 609/3/6 614/3/6
f 614/3/6 610/3/6 615/3/6
f 610/2/6 604/2/6 616/2/6
f 615/3/6 610/3/6 616/3/6
f 611/3/6 612/3/6 617/3/6
f 616/2/6 604/2/6 617/2/6
f 604/3/6 611/3/6 617/3/6
f 617/3/6 612/3/6 618/3/6
f 612/2/6 613/2/6 619/2/6
f 618/3/6 612/3/6 619/3/6
f 613/2/6 608/2/6 620/2/6
f 619/2/6 613/2/6 620/2/6
f 614/2/6 615/2/6 621/2/6
f 615/3/6 616/3/6 622/3/6
f 621/2/6 615/2/6 622/2/6
f 616/3/6 617/3/6 622/3/6
f 622/3/6 617/3/6 623/3/6
f 617/2/6 618/2/6 624/2/6
f 623/3/6 617/3/6 624/3/6
f 618/3/6 619/3/6 625/3/6
f 624/2/6 618/2/6 625/2/6
f 619/3/6 620/3/6 625/3/6
f 625/3/6 620/3/6 626/3/6
f 626/3/6 620/3/6 627/3/6
f 621/3/6 622/3/6 628/3/6
f 622/2/6 623/2/6 629/2/6
f 628/3/6 622/3/6 629/3/6
f 629/2/6 623/2/6 630/2/6
f 625/3/6 626/3/6 631/3/6
f 631/3/6 626/3/6 632/3/6
