# MagicaVoxel @ ephtracy

# material
mtllib item_chest_closed.mtl
usemtl palette

# normals
vn -1 0 0
vn 1 0 0
vn 0 0 1
vn 0 0 -1
vn 0 -1 0
vn 0 1 0

# texcoords
vt 0.373047 0.5
vt 0.396484 0.5
vt 0.537109 0.5

# verts
v -9 0 7.5
v -9 0 -7.5
v -9 1 7.5
v -9 1 -7.5
v -9 5 1.5
v -9 5 -1.5
v -9 6 2.5
v -9 6 1.5
v -9 6 -1.5
v -9 6 -2.5
v -9 7 1.5
v -9 7 -1.5
v -9 8 2.5
v -9 8 -2.5
v -8 1 7.5
v -8 1 6.5
v -8 1 -6.5
v -8 1 -7.5
v -8 2 5.5
v -8 2 -5.5
v -8 5 1.5
v -8 5 -1.5
v -8 6 2.5
v -8 6 1.5
v -8 6 -1.5
v -8 6 -2.5
v -8 7 6.5
v -8 7 5.5
v -8 7 2.5
v -8 7 1.5
v -8 7 -1.5
v -8 7 -2.5
v -8 7 -5.5
v -8 7 -6.5
v -8 8 7.5
v -8 8 2.5
v -8 8 -2.5
v -8 8 -7.5
v -7 8 6.5
v -7 8 5.5
v -7 8 4.5
v -7 8 -4.5
v -7 8 -5.5
v -7 8 -6.5
v -7 9 6.5
v -7 9 5.5
v -7 9 4.5
v -7 9 3.5
v -7 9 -3.5
v -7 9 -4.5
v -7 9 -5.5
v -7 9 -6.5
v -7 10 4.5
v -7 10 3.5
v -7 10 -3.5
v -7 10 -4.5
v -7 11 5.5
v -7 11 3.5
v -7 11 -3.5
v -7 11 -5.5
v -7 12 3.5
v -7 12 -3.5
v -5 7 -5.5
v -5 7 -6.5
v -5 8 -5.5
v -5 8 -6.5
v -3 7 6.5
v -3 7 5.5
v -3 8 6.5
v -3 8 5.5
v -2 5 7.5
v -2 5 6.5
v -2 6 6.5
v -2 7 7.5
v -2 7 6.5
v -1 4 7.5
v -1 4 6.5
v -1 5 7.5
v -1 5 6.5
v -1 7 7.5
v -1 7 6.5
v -1 8 7.5
v -1 8 6.5
v -1 8 5.5
v -1 9 6.5
v -1 9 5.5
v 2 7 -5.5
v 2 7 -6.5
v 2 8 -5.5
v 2 8 -6.5
v 6 7 6.5
v 6 7 5.5
v 6 7 -5.5
v 6 7 -6.5
v 6 9 6.5
v 6 9 5.5
v 6 9 4.5
v 6 9 -4.5
v 6 9 -5.5
v 6 9 -6.5
v 6 10 4.5
v 6 10 3.5
v 6 10 -3.5
v 6 10 -4.5
v 6 11 5.5
v 6 11 3.5
v 6 11 0.5
v 6 11 -0.5
v 6 11 -3.5
v 6 11 -5.5
v 6 12 3.5
v 6 12 0.5
v 6 12 -0.5
v 6 12 -3.5
v 7 1 7.5
v 7 1 6.5
v 7 1 -6.5
v 7 1 -7.5
v 7 6 6.5
v 7 6 -6.5
v 7 8 7.5
v 7 8 6.5
v 7 8 -6.5
v 7 8 -7.5
v -7 1 7.5
v -7 1 6.5
v -7 1 -6.5
v -7 1 -7.5
v -7 6 6.5
v -7 6 -6.5
v -7 8 7.5
v -7 8 6.5
v -7 8 -6.5
v -7 8 -7.5
v -6 7 6.5
v -6 7 5.5
v -6 7 -5.5
v -6 7 -6.5
v -6 9 6.5
v -6 9 5.5
v -6 9 4.5
v -6 9 -4.5
v -6 9 -5.5
v -6 9 -6.5
v -6 10 4.5
v -6 10 3.5
v -6 10 -3.5
v -6 10 -4.5
v -6 11 5.5
v -6 11 3.5
v -6 11 0.5
v -6 11 -0.5
v -6 11 -3.5
v -6 11 -5.5
v -6 12 3.5
v -6 12 0.5
v -6 12 -0.5
v -6 12 -3.5
v -2 7 -5.5
v -2 7 -6.5
v -2 8 -5.5
v -2 8 -6.5
v 1 4 7.5
v 1 4 6.5
v 1 5 7.5
v 1 5 6.5
v 1 7 7.5
v 1 7 6.5
v 1 8 7.5
v 1 8 6.5
v 1 8 5.5
v 1 9 6.5
v 1 9 5.5
v 2 5 7.5
v 2 5 6.5
v 2 6 6.5
v 2 7 7.5
v 2 7 6.5
v 3 7 6.5
v 3 7 5.5
v 3 8 6.5
v 3 8 5.5
v 5 7 -5.5
v 5 7 -6.5
v 5 8 -5.5
v 5 8 -6.5
v 7 8 6.5
v 7 8 5.5
v 7 8 4.5
v 7 8 -4.5
v 7 8 -5.5
v 7 8 -6.5
v 7 9 6.5
v 7 9 5.5
v 7 9 4.5
v 7 9 3.5
v 7 9 -3.5
v 7 9 -4.5
v 7 9 -5.5
v 7 9 -6.5
v 7 10 4.5
v 7 10 3.5
v 7 10 -3.5
v 7 10 -4.5
v 7 11 5.5
v 7 11 3.5
v 7 11 -3.5
v 7 11 -5.5
v 7 12 3.5
v 7 12 -3.5
v 8 1 7.5
v 8 1 6.5
v 8 1 -6.5
v 8 1 -7.5
v 8 2 5.5
v 8 2 -5.5
v 8 5 1.5
v 8 5 -1.5
v 8 6 2.5
v 8 6 1.5
v 8 6 -1.5
v 8 6 -2.5
v 8 7 6.5
v 8 7 5.5
v 8 7 2.5
v 8 7 1.5
v 8 7 -1.5
v 8 7 -2.5
v 8 7 -5.5
v 8 7 -6.5
v 8 8 7.5
v 8 8 2.5
v 8 8 -2.5
v 8 8 -7.5
v 9 0 7.5
v 9 0 -7.5
v 9 1 7.5
v 9 1 -7.5
v 9 5 1.5
v 9 5 -1.5
v 9 6 2.5
v 9 6 1.5
v 9 6 -1.5
v 9 6 -2.5
v 9 7 1.5
v 9 7 -1.5
v 9 8 2.5
v 9 8 -2.5
v -9 0 7.5
v -9 1 7.5
v -8 1 7.5
v -8 8 7.5
v -7 1 7.5
v -7 8 7.5
v -2 5 7.5
v -2 7 7.5
v -1 4 7.5
v -1 5 7.5
v -1 7 7.5
v -1 8 7.5
v 1 4 7.5
v 1 5 7.5
v 1 7 7.5
v 1 8 7.5
v 2 5 7.5
v 2 7 7.5
v 7 1 7.5
v 7 8 7.5
v 8 1 7.5
v 8 8 7.5
v 9 0 7.5
v 9 1 7.5
v -7 1 6.5
v -7 6 6.5
v -7 8 6.5
v -7 9 6.5
v -6 2 6.5
v -6 6 6.5
v -6 7 6.5
v -6 9 6.5
v -3 7 6.5
v -3 8 6.5
v -2 5 6.5
v -2 6 6.5
v -2 7 6.5
v -1 4 6.5
v -1 5 6.5
v -1 7 6.5
v -1 8 6.5
v -1 9 6.5
v 1 4 6.5
v 1 5 6.5
v 1 7 6.5
v 1 8 6.5
v 1 9 6.5
v 2 5 6.5
v 2 6 6.5
v 2 7 6.5
v 3 7 6.5
v 3 8 6.5
v 6 2 6.5
v 6 6 6.5
v 6 7 6.5
v 6 9 6.5
v 7 1 6.5
v 7 6 6.5
v 7 8 6.5
v 7 9 6.5
v -7 9 5.5
v -7 11 5.5
v -6 7 5.5
v -6 9 5.5
v -6 11 5.5
v -5 7 5.5
v -5 9 5.5
v -3 7 5.5
v -3 8 5.5
v -1 8 5.5
v -1 9 5.5
v 1 8 5.5
v 1 9 5.5
v 3 7 5.5
v 3 8 5.5
v 5 7 5.5
v 5 9 5.5
v 6 7 5.5
v 6 9 5.5
v 6 11 5.5
v 7 9 5.5
v 7 11 5.5
v -6 9 4.5
v -6 10 4.5
v -5 9 4.5
v -5 10 4.5
v 5 9 4.5
v 5 10 4.5
v 6 9 4.5
v 6 10 4.5
v -7 11 3.5
v -7 12 3.5
v -6 10 3.5
v -6 11 3.5
v -6 12 3.5
v -5 10 3.5
v -5 11 3.5
v 5 10 3.5
v 5 11 3.5
v 6 10 3.5
v 6 11 3.5
v 6 12 3.5
v 7 11 3.5
v 7 12 3.5
v -9 6 2.5
v -9 8 2.5
v -8 6 2.5
v -8 7 2.5
v -8 8 2.5
v 8 6 2.5
v 8 7 2.5
v 8 8 2.5
v 9 6 2.5
v 9 8 2.5
v -9 5 1.5
v -9 6 1.5
v -8 5 1.5
v -8 6 1.5
v 8 5 1.5
v 8 6 1.5
v 9 5 1.5
v 9 6 1.5
v -6 11 0.5
v -6 12 0.5
v -5 11 0.5
v 5 11 0.5
v 6 11 0.5
v 6 12 0.5
v -9 6 -1.5
v -9 7 -1.5
v -8 6 -1.5
v -8 7 -1.5
v 8 6 -1.5
v 8 7 -1.5
v 9 6 -1.5
v 9 7 -1.5
v -9 6 1.5
v -9 7 1.5
v -8 6 1.5
v -8 7 1.5
v 8 6 1.5
v 8 7 1.5
v 9 6 1.5
v 9 7 1.5
v -6 11 -0.5
v -6 12 -0.5
v -5 11 -0.5
v 5 11 -0.5
v 6 11 -0.5
v 6 12 -0.5
v -9 5 -1.5
v -9 6 -1.5
v -8 5 -1.5
v -8 6 -1.5
v 8 5 -1.5
v 8 6 -1.5
v 9 5 -1.5
v 9 6 -1.5
v -9 6 -2.5
v -9 8 -2.5
v -8 6 -2.5
v -8 7 -2.5
v -8 8 -2.5
v 8 6 -2.5
v 8 7 -2.5
v 8 8 -2.5
v 9 6 -2.5
v 9 8 -2.5
v -7 11 -3.5
v -7 12 -3.5
v -6 10 -3.5
v -6 11 -3.5
v -6 12 -3.5
v -5 10 -3.5
v -5 11 -3.5
v 5 10 -3.5
v 5 11 -3.5
v 6 10 -3.5
v 6 11 -3.5
v 6 12 -3.5
v 7 11 -3.5
v 7 12 -3.5
v -6 9 -4.5
v -6 10 -4.5
v -5 9 -4.5
v -5 10 -4.5
v 5 9 -4.5
v 5 10 -4.5
v 6 9 -4.5
v 6 10 -4.5
v -7 9 -5.5
v -7 11 -5.5
v -6 7 -5.5
v -6 9 -5.5
v -6 11 -5.5
v -5 7 -5.5
v -5 8 -5.5
v -5 9 -5.5
v -2 7 -5.5
v -2 8 -5.5
v 2 7 -5.5
v 2 8 -5.5
v 5 7 -5.5
v 5 8 -5.5
v 5 9 -5.5
v 6 7 -5.5
v 6 9 -5.5
v 6 11 -5.5
v 7 9 -5.5
v 7 11 -5.5
v -7 1 -6.5
v -7 6 -6.5
v -7 8 -6.5
v -7 9 -6.5
v -6 2 -6.5
v -6 6 -6.5
v -6 7 -6.5
v -6 9 -6.5
v -5 7 -6.5
v -5 8 -6.5
v -2 7 -6.5
v -2 8 -6.5
v 2 7 -6.5
v 2 8 -6.5
v 5 7 -6.5
v 5 8 -6.5
v 6 2 -6.5
v 6 6 -6.5
v 6 7 -6.5
v 6 9 -6.5
v 7 1 -6.5
v 7 6 -6.5
v 7 8 -6.5
v 7 9 -6.5
v -9 0 -7.5
v -9 1 -7.5
v -8 1 -7.5
v -8 8 -7.5
v -7 1 -7.5
v -7 8 -7.5
v 7 1 -7.5
v 7 8 -7.5
v 8 1 -7.5
v 8 8 -7.5
v 9 0 -7.5
v 9 1 -7.5
v -9 0 7.5
v 9 0 7.5
v -8 0 6.5
v 8 0 6.5
v -8 0 -6.5
v 8 0 -6.5
v -9 0 -7.5
v 9 0 -7.5
v -1 4 7.5
v 1 4 7.5
v -1 4 6.5
v 1 4 6.5
v -2 5 7.5
v -1 5 7.5
v 1 5 7.5
v 2 5 7.5
v -2 5 6.5
v -1 5 6.5
v 1 5 6.5
v 2 5 6.5
v -9 5 1.5
v -8 5 1.5
v 8 5 1.5
v 9 5 1.5
v -9 5 -1.5
v -8 5 -1.5
v 8 5 -1.5
v 9 5 -1.5
v -9 6 2.5
v -8 6 2.5
v 8 6 2.5
v 9 6 2.5
v -9 6 1.5
v -8 6 1.5
v 8 6 1.5
v 9 6 1.5
v -9 6 -1.5
v -8 6 -1.5
v 8 6 -1.5
v 9 6 -1.5
v -9 6 -2.5
v -8 6 -2.5
v 8 6 -2.5
v 9 6 -2.5
v -9 7 1.5
v -8 7 1.5
v 8 7 1.5
v 9 7 1.5
v -9 7 -1.5
v -8 7 -1.5
v 8 7 -1.5
v 9 7 -1.5
v -9 1 7.5
v -8 1 7.5
v -7 1 7.5
v 7 1 7.5
v 8 1 7.5
v 9 1 7.5
v -8 1 6.5
v -7 1 6.5
v 7 1 6.5
v 8 1 6.5
v -8 1 -6.5
v -7 1 -6.5
v 7 1 -6.5
v 8 1 -6.5
v -9 1 -7.5
v -8 1 -7.5
v -7 1 -7.5
v 7 1 -7.5
v 8 1 -7.5
v 9 1 -7.5
v -9 6 1.5
v -8 6 1.5
v 8 6 1.5
v 9 6 1.5
v -9 6 -1.5
v -8 6 -1.5
v 8 6 -1.5
v 9 6 -1.5
v -2 7 7.5
v -1 7 7.5
v 1 7 7.5
v 2 7 7.5
v -6 7 6.5
v -3 7 6.5
v -2 7 6.5
v -1 7 6.5
v 1 7 6.5
v 2 7 6.5
v 3 7 6.5
v 6 7 6.5
v -6 7 5.5
v -5 7 5.5
v -3 7 5.5
v 3 7 5.5
v 5 7 5.5
v 6 7 5.5
v -6 7 -5.5
v -5 7 -5.5
v -2 7 -5.5
v 2 7 -5.5
v 5 7 -5.5
v 6 7 -5.5
v -6 7 -6.5
v -5 7 -6.5
v -2 7 -6.5
v 2 7 -6.5
v 5 7 -6.5
v 6 7 -6.5
v -8 8 7.5
v -7 8 7.5
v -1 8 7.5
v 1 8 7.5
v 7 8 7.5
v 8 8 7.5
v -7 8 6.5
v -3 8 6.5
v -1 8 6.5
v 1 8 6.5
v 3 8 6.5
v 7 8 6.5
v -7 8 5.5
v -3 8 5.5
v -1 8 5.5
v 1 8 5.5
v 3 8 5.5
v 7 8 5.5
v -7 8 4.5
v 7 8 4.5
v -9 8 2.5
v -8 8 2.5
v 8 8 2.5
v 9 8 2.5
v -9 8 -2.5
v -8 8 -2.5
v 8 8 -2.5
v 9 8 -2.5
v -7 8 -4.5
v 7 8 -4.5
v -7 8 -5.5
v -5 8 -5.5
v -2 8 -5.5
v 2 8 -5.5
v 5 8 -5.5
v 7 8 -5.5
v -7 8 -6.5
v -5 8 -6.5
v -2 8 -6.5
v 2 8 -6.5
v 5 8 -6.5
v 7 8 -6.5
v -8 8 -7.5
v -7 8 -7.5
v 7 8 -7.5
v 8 8 -7.5
v -7 9 6.5
v -6 9 6.5
v -1 9 6.5
v 1 9 6.5
v 6 9 6.5
v 7 9 6.5
v -7 9 5.5
v -6 9 5.5
v -5 9 5.5
v -1 9 5.5
v 1 9 5.5
v 5 9 5.5
v 6 9 5.5
v 7 9 5.5
v -6 9 4.5
v -5 9 4.5
v 5 9 4.5
v 6 9 4.5
v -6 9 -4.5
v -5 9 -4.5
v 5 9 -4.5
v 6 9 -4.5
v -7 9 -5.5
v -6 9 -5.5
v -5 9 -5.5
v 5 9 -5.5
v 6 9 -5.5
v 7 9 -5.5
v -7 9 -6.5
v -6 9 -6.5
v 6 9 -6.5
v 7 9 -6.5
v -6 10 4.5
v -5 10 4.5
v 5 10 4.5
v 6 10 4.5
v -6 10 3.5
v -5 10 3.5
v 5 10 3.5
v 6 10 3.5
v -6 10 -3.5
v -5 10 -3.5
v 5 10 -3.5
v 6 10 -3.5
v -6 10 -4.5
v -5 10 -4.5
v 5 10 -4.5
v 6 10 -4.5
v -7 11 5.5
v -6 11 5.5
v 6 11 5.5
v 7 11 5.5
v -7 11 3.5
v -6 11 3.5
v -5 11 3.5
v 5 11 3.5
v 6 11 3.5
v 7 11 3.5
v -6 11 0.5
v -5 11 0.5
v 5 11 0.5
v 6 11 0.5
v -6 11 -0.5
v -5 11 -0.5
v 5 11 -0.5
v 6 11 -0.5
v -7 11 -3.5
v -6 11 -3.5
v -5 11 -3.5
v 5 11 -3.5
v 6 11 -3.5
v 7 11 -3.5
v -7 11 -5.5
v -6 11 -5.5
v 6 11 -5.5
v 7 11 -5.5
v -7 12 3.5
v -6 12 3.5
v 6 12 3.5
v 7 12 3.5
v -6 12 0.5
v 6 12 0.5
v -6 12 -0.5
v 6 12 -0.5
v -7 12 -3.5
v -6 12 -3.5
v 6 12 -3.5
v 7 12 -3.5

# faces
f 3/1/1 2/1/1 1/1/1
f 4/1/1 2/1/1 3/1/1
f 8/1/1 6/1/1 5/1/1
f 9/1/1 6/1/1 8/1/1
f 11/1/1 8/1/1 7/1/1
f 12/1/1 10/1/1 9/1/1
f 13/1/1 11/1/1 7/1/1
f 13/1/1 12/1/1 11/1/1
f 14/1/1 10/1/1 12/1/1
f 14/1/1 12/1/1 13/1/1
f 19/2/1 17/2/1 16/2/1
f 20/2/1 17/2/1 19/2/1
f 21/3/1 20/3/1 19/3/1
f 22/3/1 20/3/1 21/3/1
f 23/3/1 21/3/1 19/3/1
f 24/3/1 21/3/1 23/3/1
f 25/3/1 20/3/1 22/3/1
f 26/3/1 20/3/1 25/3/1
f 27/1/1 16/1/1 15/1/1
f 27/2/1 19/2/1 16/2/1
f 28/3/1 23/3/1 19/3/1
f 28/2/1 19/2/1 27/2/1
f 29/3/1 23/3/1 28/3/1
f 30/3/1 25/3/1 24/3/1
f 31/3/1 25/3/1 30/3/1
f 32/3/1 20/3/1 26/3/1
f 33/2/1 17/2/1 20/2/1
f 33/3/1 20/3/1 32/3/1
f 34/1/1 18/1/1 17/1/1
f 34/2/1 17/2/1 33/2/1
f 35/1/1 29/1/1 28/1/1
f 35/1/1 27/1/1 15/1/1
f 35/1/1 28/1/1 27/1/1
f 36/1/1 29/1/1 35/1/1
f 37/1/1 33/1/1 32/1/1
f 37/1/1 34/1/1 33/1/1
f 38/1/1 18/1/1 34/1/1
f 38/1/1 34/1/1 37/1/1
f 45/1/1 40/1/1 39/1/1
f 46/2/1 41/2/1 40/2/1
f 46/1/1 40/1/1 45/1/1
f 47/3/1 42/3/1 41/3/1
f 47/2/1 41/2/1 46/2/1
f 48/3/1 42/3/1 47/3/1
f 49/3/1 42/3/1 48/3/1
f 50/2/1 43/2/1 42/2/1
f 50/3/1 42/3/1 49/3/1
f 51/1/1 44/1/1 43/1/1
f 51/2/1 43/2/1 50/2/1
f 52/1/1 44/1/1 51/1/1
f 53/1/1 47/1/1 46/1/1
f 53/2/1 48/2/1 47/2/1
f 54/3/1 49/3/1 48/3/1
f 54/2/1 48/2/1 53/2/1
f 55/2/1 50/2/1 49/2/1
f 55/3/1 49/3/1 54/3/1
f 56/1/1 51/1/1 50/1/1
f 56/2/1 50/2/1 55/2/1
f 57/1/1 54/1/1 53/1/1
f 57/1/1 53/1/1 46/1/1
f 58/2/1 55/2/1 54/2/1
f 58/1/1 54/1/1 57/1/1
f 59/1/1 56/1/1 55/1/1
f 59/2/1 55/2/1 58/2/1
f 60/1/1 51/1/1 56/1/1
f 60/1/1 56/1/1 59/1/1
f 61/1/1 59/1/1 58/1/1
f 62/1/1 59/1/1 61/1/1
f 65/1/1 64/1/1 63/1/1
f 66/1/1 64/1/1 65/1/1
f 69/1/1 68/1/1 67/1/1
f 70/1/1 68/1/1 69/1/1
f 73/1/1 72/1/1 71/1/1
f 74/1/1 73/1/1 71/1/1
f 75/1/1 73/1/1 74/1/1
f 78/1/1 77/1/1 76/1/1
f 79/1/1 77/1/1 78/1/1
f 82/1/1 81/1/1 80/1/1
f 83/1/1 81/1/1 82/1/1
f 85/1/1 84/1/1 83/1/1
f 86/1/1 84/1/1 85/1/1
f 89/1/1 88/1/1 87/1/1
f 90/1/1 88/1/1 89/1/1
f 95/1/1 92/1/1 91/1/1
f 96/1/1 92/1/1 95/1/1
f 99/1/1 94/1/1 93/1/1
f 100/1/1 94/1/1 99/1/1
f 101/1/1 97/1/1 96/1/1
f 104/1/1 99/1/1 98/1/1
f 105/1/1 102/1/1 101/1/1
f 105/1/1 101/1/1 96/1/1
f 106/1/1 102/1/1 105/1/1
f 109/1/1 104/1/1 103/1/1
f 110/1/1 99/1/1 104/1/1
f 110/1/1 104/1/1 109/1/1
f 111/1/1 107/1/1 106/1/1
f 112/1/1 107/1/1 111/1/1
f 113/1/1 109/1/1 108/1/1
f 114/1/1 109/1/1 113/1/1
f 119/1/1 116/1/1 115/1/1
f 120/1/1 118/1/1 117/1/1
f 121/1/1 119/1/1 115/1/1
f 122/1/1 119/1/1 121/1/1
f 123/1/1 118/1/1 120/1/1
f 124/1/1 118/1/1 123/1/1
f 125/1/2 126/1/2 129/1/2
f 127/1/2 128/1/2 130/1/2
f 125/1/2 129/1/2 131/1/2
f 131/1/2 129/1/2 132/1/2
f 130/1/2 128/1/2 133/1/2
f 133/1/2 128/1/2 134/1/2
f 135/1/2 136/1/2 139/1/2
f 139/1/2 136/1/2 140/1/2
f 137/1/2 138/1/2 143/1/2
f 143/1/2 138/1/2 144/1/2
f 140/1/2 141/1/2 145/1/2
f 142/1/2 143/1/2 148/1/2
f 145/1/2 146/1/2 149/1/2
f 140/1/2 145/1/2 149/1/2
f 149/1/2 146/1/2 150/1/2
f 147/1/2 148/1/2 153/1/2
f 148/1/2 143/1/2 154/1/2
f 153/1/2 148/1/2 154/1/2
f 150/1/2 151/1/2 155/1/2
f 155/1/2 151/1/2 156/1/2
f 152/1/2 153/1/2 157/1/2
f 157/1/2 153/1/2 158/1/2
f 159/1/2 160/1/2 161/1/2
f 161/1/2 160/1/2 162/1/2
f 163/1/2 164/1/2 165/1/2
f 165/1/2 164/1/2 166/1/2
f 167/1/2 168/1/2 169/1/2
f 169/1/2 168/1/2 170/1/2
f 170/1/2 171/1/2 172/1/2
f 172/1/2 171/1/2 173/1/2
f 174/1/2 175/1/2 176/1/2
f 174/1/2 176/1/2 177/1/2
f 177/1/2 176/1/2 178/1/2
f 179/1/2 180/1/2 181/1/2
f 181/1/2 180/1/2 182/1/2
f 183/1/2 184/1/2 185/1/2
f 185/1/2 184/1/2 186/1/2
f 187/1/2 188/1/2 193/1/2
f 188/2/2 189/2/2 194/2/2
f 193/1/2 188/1/2 194/1/2
f 189/3/2 190/3/2 195/3/2
f 194/2/2 189/2/2 195/2/2
f 195/3/2 190/3/2 196/3/2
f 196/3/2 190/3/2 197/3/2
f 190/2/2 191/2/2 198/2/2
f 197/3/2 190/3/2 198/3/2
f 191/1/2 192/1/2 199/1/2
f 198/2/2 191/2/2 199/2/2
f 199/1/2 192/1/2 200/1/2
f 194/1/2 195/1/2 201/1/2
f 195/2/2 196/2/2 201/2/2
f 196/3/2 197/3/2 202/3/2
f 201/2/2 196/2/2 202/2/2
f 197/2/2 198/2/2 203/2/2
f 202/3/2 197/3/2 203/3/2
f 198/1/2 199/1/2 204/1/2
f 203/2/2 198/2/2 204/2/2
f 201/1/2 202/1/2 205/1/2
f 194/1/2 201/1/2 205/1/2
f 202/2/2 203/2/2 206/2/2
f 205/1/2 202/1/2 206/1/2
f 203/1/2 204/1/2 207/1/2
f 206/2/2 203/2/2 207/2/2
f 204/1/2 199/1/2 208/1/2
f 207/1/2 204/1/2 208/1/2
f 206/1/2 207/1/2 209/1/2
f 209/1/2 207/1/2 210/1/2
f 212/2/2 213/2/2 215/2/2
f 215/2/2 213/2/2 216/2/2
f 215/3/2 216/3/2 217/3/2
f 217/3/2 216/3/2 218/3/2
f 215/3/2 217/3/2 219/3/2
f 219/3/2 217/3/2 220/3/2
f 218/3/2 216/3/2 221/3/2
f 221/3/2 216/3/2 222/3/2
f 211/1/2 212/1/2 223/1/2
f 212/2/2 215/2/2 223/2/2
f 215/3/2 219/3/2 224/3/2
f 223/2/2 215/2/2 224/2/2
f 224/3/2 219/3/2 225/3/2
f 220/3/2 221/3/2 226/3/2
f 226/3/2 221/3/2 227/3/2
f 222/3/2 216/3/2 228/3/2
f 216/2/2 213/2/2 229/2/2
f 228/3/2 216/3/2 229/3/2
f 213/1/2 214/1/2 230/1/2
f 229/2/2 213/2/2 230/2/2
f 224/1/2 225/1/2 231/1/2
f 211/1/2 223/1/2 231/1/2
f 223/1/2 224/1/2 231/1/2
f 231/1/2 225/1/2 232/1/2
f 228/1/2 229/1/2 233/1/2
f 229/1/2 230/1/2 233/1/2
f 230/1/2 214/1/2 234/1/2
f 233/1/2 230/1/2 234/1/2
f 235/1/2 236/1/2 237/1/2
f 237/1/2 236/1/2 238/1/2
f 239/1/2 240/1/2 242/1/2
f 242/1/2 240/1/2 243/1/2
f 241/1/2 242/1/2 245/1/2
f 243/1/2 244/1/2 246/1/2
f 241/1/2 245/1/2 247/1/2
f 245/1/2 246/1/2 247/1/2
f 246/1/2 244/1/2 248/1/2
f 247/1/2 246/1/2 248/1/2
f 251/1/3 250/1/3 249/1/3
f 253/1/3 251/1/3 249/1/3
f 253/1/3 252/1/3 251/1/3
f 254/1/3 252/1/3 253/1/3
f 258/1/3 256/1/3 255/1/3
f 259/1/3 256/1/3 258/1/3
f 261/1/3 258/1/3 257/1/3
f 261/1/3 260/1/3 259/1/3
f 261/1/3 259/1/3 258/1/3
f 262/1/3 260/1/3 261/1/3
f 263/1/3 260/1/3 262/1/3
f 264/1/3 260/1/3 263/1/3
f 265/1/3 263/1/3 262/1/3
f 266/1/3 263/1/3 265/1/3
f 267/1/3 253/1/3 249/1/3
f 269/1/3 267/1/3 249/1/3
f 269/1/3 268/1/3 267/1/3
f 270/1/3 268/1/3 269/1/3
f 271/1/3 269/1/3 249/1/3
f 272/1/3 269/1/3 271/1/3
f 277/2/3 274/2/3 273/2/3
f 278/1/3 276/1/3 275/1/3
f 278/2/3 274/2/3 277/2/3
f 278/1/3 275/1/3 274/1/3
f 279/1/3 276/1/3 278/1/3
f 280/1/3 276/1/3 279/1/3
f 281/1/3 279/1/3 278/1/3
f 283/3/3 278/3/3 277/3/3
f 284/1/3 282/1/3 281/1/3
f 284/3/3 278/3/3 283/3/3
f 284/1/3 281/1/3 278/1/3
f 285/1/3 282/1/3 284/1/3
f 286/3/3 283/3/3 277/3/3
f 287/3/3 283/3/3 286/3/3
f 288/1/3 282/1/3 285/1/3
f 289/1/3 282/1/3 288/1/3
f 291/3/3 286/3/3 277/3/3
f 294/1/3 290/1/3 289/1/3
f 295/1/3 290/1/3 294/1/3
f 296/3/3 292/3/3 291/3/3
f 298/1/3 294/1/3 293/1/3
f 299/1/3 294/1/3 298/1/3
f 299/1/3 298/1/3 297/1/3
f 300/1/3 294/1/3 299/1/3
f 301/2/3 277/2/3 273/2/3
f 301/3/3 291/3/3 277/3/3
f 301/3/3 297/3/3 296/3/3
f 301/3/3 296/3/3 291/3/3
f 302/1/3 299/1/3 297/1/3
f 302/3/3 297/3/3 301/3/3
f 303/1/3 299/1/3 302/1/3
f 305/2/3 301/2/3 273/2/3
f 305/2/3 302/2/3 301/2/3
f 306/1/3 303/1/3 302/1/3
f 306/2/3 302/2/3 305/2/3
f 306/1/3 304/1/3 303/1/3
f 307/1/3 304/1/3 306/1/3
f 308/1/3 304/1/3 307/1/3
f 312/1/3 310/1/3 309/1/3
f 313/1/3 310/1/3 312/1/3
f 314/2/3 312/2/3 311/2/3
f 315/2/3 312/2/3 314/2/3
f 316/3/3 315/3/3 314/3/3
f 317/3/3 315/3/3 316/3/3
f 318/3/3 315/3/3 317/3/3
f 319/3/3 315/3/3 318/3/3
f 323/3/3 321/3/3 320/3/3
f 324/3/3 323/3/3 322/3/3
f 325/3/3 321/3/3 323/3/3
f 325/3/3 323/3/3 324/3/3
f 326/2/3 325/2/3 324/2/3
f 327/2/3 325/2/3 326/2/3
f 329/1/3 328/1/3 327/1/3
f 330/1/3 328/1/3 329/1/3
f 333/2/3 332/2/3 331/2/3
f 334/2/3 332/2/3 333/2/3
f 335/3/3 334/3/3 333/3/3
f 336/3/3 334/3/3 335/3/3
f 337/2/3 336/2/3 335/2/3
f 338/2/3 336/2/3 337/2/3
f 342/1/3 340/1/3 339/1/3
f 343/1/3 340/1/3 342/1/3
f 344/2/3 342/2/3 341/2/3
f 345/2/3 342/2/3 344/2/3
f 346/3/3 345/3/3 344/3/3
f 347/3/3 345/3/3 346/3/3
f 348/2/3 347/2/3 346/2/3
f 349/2/3 347/2/3 348/2/3
f 351/1/3 350/1/3 349/1/3
f 352/1/3 350/1/3 351/1/3
f 355/1/3 354/1/3 353/1/3
f 356/1/3 354/1/3 355/1/3
f 357/1/3 354/1/3 356/1/3
f 361/1/3 359/1/3 358/1/3
f 361/1/3 360/1/3 359/1/3
f 362/1/3 360/1/3 361/1/3
f 365/1/3 364/1/3 363/1/3
f 366/1/3 364/1/3 365/1/3
f 369/1/3 368/1/3 367/1/3
f 370/1/3 368/1/3 369/1/3
f 373/1/3 372/1/3 371/1/3
f 374/1/3 372/1/3 373/1/3
f 375/1/3 372/1/3 374/1/3
f 376/1/3 372/1/3 375/1/3
f 379/1/3 378/1/3 377/1/3
f 380/1/3 378/1/3 379/1/3
f 383/1/3 382/1/3 381/1/3
f 384/1/3 382/1/3 383/1/3
f 385/1/4 386/1/4 387/1/4
f 387/1/4 386/1/4 388/1/4
f 389/1/4 390/1/4 391/1/4
f 391/1/4 390/1/4 392/1/4
f 393/1/4 394/1/4 395/1/4
f 395/1/4 394/1/4 396/1/4
f 396/1/4 394/1/4 397/1/4
f 397/1/4 394/1/4 398/1/4
f 399/1/4 400/1/4 401/1/4
f 401/1/4 400/1/4 402/1/4
f 403/1/4 404/1/4 405/1/4
f 405/1/4 404/1/4 406/1/4
f 407/1/4 408/1/4 409/1/4
f 409/1/4 408/1/4 410/1/4
f 410/1/4 408/1/4 411/1/4
f 412/1/4 413/1/4 415/1/4
f 413/1/4 414/1/4 415/1/4
f 415/1/4 414/1/4 416/1/4
f 417/1/4 418/1/4 420/1/4
f 420/1/4 418/1/4 421/1/4
f 419/2/4 420/2/4 422/2/4
f 422/2/4 420/2/4 423/2/4
f 422/3/4 423/3/4 424/3/4
f 424/3/4 423/3/4 425/3/4
f 424/2/4 425/2/4 426/2/4
f 426/2/4 425/2/4 427/2/4
f 427/1/4 428/1/4 429/1/4
f 429/1/4 428/1/4 430/1/4
f 431/2/4 432/2/4 433/2/4
f 433/2/4 432/2/4 434/2/4
f 433/3/4 434/3/4 435/3/4
f 435/3/4 434/3/4 436/3/4
f 435/2/4 436/2/4 437/2/4
f 437/2/4 436/2/4 438/2/4
f 439/1/4 440/1/4 442/1/4
f 442/1/4 440/1/4 443/1/4
f 441/2/4 442/2/4 444/2/4
f 444/2/4 442/2/4 445/2/4
f 445/2/4 442/2/4 446/2/4
f 445/3/4 446/3/4 448/3/4
f 447/3/4 448/3/4 449/3/4
f 448/3/4 446/3/4 450/3/4
f 449/3/4 448/3/4 450/3/4
f 450/3/4 446/3/4 452/3/4
f 452/3/4 446/3/4 453/3/4
f 451/2/4 452/2/4 454/2/4
f 452/2/4 453/2/4 454/2/4
f 454/2/4 453/2/4 455/2/4
f 455/1/4 456/1/4 457/1/4
f 457/1/4 456/1/4 458/1/4
f 459/2/4 460/2/4 463/2/4
f 461/1/4 462/1/4 464/1/4
f 463/2/4 460/2/4 464/2/4
f 460/1/4 461/1/4 464/1/4
f 464/1/4 462/1/4 465/1/4
f 465/1/4 462/1/4 466/1/4
f 464/1/4 465/1/4 467/1/4
f 464/1/4 467/1/4 469/1/4
f 467/1/4 468/1/4 469/1/4
f 469/1/4 468/1/4 470/1/4
f 464/1/4 469/1/4 471/1/4
f 464/1/4 471/1/4 473/1/4
f 471/1/4 472/1/4 473/1/4
f 473/1/4 472/1/4 474/1/4
f 459/2/4 463/2/4 475/2/4
f 463/3/4 464/3/4 475/3/4
f 464/1/4 473/1/4 476/1/4
f 475/3/4 464/3/4 476/3/4
f 476/1/4 473/1/4 477/1/4
f 459/2/4 475/2/4 479/2/4
f 475/2/4 476/2/4 479/2/4
f 476/1/4 477/1/4 480/1/4
f 479/2/4 476/2/4 480/2/4
f 477/1/4 478/1/4 480/1/4
f 480/1/4 478/1/4 481/1/4
f 481/1/4 478/1/4 482/1/4
f 483/1/4 484/1/4 485/1/4
f 483/1/4 485/1/4 487/1/4
f 485/1/4 486/1/4 487/1/4
f 487/1/4 486/1/4 488/1/4
f 483/1/4 487/1/4 489/1/4
f 483/1/4 489/1/4 491/1/4
f 489/1/4 490/1/4 491/1/4
f 491/1/4 490/1/4 492/1/4
f 483/1/4 491/1/4 493/1/4
f 493/1/4 491/1/4 494/1/4
f 497/1/5 496/1/5 495/1/5
f 498/1/5 496/1/5 497/1/5
f 499/1/5 497/1/5 495/1/5
f 499/3/5 498/3/5 497/3/5
f 500/1/5 496/1/5 498/1/5
f 500/3/5 498/3/5 499/3/5
f 501/1/5 499/1/5 495/1/5
f 501/1/5 500/1/5 499/1/5
f 502/1/5 496/1/5 500/1/5
f 502/1/5 500/1/5 501/1/5
f 505/1/5 504/1/5 503/1/5
f 506/1/5 504/1/5 505/1/5
f 511/1/5 508/1/5 507/1/5
f 512/1/5 508/1/5 511/1/5
f 513/1/5 510/1/5 509/1/5
f 514/1/5 510/1/5 513/1/5
f 519/1/5 516/1/5 515/1/5
f 520/1/5 516/1/5 519/1/5
f 521/1/5 518/1/5 517/1/5
f 522/1/5 518/1/5 521/1/5
f 527/1/5 524/1/5 523/1/5
f 528/1/5 524/1/5 527/1/5
f 529/1/5 526/1/5 525/1/5
f 530/1/5 526/1/5 529/1/5
f 535/1/5 532/1/5 531/1/5
f 536/1/5 532/1/5 535/1/5
f 537/1/5 534/1/5 533/1/5
f 538/1/5 534/1/5 537/1/5
f 543/1/5 540/1/5 539/1/5
f 544/1/5 540/1/5 543/1/5
f 545/1/5 542/1/5 541/1/5
f 546/1/5 542/1/5 545/1/5
f 547/1/6 548/1/6 553/1/6
f 549/1/6 550/1/6 554/1/6
f 554/1/6 550/1/6 555/1/6
f 551/1/6 552/1/6 556/1/6
f 547/1/6 553/1/6 557/1/6
f 556/1/6 552/1/6 560/1/6
f 547/1/6 557/1/6 561/1/6
f 561/1/6 557/1/6 562/1/6
f 558/1/6 559/1/6 563/1/6
f 563/1/6 559/1/6 564/1/6
f 560/1/6 552/1/6 565/1/6
f 565/1/6 552/1/6 566/1/6
f 567/1/6 568/1/6 571/1/6
f 571/1/6 568/1/6 572/1/6
f 569/1/6 570/1/6 573/1/6
f 573/1/6 570/1/6 574/1/6
f 575/1/6 576/1/6 581/1/6
f 581/1/6 576/1/6 582/1/6
f 577/1/6 578/1/6 583/1/6
f 583/1/6 578/1/6 584/1/6
f 579/1/6 580/1/6 587/1/6
f 587/1/6 580/1/6 588/1/6
f 588/1/6 580/1/6 589/1/6
f 585/1/6 586/1/6 590/1/6
f 590/1/6 586/1/6 591/1/6
f 591/1/6 586/1/6 592/1/6
f 593/1/6 594/1/6 599/1/6
f 599/1/6 594/1/6 600/1/6
f 595/1/6 596/1/6 601/1/6
f 601/1/6 596/1/6 602/1/6
f 597/1/6 598/1/6 603/1/6
f 603/1/6 598/1/6 604/1/6
f 605/1/6 606/1/6 611/1/6
f 607/1/6 608/1/6 613/1/6
f 613/1/6 608/1/6 614/1/6
f 609/1/6 610/1/6 616/1/6
f 605/1/6 611/1/6 617/1/6
f 612/1/6 613/1/6 618/1/6
f 618/1/6 613/1/6 619/1/6
f 614/1/6 615/1/6 620/1/6
f 620/1/6 615/1/6 621/1/6
f 616/1/6 610/1/6 622/1/6
f 605/1/6 617/1/6 623/1/6
f 622/1/6 610/1/6 624/1/6
f 605/1/6 623/1/6 626/1/6
f 624/1/6 610/1/6 627/1/6
f 625/1/6 626/1/6 629/1/6
f 626/1/6 623/1/6 630/1/6
f 629/1/6 626/1/6 630/1/6
f 627/1/6 628/1/6 631/1/6
f 624/1/6 627/1/6 631/1/6
f 631/1/6 628/1/6 632/1/6
f 630/1/6 623/1/6 633/1/6
f 624/1/6 631/1/6 634/1/6
f 630/1/6 633/1/6 635/1/6
f 634/1/6 631/1/6 640/1/6
f 630/1/6 635/1/6 641/1/6
f 636/1/6 637/1/6 642/1/6
f 642/1/6 637/1/6 643/1/6
f 638/1/6 639/1/6 644/1/6
f 644/1/6 639/1/6 645/1/6
f 640/1/6 631/1/6 646/1/6
f 630/1/6 641/1/6 647/1/6
f 647/1/6 641/1/6 648/1/6
f 646/1/6 631/1/6 649/1/6
f 649/1/6 631/1/6 650/1/6
f 651/1/6 652/1/6 657/1/6
f 657/1/6 652/1/6 658/1/6
f 653/1/6 654/1/6 660/1/6
f 660/1/6 654/1/6 661/1/6
f 655/1/6 656/1/6 663/1/6
f 663/1/6 656/1/6 664/1/6
f 658/2/6 659/2/6 665/2/6
f 661/3/6 662/3/6 666/3/6
f 665/2/6 659/2/6 666/2/6
f 659/3/6 660/3/6 666/3/6
f 660/3/6 661/3/6 666/3/6
f 662/2/6 663/2/6 667/2/6
f 666/3/6 662/3/6 667/3/6
f 667/2/6 663/2/6 668/2/6
f 669/2/6 670/2/6 674/2/6
f 670/3/6 671/3/6 675/3/6
f 674/2/6 670/2/6 675/2/6
f 671/2/6 672/2/6 676/2/6
f 675/3/6 671/3/6 676/3/6
f 676/2/6 672/2/6 677/2/6
f 673/1/6 674/1/6 679/1/6
f 679/1/6 674/1/6 680/1/6
f 677/1/6 678/1/6 681/1/6
f 681/1/6 678/1/6 682/1/6
f 683/2/6 684/2/6 687/2/6
f 684/3/6 685/3/6 688/3/6
f 687/2/6 684/2/6 688/2/6
f 685/2/6 686/2/6 689/2/6
f 688/3/6 685/3/6 689/3/6
f 689/2/6 686/2/6 690/2/6
f 691/2/6 692/2/6 695/2/6
f 692/3/6 693/3/6 696/3/6
f 695/2/6 692/2/6 696/2/6
f 693/2/6 694/2/6 697/2/6
f 696/3/6 693/3/6 697/3/6
f 697/2/6 694/2/6 698/2/6
f 699/1/6 700/1/6 703/1/6
f 703/1/6 700/1/6 704/1/6
f 701/1/6 702/1/6 707/1/6
f 707/1/6 702/1/6 708/1/6
f 704/2/6 705/2/6 709/2/6
f 705/3/6 706/3/6 710/3/6
f 709/2/6 705/2/6 710/2/6
f 706/2/6 707/2/6 711/2/6
f 710/3/6 706/3/6 711/3/6
f 711/2/6 707/2/6 712/2/6
f 713/2/6 714/2/6 718/2/6
f 714/3/6 715/3/6 719/3/6
f 718/2/6 714/2/6 719/2/6
f 715/2/6 716/2/6 720/2/6
f 719/3/6 715/3/6 720/3/6
f 720/2/6 716/2/6 721/2/6
f 717/1/6 718/1/6 723/1/6
f 723/1/6 718/1/6 724/1/6
f 721/1/6 722/1/6 725/1/6
f 725/1/6 722/1/6 726/1/6
f 727/1/6 728/1/6 731/1/6
f 729/1/6 730/1/6 732/1/6
f 727/1/6 731/1/6 733/1/6
f 731/1/6 732/1/6 733/1/6
f 732/1/6 730/1/6 734/1/6
f 733/1/6 732/1/6 734/1/6
f 727/1/6 733/1/6 735/1/6
f 735/1/6 733/1/6 736/1/6
f 734/1/6 730/1/6 737/1/6
f 737/1/6 730/1/6 738/1/6
