# MagicaVoxel @ ephtracy

# material
mtllib sword_wood.mtl
usemtl palette

# normals
vn -1 0 0
vn 1 0 0
vn 0 0 1
vn 0 0 -1
vn 0 -1 0
vn 0 1 0

# texcoords
vt 0.876953 0.5
vt 0.880859 0.5
vt 0.884766 0.5
vt 0.939453 0.5

# verts
v -1.5 3 0.5
v -1.5 3 -0.5
v -1.5 4 0.5
v -1.5 4 -0.5
v -0.5 0 0.5
v -0.5 0 -0.5
v -0.5 1 0.5
v -0.5 1 -0.5
v -0.5 2 0.5
v -0.5 2 -0.5
v -0.5 3 0.5
v -0.5 3 -0.5
v -0.5 4 0.5
v -0.5 4 -0.5
v -0.5 5 0.5
v -0.5 5 -0.5
v -0.5 6 0.5
v -0.5 6 -0.5
v -0.5 8 0.5
v -0.5 8 -0.5
v -0.5 9 0.5
v -0.5 9 -0.5
v -0.5 11 0.5
v -0.5 11 -0.5
v 0.5 11 0.5
v 0.5 11 -0.5
v 0.5 12 0.5
v 0.5 12 -0.5
v 0.5 0 0.5
v 0.5 0 -0.5
v 0.5 1 0.5
v 0.5 1 -0.5
v 0.5 2 0.5
v 0.5 2 -0.5
v 0.5 3 0.5
v 0.5 3 -0.5
v 0.5 4 0.5
v 0.5 4 -0.5
v 0.5 5 0.5
v 0.5 5 -0.5
v 0.5 6 0.5
v 0.5 6 -0.5
v 0.5 8 0.5
v 0.5 8 -0.5
v 0.5 9 0.5
v 0.5 9 -0.5
v 0.5 11 0.5
v 0.5 11 -0.5
v 1.5 3 0.5
v 1.5 3 -0.5
v 1.5 4 0.5
v 1.5 4 -0.5
v 1.5 11 0.5
v 1.5 11 -0.5
v 1.5 12 0.5
v 1.5 12 -0.5
v -1.5 3 0.5
v -1.5 4 0.5
v -0.5 0 0.5
v -0.5 1 0.5
v -0.5 2 0.5
v -0.5 3 0.5
v -0.5 4 0.5
v -0.5 5 0.5
v -0.5 6 0.5
v -0.5 8 0.5
v -0.5 9 0.5
v -0.5 11 0.5
v 0.5 0 0.5
v 0.5 1 0.5
v 0.5 2 0.5
v 0.5 3 0.5
v 0.5 4 0.5
v 0.5 5 0.5
v 0.5 6 0.5
v 0.5 8 0.5
v 0.5 9 0.5
v 0.5 11 0.5
v 0.5 12 0.5
v 1.5 3 0.5
v 1.5 4 0.5
v 1.5 11 0.5
v 1.5 12 0.5
v -1.5 3 -0.5
v -1.5 4 -0.5
v -0.5 0 -0.5
v -0.5 1 -0.5
v -0.5 2 -0.5
v -0.5 3 -0.5
v -0.5 4 -0.5
v -0.5 5 -0.5
v -0.5 6 -0.5
v -0.5 8 -0.5
v -0.5 9 -0.5
v -0.5 11 -0.5
v 0.5 0 -0.5
v 0.5 1 -0.5
v 0.5 2 -0.5
v 0.5 3 -0.5
v 0.5 4 -0.5
v 0.5 5 -0.5
v 0.5 6 -0.5
v 0.5 8 -0.5
v 0.5 9 -0.5
v 0.5 11 -0.5
v 0.5 12 -0.5
v 1.5 3 -0.5
v 1.5 4 -0.5
v 1.5 11 -0.5
v 1.5 12 -0.5
v -0.5 0 0.5
v 0.5 0 0.5
v -0.5 0 -0.5
v 0.5 0 -0.5
v -1.5 3 0.5
v -0.5 3 0.5
v 0.5 3 0.5
v 1.5 3 0.5
v -1.5 3 -0.5
v -0.5 3 -0.5
v 0.5 3 -0.5
v 1.5 3 -0.5
v 0.5 11 0.5
v 1.5 11 0.5
v 0.5 11 -0.5
v 1.5 11 -0.5
v -1.5 4 0.5
v -0.5 4 0.5
v 0.5 4 0.5
v 1.5 4 0.5
v -1.5 4 -0.5
v -0.5 4 -0.5
v 0.5 4 -0.5
v 1.5 4 -0.5
v -0.5 11 0.5
v 0.5 11 0.5
v -0.5 11 -0.5
v 0.5 11 -0.5
v 0.5 12 0.5
v 1.5 12 0.5
v 0.5 12 -0.5
v 1.5 12 -0.5

# faces
f 3/3/1 2/3/1 1/3/1
f 4/3/1 2/3/1 3/3/1
f 7/1/1 6/1/1 5/1/1
f 8/1/1 6/1/1 7/1/1
f 9/2/1 8/2/1 7/2/1
f 10/2/1 8/2/1 9/2/1
f 11/1/1 10/1/1 9/1/1
f 12/1/1 10/1/1 11/1/1
f 15/1/1 14/1/1 13/1/1
f 16/1/1 14/1/1 15/1/1
f 17/2/1 16/2/1 15/2/1
f 18/2/1 16/2/1 17/2/1
f 19/1/1 18/1/1 17/1/1
f 20/1/1 18/1/1 19/1/1
f 21/3/1 20/3/1 19/3/1
f 22/3/1 20/3/1 21/3/1
f 23/1/1 22/1/1 21/1/1
f 24/1/1 22/1/1 23/1/1
f 27/4/1 26/4/1 25/4/1
f 28/4/1 26/4/1 27/4/1
f 29/1/2 30/1/2 31/1/2
f 31/1/2 30/1/2 32/1/2
f 31/2/2 32/2/2 33/2/2
f 33/2/2 32/2/2 34/2/2
f 33/1/2 34/1/2 35/1/2
f 35/1/2 34/1/2 36/1/2
f 37/1/2 38/1/2 39/1/2
f 39/1/2 38/1/2 40/1/2
f 39/2/2 40/2/2 41/2/2
f 41/2/2 40/2/2 42/2/2
f 41/1/2 42/1/2 43/1/2
f 43/1/2 42/1/2 44/1/2
f 43/3/2 44/3/2 45/3/2
f 45/3/2 44/3/2 46/3/2
f 45/1/2 46/1/2 47/1/2
f 47/1/2 46/1/2 48/1/2
f 49/3/2 50/3/2 51/3/2
f 51/3/2 50/3/2 52/3/2
f 53/4/2 54/4/2 55/4/2
f 55/4/2 54/4/2 56/4/2
f 62/3/3 58/3/3 57/3/3
f 63/3/3 58/3/3 62/3/3
f 69/1/3 60/1/3 59/1/3
f 70/2/3 61/2/3 60/2/3
f 70/1/3 60/1/3 69/1/3
f 71/1/3 62/1/3 61/1/3
f 71/2/3 61/2/3 70/2/3
f 72/3/3 63/3/3 62/3/3
f 72/1/3 62/1/3 71/1/3
f 73/1/3 64/1/3 63/1/3
f 73/3/3 63/3/3 72/3/3
f 74/2/3 65/2/3 64/2/3
f 74/1/3 64/1/3 73/1/3
f 75/1/3 66/1/3 65/1/3
f 75/2/3 65/2/3 74/2/3
f 76/3/3 67/3/3 66/3/3
f 76/1/3 66/1/3 75/1/3
f 77/1/3 68/1/3 67/1/3
f 77/3/3 67/3/3 76/3/3
f 78/1/3 68/1/3 77/1/3
f 80/3/3 73/3/3 72/3/3
f 81/3/3 73/3/3 80/3/3
f 82/4/3 79/4/3 78/4/3
f 83/4/3 79/4/3 82/4/3
f 84/3/4 85/3/4 89/3/4
f 89/3/4 85/3/4 90/3/4
f 86/1/4 87/1/4 96/1/4
f 87/2/4 88/2/4 97/2/4
f 96/1/4 87/1/4 97/1/4
f 88/1/4 89/1/4 98/1/4
f 97/2/4 88/2/4 98/2/4
f 89/3/4 90/3/4 99/3/4
f 98/1/4 89/1/4 99/1/4
f 90/1/4 91/1/4 100/1/4
f 99/3/4 90/3/4 100/3/4
f 91/2/4 92/2/4 101/2/4
f 100/1/4 91/1/4 101/1/4
f 92/1/4 93/1/4 102/1/4
f 101/2/4 92/2/4 102/2/4
f 93/3/4 94/3/4 103/3/4
f 102/1/4 93/1/4 103/1/4
f 94/1/4 95/1/4 104/1/4
f 103/3/4 94/3/4 104/3/4
f 104/1/4 95/1/4 105/1/4
f 99/3/4 100/3/4 107/3/4
f 107/3/4 100/3/4 108/3/4
f 105/4/4 106/4/4 109/4/4
f 109/4/4 106/4/4 110/4/4
f 113/1/5 112/1/5 111/1/5
f 114/1/5 112/1/5 113/1/5
f 119/3/5 116/3/5 115/3/5
f 120/3/5 116/3/5 119/3/5
f 121/3/5 118/3/5 117/3/5
f 122/3/5 118/3/5 121/3/5
f 125/4/5 124/4/5 123/4/5
f 126/4/5 124/4/5 125/4/5
f 127/3/6 128/3/6 131/3/6
f 131/3/6 128/3/6 132/3/6
f 129/3/6 130/3/6 133/3/6
f 133/3/6 130/3/6 134/3/6
f 135/1/6 136/1/6 137/1/6
f 137/1/6 136/1/6 138/1/6
f 139/4/6 140/4/6 141/4/6
f 141/4/6 140/4/6 142/4/6
