# MagicaVoxel @ ephtracy

# material
mtllib weap_axe.mtl
usemtl palette

# normals
vn -1 0 0
vn 1 0 0
vn 0 0 1
vn 0 0 -1
vn 0 -1 0
vn 0 1 0

# texcoords
vt 0.369141 0.5
vt 0.373047 0.5
vt 0.974609 0.5

# verts
v -0.5 0 -0.5
v -0.5 0 -1.5
v -0.5 2 -0.5
v -0.5 2 -1.5
v -0.5 3 1.5
v -0.5 3 0.5
v -0.5 4 0.5
v -0.5 4 -0.5
v -0.5 6 0.5
v -0.5 6 -0.5
v -0.5 7 1.5
v -0.5 7 0.5
v -0.5 7 -0.5
v -0.5 7 -1.5
v 0.5 0 -0.5
v 0.5 0 -1.5
v 0.5 2 -0.5
v 0.5 2 -1.5
v 0.5 3 1.5
v 0.5 3 0.5
v 0.5 4 0.5
v 0.5 4 -0.5
v 0.5 6 0.5
v 0.5 6 -0.5
v 0.5 7 1.5
v 0.5 7 0.5
v 0.5 7 -0.5
v 0.5 7 -1.5
v -0.5 3 1.5
v -0.5 7 1.5
v 0.5 3 1.5
v 0.5 7 1.5
v -0.5 0 -0.5
v -0.5 2 -0.5
v -0.5 4 -0.5
v -0.5 6 -0.5
v -0.5 7 -0.5
v 0.5 0 -0.5
v 0.5 2 -0.5
v 0.5 4 -0.5
v 0.5 6 -0.5
v 0.5 7 -0.5
v -0.5 3 0.5
v -0.5 4 0.5
v -0.5 6 0.5
v -0.5 7 0.5
v 0.5 3 0.5
v 0.5 4 0.5
v 0.5 6 0.5
v 0.5 7 0.5
v -0.5 0 -1.5
v -0.5 2 -1.5
v -0.5 7 -1.5
v 0.5 0 -1.5
v 0.5 2 -1.5
v 0.5 7 -1.5
v -0.5 0 -0.5
v 0.5 0 -0.5
v -0.5 0 -1.5
v 0.5 0 -1.5
v -0.5 3 1.5
v 0.5 3 1.5
v -0.5 3 0.5
v 0.5 3 0.5
v -0.5 4 0.5
v 0.5 4 0.5
v -0.5 4 -0.5
v 0.5 4 -0.5
v -0.5 6 0.5
v 0.5 6 0.5
v -0.5 6 -0.5
v 0.5 6 -0.5
v -0.5 7 1.5
v 0.5 7 1.5
v -0.5 7 0.5
v 0.5 7 0.5
v -0.5 7 -0.5
v 0.5 7 -0.5
v -0.5 7 -1.5
v 0.5 7 -1.5

# faces
f 3/2/1 2/2/1 1/2/1
f 4/2/1 2/2/1 3/2/1
f 7/3/1 6/3/1 5/3/1
f 8/1/1 4/1/1 3/1/1
f 9/3/1 7/3/1 5/3/1
f 9/3/1 8/3/1 7/3/1
f 10/1/1 4/1/1 8/1/1
f 10/3/1 8/3/1 9/3/1
f 11/3/1 9/3/1 5/3/1
f 12/3/1 9/3/1 11/3/1
f 13/1/1 4/1/1 10/1/1
f 14/1/1 4/1/1 13/1/1
f 15/2/2 16/2/2 17/2/2
f 17/2/2 16/2/2 18/2/2
f 19/3/2 20/3/2 21/3/2
f 17/1/2 18/1/2 22/1/2
f 19/3/2 21/3/2 23/3/2
f 21/3/2 22/3/2 23/3/2
f 22/1/2 18/1/2 24/1/2
f 23/3/2 22/3/2 24/3/2
f 19/3/2 23/3/2 25/3/2
f 25/3/2 23/3/2 26/3/2
f 24/1/2 18/1/2 27/1/2
f 27/1/2 18/1/2 28/1/2
f 31/3/3 30/3/3 29/3/3
f 32/3/3 30/3/3 31/3/3
f 38/2/3 34/2/3 33/2/3
f 39/1/3 35/1/3 34/1/3
f 39/2/3 34/2/3 38/2/3
f 40/1/3 35/1/3 39/1/3
f 41/1/3 37/1/3 36/1/3
f 42/1/3 37/1/3 41/1/3
f 43/3/4 44/3/4 47/3/4
f 47/3/4 44/3/4 48/3/4
f 45/3/4 46/3/4 49/3/4
f 49/3/4 46/3/4 50/3/4
f 51/2/4 52/2/4 54/2/4
f 52/1/4 53/1/4 55/1/4
f 54/2/4 52/2/4 55/2/4
f 55/1/4 53/1/4 56/1/4
f 59/2/5 58/2/5 57/2/5
f 60/2/5 58/2/5 59/2/5
f 63/3/5 62/3/5 61/3/5
f 64/3/5 62/3/5 63/3/5
f 67/3/5 66/3/5 65/3/5
f 68/3/5 66/3/5 67/3/5
f 69/3/6 70/3/6 71/3/6
f 71/3/6 70/3/6 72/3/6
f 73/3/6 74/3/6 75/3/6
f 75/3/6 74/3/6 76/3/6
f 77/1/6 78/1/6 79/1/6
f 79/1/6 78/1/6 80/1/6
